<?xml version="1.0" encoding="UTF-8" standalone="no"?>
<!-- Created with Inkscape (http://www.inkscape.org/) -->
<svg
   xmlns:svg="http://www.w3.org/2000/svg"
   xmlns="http://www.w3.org/2000/svg"
   version="1.0"
   width="744.09448"
   height="1052.3622"
   id="svg2">
  <defs
     id="defs4" />
  <path
     d="M 263.76372,250.02736 L 263.24572,250.02736 L 262.96572,250.44736 L 262.68572,250.86736 C 262.52122,250.70986 262.34184,250.57074 262.14978,250.45064 C 261.95772,250.33055 261.75297,250.22948 261.53772,250.14811 C 261.32247,250.06674 261.09672,250.00505 260.86266,249.9637 C 260.6286,249.92236 260.38622,249.90136 260.13772,249.90136 C 259.67922,249.90136 259.25835,249.97486 258.88494,250.11245 C 258.51153,250.25005 258.1856,250.45174 257.91697,250.70811 C 257.64835,250.96448 257.43703,251.27555 257.29288,251.63189 C 257.14872,251.98824 257.07172,252.38986 257.07172,252.82736 C 257.07172,253.01811 257.08353,253.19683 257.10822,253.36458 C 257.13292,253.53234 257.17049,253.68913 257.222,253.83602 C 257.27352,253.98291 257.33898,254.1199 257.41945,254.24806 C 257.49992,254.37622 257.59541,254.49555 257.70697,254.60711 C 257.81853,254.71867 257.94617,254.82247 258.09096,254.91957 C 258.23574,255.01666 258.39767,255.10706 258.57781,255.19183 C 258.75795,255.27659 258.95631,255.35573 259.17393,255.43029 C 259.39156,255.50486 259.62847,255.57486 259.88572,255.64136 L 260.21822,255.72536 L 260.55072,255.80936 L 260.88322,255.89336 L 261.21572,255.97736 C 261.47472,256.04386 261.67509,256.09548 261.83456,256.13902 C 261.99403,256.18255 262.11259,256.21799 262.20797,256.25211 C 262.30334,256.28624 262.37553,256.31905 262.44225,256.35733 C 262.50897,256.39561 262.57022,256.43936 262.64372,256.49536 C 262.74872,256.57586 262.84147,256.66511 262.92153,256.76223 C 263.0016,256.85936 263.06897,256.96436 263.12322,257.07636 C 263.17747,257.18836 263.21859,257.30736 263.24616,257.43248 C 263.27372,257.55761 263.28772,257.68886 263.28772,257.82536 C 263.28772,257.96536 263.27459,258.09923 263.24834,258.2272 C 263.22209,258.35517 263.18272,258.47723 263.13022,258.59361 C 263.07772,258.70999 263.01209,258.82067 262.93334,258.92589 C 262.85459,259.03111 262.76272,259.13086 262.65772,259.22536 C 262.19572,259.63136 261.73372,259.78536 260.96372,259.78536 C 260.70472,259.78536 260.4641,259.76523 260.23856,259.72367 C 260.01303,259.68211 259.80259,259.61911 259.60397,259.53336 C 259.40535,259.44761 259.21853,259.33911 259.04025,259.20655 C 258.86197,259.07399 258.69222,258.91736 258.52772,258.73536 C 258.38072,258.57086 258.25209,258.40636 258.13856,258.2353 C 258.02503,258.06424 257.9266,257.88661 257.83997,257.69586 C 257.75334,257.50511 257.67853,257.30124 257.61225,257.07767 C 257.54597,256.85411 257.48822,256.61086 257.43572,256.34136 L 256.83372,256.34136 L 256.84072,256.84011 L 256.84772,257.33886 L 256.85472,257.83761 L 256.86172,258.33636 L 256.86872,258.83511 L 256.87572,259.33386 L 256.88272,259.83261 L 256.88972,260.33136 L 257.43572,260.33136 L 257.51447,260.21236 L 257.59322,260.09336 L 257.67197,259.97436 L 257.75072,259.85536 L 257.82947,259.73636 L 257.90822,259.61736 L 257.98697,259.49836 L 258.06572,259.37936 C 258.30022,259.57186 258.52509,259.73374 258.74953,259.86827 C 258.97397,260.0028 259.19797,260.10999 259.43072,260.19311 C 259.66347,260.27624 259.90497,260.3353 260.16441,260.37358 C 260.42384,260.41186 260.70122,260.42936 261.00572,260.42936 C 261.26297,260.42936 261.50863,260.41055 261.74157,260.37396 C 261.97451,260.33738 262.19474,260.28302 262.40113,260.21192 C 262.60752,260.14083 262.80007,260.053 262.97767,259.94948 C 263.15527,259.84595 263.31791,259.72674 263.46447,259.59286 C 263.61103,259.45899 263.74152,259.31045 263.8548,259.14831 C 263.96809,258.98616 264.06417,258.81039 264.14194,258.62205 C 264.2197,258.4337 264.27915,258.23278 264.31915,258.02032 C 264.35916,257.80786 264.37972,257.58386 264.37972,257.34936 C 264.37972,257.13236 264.36135,256.92324 264.32525,256.7233 C 264.28916,256.52336 264.23534,256.33261 264.16447,256.15236 C 264.09359,255.97211 264.00566,255.80236 263.90131,255.64442 C 263.79697,255.48649 263.67622,255.34036 263.53972,255.20736 C 263.44522,255.11636 263.34022,255.03324 263.21838,254.95536 C 263.09653,254.87749 262.95785,254.80486 262.79597,254.73486 C 262.6341,254.66486 262.44903,254.59749 262.23444,254.53011 C 262.01985,254.46273 261.77572,254.39536 261.49572,254.32536 L 261.12122,254.23086 L 260.74672,254.13636 L 260.37222,254.04186 L 259.99772,253.94736 C 259.68622,253.86686 259.41584,253.77236 259.1855,253.66255 C 258.95516,253.55274 258.76485,253.42761 258.61347,253.28586 C 258.46209,253.14411 258.34966,252.98574 258.27506,252.80942 C 258.20047,252.63311 258.16372,252.43886 258.16372,252.22536 C 258.16372,251.98036 258.21359,251.75461 258.307,251.5538 C 258.40041,251.35299 258.53735,251.17711 258.71147,251.03186 C 258.8856,250.88661 259.09691,250.77198 259.33906,250.69367 C 259.58122,250.61536 259.85422,250.57336 260.15172,250.57336 C 260.39672,250.57336 260.63034,250.59961 260.85172,250.65145 C 261.07309,250.7033 261.28222,250.78073 261.47822,250.88311 C 261.67422,250.98549 261.85709,251.1128 262.02597,251.26439 C 262.19484,251.41599 262.34972,251.59186 262.48972,251.79136 C 262.59122,251.93486 262.68309,252.07923 262.76666,252.22623 C 262.85022,252.37323 262.92547,252.52286 262.99372,252.67686 C 263.06197,252.83086 263.12322,252.98924 263.17878,253.15374 C 263.23435,253.31824 263.28422,253.48886 263.32972,253.66736 L 263.63072,253.66736 L 263.93172,253.66736 L 263.92122,253.43986 L 263.91072,253.21236 L 263.90022,252.98486 L 263.88972,252.75736 L 263.87922,252.52986 L 263.86872,252.30236 L 263.85822,252.07486 L 263.84772,251.84736 L 263.83722,251.61986 L 263.82672,251.39236 L 263.81622,251.16486 L 263.80572,250.93736 L 263.79522,250.70986 L 263.78472,250.48236 L 263.77422,250.25486 L 263.76372,250.02736 M 282.30761,250.01336 L 281.77561,250.01336 L 281.63911,250.22686 L 281.50261,250.44036 L 281.36611,250.65386 L 281.22961,250.86736 C 281.00211,250.68536 280.79298,250.53399 280.5913,250.4093 C 280.38961,250.28461 280.19536,250.18661 279.99761,250.11136 C 279.79986,250.03611 279.59861,249.98361 279.38292,249.94992 C 279.16724,249.91624 278.93711,249.90136 278.68161,249.90136 C 278.40511,249.90136 278.14348,249.92061 277.8928,249.96064 C 277.64211,250.00067 277.40236,250.06149 277.16961,250.14461 C 276.93686,250.22774 276.71111,250.33317 276.48842,250.46245 C 276.26574,250.59173 276.04611,250.74486 275.82561,250.92336 C 275.65236,251.06336 275.4907,251.20795 275.34045,251.3575 C 275.1902,251.50704 275.05134,251.66153 274.9237,251.82133 C 274.79606,251.98113 274.67963,252.14623 274.57422,252.31699 C 274.46881,252.48775 274.37442,252.66417 274.29086,252.84661 C 274.2073,253.02905 274.13456,253.2175 274.07247,253.41232 C 274.01037,253.60715 273.95891,253.80834 273.91789,254.01627 C 273.83586,254.43211 273.79561,254.87486 273.79561,255.34736 C 273.79561,255.52586 273.80217,255.70064 273.81524,255.87162 C 273.82831,256.0426 273.84789,256.20978 273.87392,256.37308 C 273.89995,256.53638 273.93244,256.69579 273.97132,256.85124 C 274.0102,257.00669 274.05549,257.15817 274.10711,257.30561 C 274.15874,257.45305 274.2167,257.59644 274.28096,257.7357 C 274.34522,257.87496 274.41577,258.01009 274.49255,258.14102 C 274.56933,258.27194 274.65234,258.39865 274.74154,258.52107 C 274.83074,258.64349 274.92611,258.76161 275.02761,258.87536 C 275.13611,258.99786 275.25117,259.11402 275.37209,259.2235 C 275.493,259.33299 275.61977,259.4358 275.75167,259.53161 C 275.88358,259.62742 276.02063,259.71624 276.1621,259.79772 C 276.30358,259.8792 276.44948,259.95336 276.59911,260.01986 C 276.74874,260.08636 276.90208,260.1452 277.05843,260.19606 C 277.21478,260.24692 277.37414,260.2898 277.5358,260.32436 C 277.69745,260.35892 277.86141,260.38517 278.02695,260.40278 C 278.19248,260.42039 278.35961,260.42936 278.52761,260.42936 C 278.82161,260.42936 279.09373,260.40661 279.35077,260.35827 C 279.6078,260.30992 279.84974,260.23599 280.08336,260.13361 C 280.31699,260.03123 280.5423,259.90042 280.76608,259.73833 C 280.98986,259.57623 281.21211,259.38286 281.43961,259.15536 L 281.69861,259.78536 L 281.95761,260.41536 L 282.54561,260.41536 L 282.54561,260.03036 L 282.54561,259.64536 L 282.54561,259.26036 L 282.54561,258.87536 L 282.54561,258.49036 L 282.54561,258.10536 L 282.54561,257.72036 L 282.54561,257.33536 C 282.54561,257.14636 282.54561,257.00374 282.54692,256.89458 C 282.54823,256.78542 282.55086,256.70974 282.55611,256.65461 C 282.56136,256.59948 282.56924,256.56492 282.58105,256.53802 C 282.59286,256.51111 282.60861,256.49186 282.62961,256.46736 C 282.66111,256.43236 282.70311,256.40261 282.7602,256.37767 C 282.8173,256.35273 282.88948,256.33261 282.98136,256.31686 C 283.07323,256.30111 283.1848,256.28973 283.32064,256.2823 C 283.45648,256.27486 283.61661,256.27136 283.80561,256.27136 L 284.01561,256.27136 L 284.01561,255.61336 L 283.73736,255.61336 L 283.45911,255.61336 L 283.18086,255.61336 L 282.90261,255.61336 L 282.62436,255.61336 L 282.34611,255.61336 L 282.06786,255.61336 L 281.78961,255.61336 L 281.51136,255.61336 L 281.23311,255.61336 L 280.95486,255.61336 L 280.67661,255.61336 L 280.39836,255.61336 L 280.12011,255.61336 L 279.84186,255.61336 L 279.56361,255.61336 L 279.56361,256.27136 L 279.82961,256.27136 C 279.97661,256.27136 280.10677,256.27245 280.22199,256.27587 C 280.33722,256.27929 280.43752,256.28503 280.5248,256.29433 C 280.61208,256.30363 280.68634,256.31648 280.74951,256.33411 C 280.81267,256.35175 280.86473,256.37417 280.90761,256.40261 C 280.95048,256.43105 280.98417,256.4655 281.01059,256.5072 C 281.037,256.5489 281.05614,256.59784 281.06992,256.65527 C 281.0837,256.71269 281.09213,256.77859 281.0971,256.85419 C 281.10208,256.9298 281.10361,257.01511 281.10361,257.11136 C 281.10361,257.71336 280.99161,258.27336 280.82361,258.60936 C 280.77986,258.69511 280.72758,258.77758 280.66781,258.85625 C 280.60803,258.93491 280.54077,259.00978 280.46705,259.08033 C 280.39333,259.15088 280.31316,259.2171 280.22757,259.27849 C 280.14198,259.33988 280.05098,259.39642 279.95561,259.44761 C 279.86023,259.4988 279.76049,259.54463 279.6574,259.58457 C 279.55431,259.62452 279.44789,259.65859 279.33917,259.68627 C 279.23045,259.71394 279.11944,259.73521 279.00716,259.74957 C 278.89489,259.76392 278.78136,259.77136 278.66761,259.77136 C 278.55561,259.77136 278.44339,259.76414 278.33183,259.75014 C 278.22027,259.73614 278.10936,259.71536 277.99998,259.68823 C 277.89061,259.66111 277.78277,259.62764 277.67733,259.58827 C 277.57189,259.54889 277.46886,259.50361 277.36911,259.45286 C 277.26936,259.40211 277.17289,259.34589 277.08058,259.28464 C 276.98827,259.22339 276.90011,259.15711 276.81698,259.08623 C 276.73386,259.01536 276.65577,258.93989 276.58358,258.86027 C 276.51139,258.78064 276.44511,258.69686 276.38561,258.60936 C 276.32086,258.51311 276.2607,258.41336 276.205,258.30956 C 276.14931,258.20577 276.09806,258.09792 276.05114,257.98548 C 276.00422,257.87305 275.96162,257.75602 275.9232,257.63384 C 275.88478,257.51167 275.85055,257.38436 275.82036,257.25136 C 275.79017,257.11836 275.76403,256.97967 275.7418,256.83475 C 275.71957,256.68983 275.70125,256.53867 275.6867,256.38073 C 275.67216,256.2228 275.66138,256.05808 275.65425,255.88603 C 275.64711,255.71398 275.64361,255.53461 275.64361,255.34736 C 275.64361,255.15224 275.64766,254.9628 275.65572,254.7791 C 275.66378,254.5954 275.67586,254.41744 275.69193,254.24527 C 275.70799,254.0731 275.72804,253.90672 275.75205,253.74618 C 275.77605,253.58564 275.80401,253.43095 275.83589,253.28214 C 275.86777,253.13334 275.90358,252.99042 275.94328,252.85346 C 275.98298,252.71649 276.02657,252.58546 276.07403,252.46043 C 276.12148,252.3354 276.1728,252.21637 276.22795,252.10338 C 276.2831,251.9904 276.34208,251.88345 276.40486,251.78261 C 276.46764,251.68177 276.53422,251.58702 276.60458,251.49842 C 276.67493,251.40983 276.74905,251.32738 276.82691,251.25113 C 276.90477,251.17488 276.98637,251.10483 277.07168,251.04104 C 277.15699,250.97724 277.24601,250.9197 277.3387,250.86845 C 277.4314,250.81721 277.52777,250.77227 277.62779,250.73369 C 277.72781,250.6951 277.83148,250.66287 277.93876,250.63704 C 278.04605,250.61122 278.15694,250.5918 278.27143,250.57883 C 278.38591,250.56587 278.50398,250.55936 278.62561,250.55936 C 278.72536,250.55936 278.8232,250.56384 278.91911,250.5728 C 279.01502,250.58175 279.10901,250.59518 279.20106,250.61306 C 279.29311,250.63095 279.38323,250.65329 279.4714,250.68007 C 279.55958,250.70685 279.64581,250.73808 279.73008,250.77373 C 279.81435,250.80939 279.89667,250.84948 279.97702,250.89398 C 280.05738,250.93848 280.13576,250.9874 280.21218,251.04072 C 280.28859,251.09404 280.36303,251.15176 280.43548,251.21387 C 280.50793,251.27598 280.57839,251.34249 280.64686,251.41336 C 280.71533,251.48424 280.7818,251.55948 280.84627,251.6391 C 280.91073,251.71871 280.97319,251.80268 281.03364,251.891 C 281.09408,251.97932 281.15251,252.07199 281.20891,252.16899 C 281.26531,252.26599 281.31968,252.36733 281.37202,252.47298 C 281.42435,252.57864 281.47465,252.68862 281.5229,252.8029 C 281.57115,252.91718 281.61736,253.03577 281.6615,253.15866 C 281.70565,253.28154 281.74774,253.40872 281.78776,253.54017 C 281.82778,253.67163 281.86573,253.80736 281.90161,253.94736 L 282.50361,253.94736 L 282.49136,253.70149 L 282.47911,253.45561 L 282.46686,253.20974 L 282.45461,252.96386 L 282.44236,252.71798 L 282.43011,252.47211 L 282.41786,252.22624 L 282.40561,251.98036 L 282.39336,251.73448 L 282.38111,251.48861 L 282.36886,251.24274 L 282.35661,250.99686 L 282.34436,250.75099 L 282.33211,250.50511 L 282.31986,250.25923 L 282.30761,250.01336 M 292.82642,250.11136 L 292.56611,250.11136 L 292.30579,250.11136 L 292.04548,250.11136 L 291.78517,250.11136 L 291.52486,250.11136 L 291.26454,250.11136 L 291.00423,250.11136 L 290.74392,250.11136 L 290.48361,250.11136 L 290.2233,250.11136 L 289.96298,250.11136 L 289.70267,250.11136 L 289.44236,250.11136 L 289.18205,250.11136 L 288.92173,250.11136 L 288.66142,250.11136 L 288.40111,250.11136 L 288.1408,250.11136 L 287.88048,250.11136 L 287.62017,250.11136 L 287.35986,250.11136 L 287.09955,250.11136 L 286.83923,250.11136 L 286.57892,250.11136 L 286.31861,250.11136 L 286.0583,250.11136 L 285.79798,250.11136 L 285.53767,250.11136 L 285.27736,250.11136 L 285.01705,250.11136 L 284.75673,250.11136 L 284.49642,250.11136 L 284.49642,250.76936 L 284.74842,250.76936 C 284.89017,250.76936 285.01617,250.77045 285.12814,250.77352 C 285.24012,250.77658 285.33806,250.78161 285.4237,250.78949 C 285.50934,250.79736 285.58268,250.80808 285.64543,250.82252 C 285.70819,250.83695 285.76036,250.85511 285.80367,250.87786 C 285.84698,250.90061 285.88144,250.92795 285.90875,250.96077 C 285.93607,250.99358 285.95625,251.03186 285.97101,251.07649 C 285.98578,251.12111 285.99513,251.17208 286.00079,251.23027 C 286.00645,251.28845 286.00842,251.35386 286.00842,251.42736 L 286.00842,251.83336 L 286.00842,251.93748 L 286.00842,252.04161 L 286.00842,252.14573 L 286.00842,252.24986 L 286.00842,252.35398 L 286.00842,252.45811 L 286.00842,252.56223 L 286.00842,252.66636 L 286.00842,252.77049 L 286.00842,252.87461 L 286.00842,252.97873 L 286.00842,253.08286 L 286.00842,253.18699 L 286.00842,253.29111 L 286.00842,253.39523 L 286.00842,253.49936 L 286.00842,253.60349 L 286.00842,253.70761 L 286.00842,253.81173 L 286.00842,253.91586 L 286.00842,254.01999 L 286.00842,254.12411 L 286.00842,254.22824 L 286.00842,254.33236 L 286.00842,254.43648 L 286.00842,254.54061 L 286.00842,254.64473 L 286.00842,254.74886 L 286.00842,254.85298 L 286.00842,254.95711 L 286.00842,255.06123 L 286.00842,255.16536 L 286.00842,255.26949 L 286.00842,255.37361 L 286.00842,255.47773 L 286.00842,255.58186 L 286.00842,255.68599 L 286.00842,255.79011 L 286.00842,255.89423 L 286.00842,255.99836 L 286.00842,256.10249 L 286.00842,256.20661 L 286.00842,256.31074 L 286.00842,256.41486 L 286.00842,256.51899 L 286.00842,256.62311 L 286.00842,256.72724 L 286.00842,256.83136 L 286.00842,256.93548 L 286.00842,257.03961 L 286.00842,257.14373 L 286.00842,257.24786 L 286.00842,257.35199 L 286.00842,257.45611 L 286.00842,257.56023 L 286.00842,257.66436 L 286.00842,257.76849 L 286.00842,257.87261 L 286.00842,257.97673 L 286.00842,258.08086 L 286.00842,258.18499 L 286.00842,258.28911 L 286.00842,258.39324 L 286.00842,258.49736 L 286.00842,258.90336 C 286.00842,258.97686 286.00645,259.04227 286.00079,259.10045 C 285.99513,259.15864 285.98578,259.20961 285.97101,259.25423 C 285.95625,259.29886 285.93607,259.33714 285.90875,259.36995 C 285.88144,259.40277 285.84698,259.43011 285.80367,259.45286 C 285.76036,259.47561 285.70819,259.49377 285.64543,259.5082 C 285.58268,259.52264 285.50934,259.53336 285.4237,259.54123 C 285.33806,259.54911 285.24012,259.55414 285.12814,259.5572 C 285.01617,259.56027 284.89017,259.56136 284.74842,259.56136 L 284.49642,259.56136 L 284.49642,260.21936 L 284.64648,260.21936 L 284.79655,260.21936 L 284.94661,260.21936 L 285.09667,260.21936 L 285.24673,260.21936 L 285.39679,260.21936 L 285.54686,260.21936 L 285.69692,260.21936 L 285.84698,260.21936 L 285.99704,260.21936 L 286.14711,260.21936 L 286.29717,260.21936 L 286.44723,260.21936 L 286.5973,260.21936 L 286.74736,260.21936 L 286.89742,260.21936 L 287.04748,260.21936 L 287.19754,260.21936 L 287.34761,260.21936 L 287.49767,260.21936 L 287.64773,260.21936 L 287.7978,260.21936 L 287.94786,260.21936 L 288.09792,260.21936 L 288.24798,260.21936 L 288.39805,260.21936 L 288.54811,260.21936 L 288.69817,260.21936 L 288.84823,260.21936 L 288.99829,260.21936 L 289.14836,260.21936 L 289.29842,260.21936 L 289.29842,259.56136 L 288.83642,259.56136 C 288.69467,259.56136 288.56867,259.56027 288.4567,259.5572 C 288.34472,259.55414 288.24678,259.54911 288.16114,259.54123 C 288.0755,259.53336 288.00216,259.52264 287.93941,259.5082 C 287.87665,259.49377 287.82448,259.47561 287.78117,259.45286 C 287.73786,259.43011 287.7034,259.40277 287.67609,259.36995 C 287.64877,259.33714 287.62859,259.29886 287.61383,259.25423 C 287.59906,259.20961 287.58971,259.15864 287.58405,259.10045 C 287.57839,259.04227 287.57642,258.97686 287.57642,258.90336 L 287.57642,258.49736 L 287.57642,258.29874 L 287.57642,258.10011 L 287.57642,257.90149 L 287.57642,257.70286 L 287.57642,257.50424 L 287.57642,257.30561 L 287.57642,257.10699 L 287.57642,256.90836 L 287.57642,256.70973 L 287.57642,256.51111 L 287.57642,256.31248 L 287.57642,256.11386 L 287.57642,255.91523 L 287.57642,255.71661 L 287.57642,255.51798 L 287.57642,255.31936 L 287.85642,255.31936 C 287.91067,255.31936 287.96284,255.31969 288.01306,255.32038 C 288.06327,255.32106 288.11152,255.32211 288.15794,255.32354 C 288.20436,255.32498 288.24893,255.3268 288.29179,255.32905 C 288.33465,255.3313 288.37579,255.33396 288.41533,255.33708 C 288.45487,255.3402 288.4928,255.34376 288.52926,255.34781 C 288.56572,255.35186 288.6007,255.3564 288.63432,255.36144 C 288.66794,255.36649 288.7002,255.37204 288.73122,255.37815 C 288.76224,255.38425 288.79201,255.39089 288.82067,255.39811 C 288.84933,255.40533 288.87686,255.41312 288.9034,255.42152 C 288.92993,255.42992 288.95546,255.43892 288.98011,255.44856 C 289.00476,255.4582 289.02853,255.46847 289.05154,255.47941 C 289.07454,255.49035 289.09679,255.50196 289.11839,255.51427 C 289.13999,255.52657 289.16095,255.53957 289.18139,255.5533 C 289.20182,255.56703 289.22173,255.58149 289.24124,255.59671 C 289.26075,255.61192 289.27986,255.6279 289.29868,255.64467 C 289.31751,255.66143 289.33605,255.67899 289.35442,255.69736 C 289.39817,255.74286 289.43864,255.78967 289.47602,255.83837 C 289.5134,255.88707 289.54769,255.93766 289.57908,255.9907 C 289.61047,256.04375 289.63896,256.09926 289.66474,256.1578 C 289.69053,256.21634 289.71361,256.27792 289.73417,256.34311 C 289.75473,256.4083 289.77278,256.47709 289.7885,256.55007 C 289.80422,256.62306 289.81762,256.70022 289.82889,256.78214 C 289.84015,256.86406 289.84929,256.95074 289.85648,257.04275 C 289.86367,257.13477 289.86892,257.23211 289.87242,257.33536 L 290.53042,257.33536 L 290.53042,257.04836 L 290.53042,256.76136 L 290.53042,256.47436 L 290.53042,256.18736 L 290.53042,255.90036 L 290.53042,255.61336 L 290.53042,255.32636 L 290.53042,255.03936 L 290.53042,254.75236 L 290.53042,254.46536 L 290.53042,254.17836 L 290.53042,253.89136 L 290.53042,253.60436 L 290.53042,253.31736 L 290.53042,253.03036 L 290.53042,252.74336 L 289.87242,252.74336 C 289.86367,252.91486 289.84726,253.07345 289.82265,253.21969 C 289.79805,253.36592 289.76523,253.4998 289.72367,253.62186 C 289.68211,253.74392 289.6318,253.85417 289.57219,253.95316 C 289.51258,254.05214 289.44367,254.13986 289.36492,254.21686 C 289.28617,254.29386 289.19758,254.36014 289.09859,254.41625 C 288.99961,254.47236 288.89023,254.5183 288.76992,254.55461 C 288.64961,254.59092 288.51836,254.61761 288.37562,254.63522 C 288.23289,254.65283 288.07867,254.66136 287.91242,254.66136 L 287.57642,254.66136 L 287.57642,254.46186 L 287.57642,254.26236 L 287.57642,254.06286 L 287.57642,253.86336 L 287.57642,253.66386 L 287.57642,253.46436 L 287.57642,253.26486 L 287.57642,253.06536 L 287.57642,252.86586 L 287.57642,252.66636 L 287.57642,252.46686 L 287.57642,252.26736 L 287.57642,252.06786 L 287.57642,251.86836 L 287.57642,251.66886 L 287.57642,251.46936 C 287.57642,251.31886 287.58429,251.19986 287.60792,251.10602 C 287.63154,251.01217 287.67092,250.94349 287.73392,250.89361 C 287.79692,250.84373 287.88355,250.81267 288.00167,250.79408 C 288.1198,250.77549 288.26942,250.76936 288.45842,250.76936 L 289.10242,250.76936 C 289.2468,250.76936 289.3845,250.77144 289.5159,250.77592 C 289.64729,250.7804 289.77238,250.78728 289.89153,250.7969 C 290.01068,250.80651 290.12389,250.81885 290.23153,250.83424 C 290.33916,250.84963 290.44122,250.86807 290.53808,250.88989 C 290.63493,250.91171 290.72657,250.93691 290.81337,250.96581 C 290.90017,250.99471 290.98213,251.02731 291.0596,251.06393 C 291.13708,251.10056 291.21008,251.14121 291.27897,251.18622 C 291.34786,251.23122 291.41264,251.28058 291.47367,251.33461 C 291.5347,251.38864 291.59199,251.44735 291.64589,251.51106 C 291.6998,251.57476 291.75032,251.64347 291.79783,251.7175 C 291.84534,251.79154 291.88984,251.8709 291.93168,251.9559 C 291.97353,252.04091 292.01272,252.13157 292.04964,252.2282 C 292.08655,252.32484 292.12118,252.42744 292.1539,252.53635 C 292.18661,252.64526 292.21741,252.76046 292.24665,252.88229 C 292.27589,253.00412 292.30359,253.13258 292.33009,253.26798 C 292.3566,253.40338 292.38192,253.54573 292.40642,253.69536 L 293.02242,253.69536 L 293.01017,253.47136 L 292.99792,253.24736 L 292.98567,253.02336 L 292.97342,252.79936 L 292.96117,252.57536 L 292.94892,252.35136 L 292.93667,252.12736 L 292.92442,251.90336 L 292.91217,251.67936 L 292.89992,251.45536 L 292.88767,251.23136 L 292.87542,251.00736 L 292.86317,250.78336 L 292.85092,250.55936 L 292.83867,250.33536 L 292.82642,250.11136 M 296.32599,253.69536 L 296.16149,253.70498 L 295.99699,253.71461 L 295.83249,253.72423 L 295.66799,253.73386 L 295.50349,253.74348 L 295.33899,253.75311 L 295.17449,253.76273 L 295.00999,253.77236 L 294.84549,253.78198 L 294.68099,253.79161 L 294.51649,253.80123 L 294.35199,253.81086 L 294.18749,253.82048 L 294.02299,253.83011 L 293.85849,253.83973 L 293.69399,253.84936 L 293.69399,254.45136 L 293.87249,254.45136 L 294.05099,254.45136 L 294.22949,254.45136 L 294.40799,254.45136 C 294.47274,254.45136 294.53071,254.45289 294.58258,254.45675 C 294.63445,254.4606 294.68022,254.46678 294.72058,254.47608 C 294.76094,254.48538 294.79589,254.49779 294.8261,254.51411 C 294.85632,254.53044 294.8818,254.55067 294.90324,254.57561 C 294.92468,254.60055 294.94207,254.63019 294.9561,254.66532 C 294.97012,254.70046 294.98079,254.74109 294.98877,254.78802 C 294.99676,254.83494 295.00206,254.88815 295.00537,254.94844 C 295.00868,255.00874 295.00999,255.07611 295.00999,255.15136 L 295.00999,255.36049 L 295.00999,255.56961 L 295.00999,255.77874 L 295.00999,255.98786 L 295.00999,256.19699 L 295.00999,256.40611 L 295.00999,256.61524 L 295.00999,256.82436 L 295.00999,257.03349 L 295.00999,257.24261 L 295.00999,257.45174 L 295.00999,257.66086 L 295.00999,257.86999 L 295.00999,258.07911 L 295.00999,258.28824 L 295.00999,258.49736 L 295.00999,259.05736 C 295.00999,259.12736 295.00758,259.19014 295.00162,259.24641 C 294.99566,259.30269 294.98615,259.35245 294.97193,259.39642 C 294.95771,259.44039 294.93879,259.47856 294.91401,259.51165 C 294.88924,259.54473 294.85861,259.57273 294.82099,259.59636 C 294.78337,259.61999 294.73874,259.63923 294.68597,259.65482 C 294.63319,259.67041 294.57227,259.68233 294.50205,259.6913 C 294.43183,259.70027 294.35232,259.70628 294.26236,259.71006 C 294.1724,259.71383 294.07199,259.71536 293.95999,259.71536 L 293.86199,259.71536 L 293.86199,260.21936 L 294.08862,260.21936 L 294.31524,260.21936 L 294.54187,260.21936 L 294.76849,260.21936 L 294.99511,260.21936 L 295.22174,260.21936 L 295.44836,260.21936 L 295.67499,260.21936 L 295.90161,260.21936 L 296.12824,260.21936 L 296.35487,260.21936 L 296.58149,260.21936 L 296.80812,260.21936 L 297.03474,260.21936 L 297.26137,260.21936 L 297.48799,260.21936 L 297.48799,259.71536 L 297.38999,259.71536 C 297.27624,259.71536 297.1743,259.71383 297.083,259.71006 C 296.9917,259.70628 296.91104,259.70027 296.83983,259.6913 C 296.76863,259.68233 296.70689,259.67041 296.65343,259.65482 C 296.59997,259.63923 296.5548,259.61999 296.51674,259.59636 C 296.47868,259.57273 296.44772,259.54473 296.4227,259.51165 C 296.39769,259.47856 296.3786,259.44039 296.36427,259.39642 C 296.34994,259.35245 296.34037,259.30269 296.33438,259.24641 C 296.3284,259.19014 296.32599,259.12736 296.32599,259.05736 L 296.32599,258.49736 L 296.32599,258.3473 L 296.32599,258.19724 L 296.32599,258.04717 L 296.32599,257.89711 L 296.32599,257.74705 L 296.32599,257.59699 L 296.32599,257.44692 L 296.32599,257.29686 L 296.32599,257.1468 L 296.32599,256.99673 L 296.32599,256.84667 L 296.32599,256.69661 L 296.32599,256.54655 L 296.32599,256.39648 L 296.32599,256.24642 L 296.32599,256.09636 L 296.32599,255.9463 L 296.32599,255.79624 L 296.32599,255.64617 L 296.32599,255.49611 L 296.32599,255.34605 L 296.32599,255.19599 L 296.32599,255.04592 L 296.32599,254.89586 L 296.32599,254.7458 L 296.32599,254.59573 L 296.32599,254.44567 L 296.32599,254.29561 L 296.32599,254.14555 L 296.32599,253.99548 L 296.32599,253.84542 L 296.32599,253.69536 M 295.66799,250.20936 C 295.55599,250.20936 295.44924,250.23211 295.35212,250.27324 C 295.25499,250.31436 295.16749,250.37386 295.09399,250.44736 C 295.02049,250.52086 294.96099,250.60836 294.91987,250.70549 C 294.87874,250.80261 294.85599,250.90936 294.85599,251.02136 C 294.85599,251.12986 294.87874,251.23486 294.91965,251.33133 C 294.96055,251.4278 295.01962,251.51573 295.09224,251.59011 C 295.16486,251.66449 295.25105,251.7253 295.34621,251.76752 C 295.44137,251.80973 295.54549,251.83336 295.65399,251.83336 C 295.76949,251.83336 295.87887,251.81061 295.97796,251.76949 C 296.07705,251.72836 296.16586,251.66886 296.24024,251.59536 C 296.31462,251.52186 296.37455,251.43436 296.4159,251.33723 C 296.45724,251.24011 296.47999,251.13336 296.47999,251.02136 C 296.47999,250.90936 296.45724,250.80261 296.41611,250.70549 C 296.37499,250.60836 296.31549,250.52086 296.24199,250.44736 C 296.16849,250.37386 296.08099,250.31436 295.98386,250.27324 C 295.88674,250.23211 295.77999,250.20936 295.66799,250.20936 M 300.58833,259.18336 C 300.39583,259.17986 300.24883,259.17636 300.13399,259.17155 C 300.01914,259.16674 299.93645,259.16061 299.87258,259.15186 C 299.8087,259.14311 299.76364,259.13173 299.72405,259.11642 C 299.68445,259.10111 299.65033,259.08186 299.60833,259.05736 C 299.51033,259.00136 299.44033,258.84736 299.44033,258.69336 C 299.44033,258.64086 299.44624,258.59208 299.4584,258.54685 C 299.47057,258.50163 299.489,258.45995 299.51405,258.42167 C 299.5391,258.38339 299.57076,258.3485 299.6094,258.31684 C 299.64803,258.28517 299.69364,258.25673 299.74658,258.23136 C 299.79952,258.20599 299.85978,258.18367 299.92773,258.16426 C 299.99568,258.14484 300.07131,258.12833 300.15499,258.11455 C 300.23866,258.10077 300.33037,258.08972 300.43047,258.08124 C 300.53058,258.07277 300.63908,258.06686 300.75633,258.06336 C 300.92258,258.05986 301.07133,258.05636 301.20526,258.0525 C 301.33919,258.04865 301.4583,258.04444 301.56527,258.03952 C 301.67224,258.03459 301.76706,258.02896 301.85243,258.02226 C 301.9378,258.01556 302.0137,258.0078 302.08283,257.99861 C 302.15196,257.98942 302.2143,257.97881 302.27254,257.96643 C 302.33078,257.95404 302.38492,257.93988 302.43764,257.92358 C 302.49036,257.90728 302.54166,257.88885 302.59421,257.86793 C 302.64677,257.84702 302.70058,257.82361 302.75833,257.79736 C 302.86333,257.75011 302.96264,257.69739 303.05605,257.6395 C 303.14945,257.58162 303.23695,257.51856 303.31833,257.45064 C 303.3997,257.38272 303.47495,257.30993 303.54386,257.23257 C 303.61277,257.15522 303.67533,257.0733 303.73133,256.98711 C 303.78733,256.90092 303.83677,256.81047 303.87942,256.71605 C 303.92208,256.62163 303.95795,256.52325 303.98683,256.4212 C 304.01571,256.31916 304.03758,256.21345 304.05224,256.10437 C 304.06689,255.9953 304.07433,255.88286 304.07433,255.76736 C 304.07433,255.62736 304.06645,255.50049 304.04852,255.3817 C 304.03058,255.26292 304.00258,255.15224 303.96233,255.04461 C 303.92208,254.93699 303.86958,254.83242 303.80264,254.72589 C 303.7357,254.61936 303.65433,254.51086 303.55633,254.39536 C 303.79433,254.14336 303.92033,254.05936 304.03233,254.05936 C 304.10233,254.05936 304.14433,254.10136 304.17233,254.25536 C 304.18633,254.33936 304.21083,254.41373 304.24517,254.47805 C 304.27952,254.54236 304.32371,254.59661 304.37708,254.64036 C 304.43046,254.68411 304.49302,254.71736 304.56411,254.73967 C 304.63521,254.76198 304.71483,254.77336 304.80233,254.77336 C 304.88983,254.77336 304.97295,254.75499 305.04842,254.72152 C 305.12389,254.68805 305.1917,254.63949 305.24858,254.57911 C 305.30545,254.51874 305.35139,254.44655 305.38311,254.36583 C 305.41483,254.28511 305.43233,254.19586 305.43233,254.10136 C 305.43233,253.98236 305.4087,253.87211 305.36474,253.77367 C 305.32077,253.67523 305.25645,253.58861 305.17508,253.51686 C 305.0937,253.44511 304.99527,253.38824 304.88305,253.3493 C 304.77083,253.31036 304.64483,253.28936 304.50833,253.28936 C 304.39633,253.28936 304.29658,253.29811 304.19989,253.32042 C 304.10321,253.34273 304.00958,253.37861 303.90983,253.43286 C 303.81008,253.48711 303.70421,253.55973 303.58302,253.65555 C 303.46183,253.75136 303.32533,253.87036 303.16433,254.01736 C 303.01733,253.91936 302.87908,253.83711 302.74345,253.76886 C 302.60783,253.70061 302.47483,253.64636 302.33833,253.60436 C 302.20183,253.56236 302.06183,253.53261 301.9122,253.51336 C 301.76258,253.49411 301.60333,253.48536 301.42833,253.48536 C 301.22008,253.48536 301.0208,253.4998 300.8315,253.5278 C 300.6422,253.5558 300.46288,253.59736 300.29455,253.65161 C 300.12622,253.70586 299.96888,253.7728 299.82355,253.85155 C 299.67822,253.9303 299.54489,254.02086 299.42458,254.12236 C 299.30427,254.22386 299.19697,254.3363 299.1037,254.4588 C 299.01043,254.5813 298.93119,254.71386 298.86699,254.85561 C 298.80278,254.99736 298.75362,255.1483 298.72051,255.30755 C 298.68739,255.4668 298.67033,255.63436 298.67033,255.80936 C 298.67033,255.91261 298.67733,256.01411 298.691,256.11334 C 298.70467,256.21257 298.72502,256.30953 298.75171,256.4037 C 298.77839,256.49788 298.81142,256.58926 298.85047,256.67733 C 298.88952,256.76541 298.93458,256.85017 298.98533,256.93111 C 299.03608,257.01205 299.09252,257.08916 299.15431,257.16192 C 299.21611,257.23468 299.28327,257.30309 299.35546,257.36664 C 299.42764,257.43019 299.50486,257.48887 299.58678,257.54216 C 299.66871,257.59545 299.75533,257.64336 299.84633,257.68536 C 299.78771,257.69848 299.73121,257.71243 299.67682,257.72723 C 299.62242,257.74203 299.57012,257.75768 299.51987,257.77423 C 299.46963,257.79077 299.42144,257.8082 299.37528,257.82656 C 299.32911,257.84491 299.28496,257.86419 299.2428,257.88442 C 299.20063,257.90466 299.16045,257.92585 299.12222,257.94803 C 299.08398,257.97021 299.04769,257.99339 299.0133,258.01759 C 298.97892,258.04179 298.94644,258.06701 298.91583,258.09329 C 298.88522,258.11958 298.85649,258.14692 298.82958,258.17536 C 298.80267,258.2038 298.7776,258.23333 298.75432,258.26399 C 298.73104,258.29465 298.70955,258.32643 298.68983,258.35938 C 298.6701,258.39233 298.65213,258.42644 298.63587,258.46175 C 298.61962,258.49706 298.60509,258.53356 298.59224,258.5713 C 298.57938,258.60903 298.56821,258.648 298.55869,258.68823 C 298.54916,258.72846 298.54128,258.76995 298.53501,258.81274 C 298.52873,258.85554 298.52406,258.89963 298.52096,258.94505 C 298.51786,258.99048 298.51633,259.03724 298.51633,259.08536 C 298.51633,259.23936 298.53383,259.37761 298.57036,259.50186 C 298.60689,259.62611 298.66246,259.73636 298.73858,259.83436 C 298.81471,259.93236 298.91139,260.01811 299.03017,260.09336 C 299.14896,260.16861 299.28983,260.23336 299.45433,260.28936 C 299.34583,260.32786 299.24433,260.36855 299.14978,260.4114 C 299.05522,260.45424 298.96761,260.49925 298.88689,260.54639 C 298.80617,260.59353 298.73235,260.64281 298.66535,260.69418 C 298.59836,260.74556 298.53821,260.79905 298.48483,260.85461 C 298.43146,260.91017 298.38486,260.96781 298.34499,261.0275 C 298.30513,261.0872 298.27199,261.14894 298.24552,261.2127 C 298.21905,261.27647 298.19925,261.34226 298.18607,261.41004 C 298.17289,261.47783 298.16633,261.54761 298.16633,261.61936 C 298.16633,261.73486 298.18317,261.84402 298.21631,261.94661 C 298.24946,262.0492 298.29889,262.14523 298.36408,262.23448 C 298.42927,262.32373 298.51021,262.4062 298.60635,262.48167 C 298.70249,262.55714 298.81383,262.62561 298.93983,262.68686 C 299.06583,262.74811 299.20649,262.80214 299.36125,262.84873 C 299.51602,262.89533 299.68489,262.93448 299.86733,262.96598 C 300.04977,262.99748 300.24577,263.02133 300.45478,263.0373 C 300.6638,263.05327 300.88583,263.06136 301.12033,263.06136 C 301.41258,263.06136 301.68667,263.04977 301.94258,263.02661 C 302.19849,263.00345 302.43622,262.96872 302.65574,262.92245 C 302.87525,262.87619 303.07656,262.81838 303.25962,262.74907 C 303.44269,262.67975 303.60752,262.59892 303.75408,262.50661 C 303.90064,262.4143 304.02894,262.3105 304.13894,262.19525 C 304.24895,262.07999 304.34066,261.95328 304.41405,261.81514 C 304.48744,261.677 304.54251,261.52743 304.57923,261.36646 C 304.61595,261.20548 304.63433,261.03311 304.63433,260.84936 C 304.63433,260.67436 304.6142,260.50811 304.57592,260.35389 C 304.53764,260.19967 304.4812,260.05749 304.40858,259.93061 C 304.33596,259.80373 304.24714,259.69217 304.14411,259.5992 C 304.04108,259.50623 303.92383,259.43186 303.79433,259.37936 C 303.70333,259.34436 303.60708,259.31461 303.4988,259.28967 C 303.39052,259.26473 303.27021,259.24461 303.13108,259.22886 C 302.99195,259.21311 302.83402,259.20173 302.65049,259.1943 C 302.46695,259.18686 302.25783,259.18336 302.01633,259.18336 L 301.83783,259.18336 L 301.65933,259.18336 L 301.48083,259.18336 L 301.30233,259.18336 L 301.12383,259.18336 L 300.94533,259.18336 L 300.76683,259.18336 L 300.58833,259.18336 M 301.41433,254.08736 C 301.52458,254.08736 301.6287,254.09699 301.72651,254.11593 C 301.82432,254.13488 301.91581,254.16316 302.0008,254.20045 C 302.08578,254.23775 302.16426,254.28407 302.23604,254.33911 C 302.30781,254.39416 302.37289,254.45792 302.43108,254.53011 C 302.48927,254.6023 302.54056,254.68291 302.58478,254.77164 C 302.62899,254.86037 302.66613,254.95722 302.69599,255.06189 C 302.72585,255.16656 302.74843,255.27906 302.76355,255.39907 C 302.77867,255.51908 302.78633,255.64661 302.78633,255.78136 C 302.78633,255.91786 302.77802,256.04758 302.76172,256.17008 C 302.74542,256.29258 302.72114,256.40786 302.68921,256.51549 C 302.65727,256.62311 302.61767,256.72308 302.57075,256.81495 C 302.52383,256.90683 302.46958,256.99061 302.40833,257.06586 C 302.34708,257.14111 302.27883,257.20783 302.20391,257.26558 C 302.12899,257.32333 302.04739,257.37211 301.95945,257.41148 C 301.87152,257.45086 301.77724,257.48083 301.67694,257.50095 C 301.57664,257.52108 301.47033,257.53136 301.35833,257.53136 C 301.24983,257.53136 301.14636,257.52108 301.04836,257.50104 C 300.95036,257.48099 300.85783,257.45119 300.77121,257.41214 C 300.68458,257.37309 300.60386,257.32481 300.52949,257.26779 C 300.45511,257.21078 300.38708,257.14505 300.32583,257.07111 C 300.26458,256.99717 300.21011,256.91503 300.16286,256.82521 C 300.11561,256.73538 300.07558,256.63788 300.04321,256.5332 C 300.01083,256.42853 299.98611,256.3167 299.96949,256.19822 C 299.95286,256.07973 299.94433,255.95461 299.94433,255.82336 C 299.94433,255.68511 299.95264,255.5543 299.96902,255.43122 C 299.9854,255.30815 300.00985,255.19281 300.04211,255.08552 C 300.07438,254.97822 300.11446,254.87896 300.16212,254.78804 C 300.20978,254.69713 300.26502,254.61455 300.32758,254.54061 C 300.39014,254.46667 300.46003,254.40138 300.53701,254.34502 C 300.61398,254.28866 300.69803,254.24125 300.78892,254.20308 C 300.87981,254.16491 300.97754,254.13598 301.08186,254.11659 C 301.18617,254.0972 301.29708,254.08736 301.41433,254.08736 M 301.28833,260.38736 C 301.43358,260.38736 301.56199,260.38736 301.6759,260.38741 C 301.78981,260.38747 301.88924,260.38758 301.97652,260.3878 C 302.0638,260.38802 302.13894,260.38834 302.20429,260.38884 C 302.26964,260.38933 302.3252,260.38999 302.37333,260.39086 C 302.42146,260.39173 302.46214,260.39283 302.49774,260.3942 C 302.53335,260.39556 302.56386,260.3972 302.59164,260.39917 C 302.61942,260.40114 302.64447,260.40344 302.66913,260.40612 C 302.6938,260.4088 302.71808,260.41186 302.74433,260.41536 C 302.81433,260.42236 302.88105,260.4333 302.94421,260.44795 C 303.00738,260.46261 303.06699,260.48098 303.12277,260.50286 C 303.17855,260.52473 303.2305,260.55011 303.27835,260.57877 C 303.32621,260.60742 303.36996,260.63936 303.40933,260.67436 C 303.44871,260.70936 303.4837,260.74742 303.51406,260.78833 C 303.54441,260.82923 303.57011,260.87298 303.59089,260.91936 C 303.61167,260.96573 303.62753,261.01473 303.6382,261.06614 C 303.64886,261.11755 303.65433,261.17136 303.65433,261.22736 C 303.65433,261.32711 303.64011,261.42161 303.61217,261.51061 C 303.58422,261.59962 303.54255,261.68313 303.48764,261.76089 C 303.43274,261.83866 303.3646,261.91068 303.28371,261.97672 C 303.20283,262.04275 303.1092,262.1028 303.00333,262.15661 C 302.89746,262.21042 302.77933,262.258 302.64945,262.2991 C 302.51956,262.3402 302.37792,262.37481 302.22502,262.4027 C 302.07211,262.43059 301.90794,262.45176 301.73299,262.46595 C 301.55805,262.48014 301.37233,262.48736 301.17633,262.48736 C 301.02933,262.48736 300.89021,262.48189 300.75928,262.47109 C 300.62836,262.46029 300.50564,262.44416 300.39146,262.42283 C 300.27727,262.4015 300.17161,262.37498 300.07481,262.3434 C 299.97802,262.31181 299.89008,262.27517 299.81133,262.23361 C 299.73258,262.19205 299.66302,262.14556 299.60297,262.09429 C 299.54292,262.04302 299.49239,261.98697 299.45171,261.92627 C 299.41102,261.86556 299.38017,261.80021 299.3595,261.73035 C 299.33883,261.66049 299.32833,261.58611 299.32833,261.50736 C 299.32833,261.44961 299.33227,261.39427 299.34047,261.34095 C 299.34867,261.28763 299.36114,261.23633 299.3782,261.18667 C 299.39527,261.13702 299.41692,261.089 299.4435,261.04224 C 299.47008,260.99549 299.50158,260.94999 299.53833,260.90536 C 299.57508,260.86073 299.61708,260.81699 299.66466,260.77373 C 299.71224,260.73047 299.76539,260.6877 299.82446,260.64505 C 299.88352,260.60239 299.94849,260.55984 300.01969,260.51702 C 300.09089,260.4742 300.16833,260.43111 300.25233,260.38736 L 300.38183,260.38736 L 300.51133,260.38736 L 300.64083,260.38736 L 300.77033,260.38736 L 300.89983,260.38736 L 301.02933,260.38736 L 301.15883,260.38736 L 301.28833,260.38736 M 270.02902,257.96986 L 269.94896,257.76642 L 269.86889,257.56298 L 269.78883,257.35955 L 269.70877,257.15611 L 269.62871,256.95267 L 269.54864,256.74923 L 269.46858,256.5458 L 269.38852,256.34236 L 269.30846,256.13892 L 269.22839,255.93548 L 269.14833,255.73205 L 269.06827,255.52861 L 268.98821,255.32517 L 268.90814,255.12173 L 268.82808,254.9183 L 268.74802,254.71486 L 268.66796,254.51142 L 268.5879,254.30798 L 268.50783,254.10455 L 268.42777,253.90111 L 268.34771,253.69767 L 268.26765,253.49424 L 268.18758,253.2908 L 268.10752,253.08736 L 268.02746,252.88392 L 267.9474,252.68048 L 267.86733,252.47705 L 267.78727,252.27361 L 267.70721,252.07017 L 267.62715,251.86673 L 267.54708,251.6633 L 267.46702,251.45986 C 267.39702,251.29186 267.35502,251.12386 267.35502,251.03986 C 267.35502,250.97686 267.3699,250.92349 267.40205,250.87886 C 267.43421,250.83424 267.48365,250.79836 267.55277,250.77036 C 267.62189,250.74236 267.71071,250.72223 267.82161,250.70911 C 267.93252,250.69598 268.06552,250.68986 268.22302,250.68986 L 268.36302,250.68986 L 268.50302,250.68986 L 268.64302,250.68986 L 268.78302,250.68986 L 268.78302,250.52536 L 268.78302,250.36086 L 268.78302,250.19636 L 268.78302,250.03186 L 268.51002,250.03186 L 268.23702,250.03186 L 267.96402,250.03186 L 267.69102,250.03186 L 267.41802,250.03186 L 267.14502,250.03186 L 266.87202,250.03186 L 266.59902,250.03186 L 266.32602,250.03186 L 266.05302,250.03186 L 265.78002,250.03186 L 265.50702,250.03186 L 265.23402,250.03186 L 264.96102,250.03186 L 264.68802,250.03186 L 264.41502,250.03186 L 264.41502,250.36086 L 264.41502,250.68986 L 264.69502,250.68986 C 264.85252,250.68986 264.98202,250.69861 265.09183,250.7218 C 265.20164,250.74499 265.29177,250.78261 265.37052,250.84036 C 265.44927,250.89811 265.51664,250.97599 265.58096,251.07967 C 265.64527,251.18336 265.70652,251.31286 265.77302,251.47386 L 265.99439,252.02861 L 266.21577,252.58336 L 266.43714,253.13811 L 266.65852,253.69286 L 266.87989,254.24761 L 267.10127,254.80236 L 267.32264,255.35711 L 267.54402,255.91186 L 267.7654,256.46661 L 267.98677,257.02136 L 268.20815,257.57611 L 268.42952,258.13086 L 268.65089,258.68561 L 268.87227,259.24036 L 269.09365,259.79511 L 269.31502,260.34986 L 269.59502,260.34986 L 269.87502,260.34986 L 270.07627,259.83186 L 270.27752,259.31386 L 270.47877,258.79586 L 270.68002,258.27786 L 270.88127,257.75986 L 271.08252,257.24186 L 271.28377,256.72386 L 271.48502,256.20586 L 271.68627,255.68786 L 271.88752,255.16986 L 272.08877,254.65186 L 272.29002,254.13386 L 272.49127,253.61586 L 272.69252,253.09786 L 272.89377,252.57986 L 273.09502,252.06186 C 273.14752,251.92536 273.19827,251.80155 273.24845,251.68938 C 273.29862,251.57722 273.34822,251.4767 273.39843,251.3868 C 273.44863,251.29689 273.49943,251.21759 273.55202,251.14787 C 273.6046,251.07814 273.65896,251.01798 273.71627,250.96636 C 273.77358,250.91474 273.83385,250.87164 273.89824,250.83604 C 273.96264,250.80044 274.03116,250.77233 274.10499,250.75067 C 274.17882,250.72902 274.25795,250.71381 274.34356,250.70402 C 274.42918,250.69423 274.52127,250.68986 274.62102,250.68986 L 274.76102,250.68986 L 274.76102,250.52536 L 274.76102,250.36086 L 274.76102,250.19636 L 274.76102,250.03186 L 274.52389,250.03186 L 274.28677,250.03186 L 274.04964,250.03186 L 273.81252,250.03186 L 273.57539,250.03186 L 273.33827,250.03186 L 273.10114,250.03186 L 272.86402,250.03186 L 272.62689,250.03186 L 272.38977,250.03186 L 272.15265,250.03186 L 271.91552,250.03186 L 271.6784,250.03186 L 271.44127,250.03186 L 271.20415,250.03186 L 270.96702,250.03186 L 270.96702,250.19636 L 270.96702,250.36086 L 270.96702,250.52536 L 270.96702,250.68986 L 271.23302,250.68986 C 271.41152,250.68986 271.57164,250.70736 271.71143,250.74061 C 271.85121,250.77386 271.97064,250.82286 272.06777,250.88586 C 272.1649,250.94886 272.23971,251.02586 272.29024,251.11511 C 272.34077,251.20436 272.36702,251.30586 272.36702,251.41786 C 272.36702,251.51586 272.34952,251.64536 272.31977,251.78361 C 272.29002,251.92186 272.24802,252.06886 272.19902,252.20186 L 272.0634,252.56236 L 271.92777,252.92286 L 271.79215,253.28336 L 271.65652,253.64386 L 271.52089,254.00436 L 271.38527,254.36486 L 271.24964,254.72536 L 271.11402,255.08586 L 270.97839,255.44636 L 270.84277,255.80686 L 270.70714,256.16736 L 270.57152,256.52786 L 270.43589,256.88836 L 270.30027,257.24886 L 270.16464,257.60936 L 270.02902,257.96986"
     style="font-size:14px;font-style:normal;font-variant:normal;font-weight:normal;font-stretch:normal;text-align:center;line-height:100%;writing-mode:lr-tb;text-anchor:middle;fill:#000000;fill-opacity:1;stroke:none;stroke-width:1px;stroke-linecap:butt;stroke-linejoin:miter;stroke-opacity:1;font-family:Century Schoolbook L"
     id="text2165" />
</svg>
