<?xml version="1.0" standalone="no"?>
<!DOCTYPE svg PUBLIC "-//W3C//DTD SVG 1.1//EN" "http://www.w3.org/Graphics/SVG/1.1/DTD/svg11.dtd">

<svg width="400" height="400" viewBox="0, 0, 100, 100" font-family="Helvetica, Arial, FreeSans, Sans, sans, sans-serif" style="font-size:4px; stroke-width:0.5pt; text-anchor:middle" version="1.1" xmlns="http://www.w3.org/2000/svg" xmlns:xlink="http://www.w3.org/1999/xlink" >
    <g >
        <circle cx="50" cy="50" r="33" stroke="black" fill="none" />
        <g >
            <path d="M48 86L50 83 52 86M47 86L53 86 53 90 47 90Z" stroke="black" fill="white" />
        </g>
        <g >
            <path d="M63.8210427739387 81.960224542382292L65.8210427739387 78.960224542382292 67.8210427739387 81.960224542382292M62.8210427739387 81.960224542382292L68.8210427739387 81.960224542382292 68.8210427739387 85.960224542382292 62.8210427739387 85.960224542382292Z" stroke="black" fill="white" />
        </g>
        <g >
            <path d="M75.76854249866058 70.829976093648611L77.76854249866058 67.829976093648611 79.768542498660565 70.829976093648611M74.76854249866058 70.829976093648611L80.768542498660565 70.829976093648611 80.768542498660565 74.829976093648611 74.76854249866058 74.829976093648611Z" stroke="black" fill="white" />
        </g>
        <g >
            <path d="M80.917334557933799 55.334327655034201L82.917334557933799 52.334327655034201 84.917334557933799 55.334327655034201M79.917334557933799 55.334327655034201L85.917334557933799 55.334327655034201 85.917334557933799 59.334327655034201 79.917334557933799 59.334327655034201Z" stroke="black" fill="white" />
        </g>
        <g >
            <path d="M78.006815085247496 39.26715439394431L80.006815085247496 36.26715439394431 82.006815085247496 39.26715439394431M77.006815085247496 39.26715439394431L83.006815085247496 39.26715439394431 83.006815085247496 43.26715439394431 77.006815085247496 43.26715439394431Z" stroke="black" fill="white" />
        </g>
        <g >
            <path d="M67.749580755430571 26.562260686951191L69.749580755430571 23.562260686951191 71.749580755430571 26.562260686951191M66.749580755430571 26.562260686951191L72.749580755430571 26.562260686951191 72.749580755430571 30.562260686951191 66.749580755430571 30.562260686951191Z" stroke="black" fill="white" />
        </g>
        <g >
            <path d="M52.656960265975613 20.330247612185303L54.656960265975613 17.330247612185303 56.656960265975613 20.330247612185303M51.656960265975613 20.330247612185303L57.656960265975613 20.330247612185303 57.656960265975613 24.330247612185303 51.656960265975613 24.330247612185303Z" stroke="black" fill="white" />
        </g>
        <g >
            <path d="M36.424153486242545 22.096929319403728L38.424153486242545 19.096929319403728 40.424153486242545 22.096929319403728M35.424153486242545 22.096929319403728L41.424153486242545 22.096929319403728 41.424153486242545 26.096929319403728 35.424153486242545 26.096929319403728Z" stroke="black" fill="white" />
        </g>
        <g >
            <path d="M23.025517654838367 31.429760511500803L25.025517654838367 28.429760511500803 27.025517654838367 31.429760511500803M22.025517654838367 31.429760511500803L28.025517654838367 31.429760511500803 28.025517654838367 35.429760511500803 22.025517654838367 35.429760511500803Z" stroke="black" fill="white" />
        </g>
    </g>
</svg>
