<?xml version="1.0" standalone="no"?>
<!DOCTYPE svg PUBLIC "-//W3C//DTD SVG 1.1//EN" "http://www.w3.org/Graphics/SVG/1.1/DTD/svg11.dtd">

<svg width="400" height="400" viewBox="0, 0, 100, 100" font-family="Helvetica, Arial, FreeSans, Sans, sans, sans-serif" style="font-size:4px; stroke-width:0.5pt; text-anchor:middle" version="1.1" xmlns="http://www.w3.org/2000/svg" xmlns:xlink="http://www.w3.org/1999/xlink" >
    <g >
        <g >
            <path d="M89.797824464770116 38.46928353596779L89.207672073152693 36.76152537298875 87.663671602583022 33.160637705897201 86.445824723324222 30.861082257768295 84.292542446666687 27.49705826378797 81.749688599369634 24.284474851284941 78.896613428000478 21.342283765695157 75.182709956660958 18.261138819746805 71.264659389634801 15.702384852144547 69.081149423250139 14.528018962982699 65.51974351538091 12.945008845146532 61.62563536065057 11.635315733172447 56.459053982809102 10.50700034717967 52.912832032588916 10.106966004504926 49.256903258972613 10.001716568680408 44.172928574466148 10.370544126414515 41.451219104515332 10.819108085151541 37.905029699446033 11.678265551340289 34.237157178325539 12.915427940398885 31.784549312962071 13.957708395817406 27.269280968233947 16.387888403223329 24.220168293569451 18.467591970607245 21.770485994274878 20.451276083392699 18.895327530300086 23.223361231048415 16.116907291188699 26.506688231930688 13.813670146020129 29.882274958254406 12.128529610778948 32.934778541780219 10.788069616739465 35.941993163476262 9.2571653854738312 40.636669998292305 8.4790688068505951 44.409548830248241 8.0796515542152143 48.167944968773057 8.0173501213760581 50.83327385628764 8.2627451284911562 54.804289096208272 8.9786818494957377 59.037897099167594 9.8676305020528705 62.307538225700867 10.985616532275927 65.371706932706417 12.247372863363605 68.128078789198156 13.862551792007043 71.023028800582807 15.605259277859441 73.629787280657638 17.6468643003974 76.213122827951025 19.558022817115752 78.290042462272169 22.128137540950696 80.68341356676801 24.29297548089772 82.412228222744318 27.68232298208461 84.690090195912418 31.976881746092367 86.956078987468473 34.283265656703875 87.927879448564724 38.774105773307639 89.387346595607241 42.940634669588214 90.273912962149737 45.941938268669226 90.651693387092962 51.209981100991357 90.805971051964192 54.435514890904493 90.583003528167566 59.572914483473092 89.718273763563133 63.006375251890923 88.773107556751569 65.756569261203055 87.787065937147162 69.276187654180731 86.199133977268772 72.745023770855113 84.228913797235165 76.052218013805714 81.906671029475348 79.023332517914596 79.364381223844191 82.46839301361365 75.698622335883982 84.953041279058141 72.372369066829592 86.644420698164154 69.613079958726033 88.101743594590019 66.737959154306822 89.461935178529302 63.358859326214365 90.0 61.705269551662148" stroke="black" fill="none" />
            <path d="M72.43885199871842 16.404721291822511L72.127230841544844 18.329660837471103 68.614975887135827 14.032386685729174 74.025098526419526 15.270559948205033 72.43885199871842 16.404721291822511Z" stroke="none" fill="black" />
            <path d="M32.434980033150737 13.663520415104301L33.848935782500249 15.006364091368019 28.319494318018396 15.483624073839611 32.392852855512004 11.713975519262148 32.434980033150737 13.663520415104301Z" stroke="none" fill="black" />
            <path d="M8.4336533606221362 44.709356687097255L10.323823365070607 44.230026577169589 7.7770458985315347 49.161195255680681 6.7623525102038666 43.704740607497108 8.4336533606221362 44.709356687097255Z" stroke="none" fill="black" />
            <path d="M22.501581036066444 80.998831414540504L23.079047344002941 79.13629747842063 25.956564887029046 83.882073788949498 20.772453444475747 81.900284559190709 22.501581036066444 80.998831414540504Z" stroke="none" fill="black" />
            <path d="M61.704775232252601 89.167568890509898L60.488918723408226 87.643038487434652 66.031458199316177 87.930712188008783 61.478404085409117 91.104384861085506 61.704775232252601 89.167568890509898Z" stroke="none" fill="black" />
        </g>
        <g >
            <path d="M77.810624027167933 42.052312037045255L76.745260686403597 39.255584836407095 75.464224208155798 36.726571142305616 74.557378018615083 35.249117875564544 72.651497790574268 32.67826336429043 69.673329811970603 29.601897875200692 66.755423334248277 27.321447224055873 64.465693171953944 25.904831398267504 61.523305939953261 24.472169366180822 58.917503636970366 23.516230167250725 55.632101979282666 22.68130365636803 52.158713354848757 22.211084392259849 49.382494316664896 22.125722820694193 47.517479805677311 22.211452118759468 44.802191119038064 22.544300442612283 42.67284257103092 22.983146606275554 39.347782374179118 24.001481958186687 36.00766549646427 25.478989149927685 33.035129151168732 27.246867575059539 31.390369308706386 28.446497674231743 29.331001700619975 30.223544169391531 27.374383215797319 32.271837286271008 25.453901663406754 34.757743795621288 24.238223364820691 36.689109653185767 22.834465392560841 39.486376960268721 22.134767794033934 41.267137992849513 21.437661562008788 43.548203803269942 20.936082828904219 45.909006612669941 20.579882555871002 49.443807917979811 20.682439868897305 52.968638959709182 20.996446655024386 55.264323168250414 21.875343059875252 58.788676095273573 22.881523296460493 61.447016774027446 24.132142505964811 63.94988685673006 26.161702383625425 67.051307587106947 27.711940706542475 68.936923871854461 29.076234159569317 70.357248249255477 31.562593049266034 72.51295105404472 33.725483601817956 74.032112512439326 36.522683672531421 75.606885787039943 38.786155479195962 76.609163814679192 41.004323389445403 77.383974314582588 44.025239157080904 78.139500886569095 47.505489717297678 78.613047067753683 50.384383069854664 78.698280558966971 54.432840968006317 78.352975613652447 58.089893398130059 77.556945428229469 60.086575639447759 76.914193917422423 62.748433428518133 75.805281581771013 64.338756507765552 74.990911756270648 66.879768388367211 73.418459462439259 69.445622126517776 71.42401444187837 71.559859513818907 69.383700180669706 73.88459084333212 66.554739217555152 75.963299575106788 63.187588397573421 77.460066711917847 59.798418268504335 77.952146901828854 58.31750224803131" stroke="black" fill="none" />
            <path d="M64.868565098899595 27.881743836670466L66.450121502963881 25.332493095616684" stroke="black" fill="none" />
            <text x="0.0" y="0.0" stroke="none" fill="black" text-anchor="middle" transform="translate(64.3414, 28.7315) rotate(-148.185)" >1</text>
            <path d="M38.263334144606574 26.060106424154348L37.049931705462143 23.316449280727291" stroke="black" fill="none" />
            <text x="0.0" y="0.0" stroke="none" fill="black" text-anchor="middle" transform="translate(38.6678, 26.9747) rotate(156.142)" >2</text>
            <path d="M22.339650443792081 46.639232396866582L19.371758064736611 46.201494088805198" stroke="black" fill="none" />
            <text x="0.0" y="0.0" stroke="none" fill="black" text-anchor="middle" transform="translate(23.3289, 46.7851) rotate(98.3901)" >3</text>
            <path d="M31.664334418535791 70.671334268384257L29.742172835614927 72.974656835708075" stroke="black" fill="none" />
            <text x="0.0" y="0.0" stroke="none" fill="black" text-anchor="middle" transform="translate(32.3051, 69.9036) rotate(39.8456)" >4</text>
            <path d="M57.733203996894645 76.098884129539925L58.557775131916699 78.98333944090956" stroke="black" fill="none" />
            <text x="0.0" y="0.0" stroke="none" fill="black" text-anchor="middle" transform="translate(57.4583, 75.1374) rotate(-15.9535)" >5</text>
            <text x="0.0" y="0.0" stroke="none" fill="black" text-anchor="middle" transform="translate(75.5583, 57.5967) rotate(-73.2414)" >6</text>
            <path d="M74.8812922329179 37.218683898275955L76.18703061421138 36.480410724161473" stroke="black" fill="none" />
            <path d="M51.860266411770517 22.941375929380634L51.96276980486072 21.444882342890871" stroke="black" fill="none" />
            <path d="M26.97815266165021 33.94036970541918L25.791408939262471 33.02296067048804" stroke="black" fill="none" />
            <path d="M23.122399853152828 60.065419795042942L21.723828263351329 60.607635165721518" stroke="black" fill="none" />
            <path d="M43.821826650856842 77.333245184925786L43.515885377789552 78.801713753685092" stroke="black" fill="none" />
            <path d="M70.066404612180122 69.834588251388894L71.111134375853567 70.910943081774676" stroke="black" fill="none" />
            <path d="M77.952146901828854 58.31750224803131L76.658943105120784 58.450257436931089 78.817168804209274 55.444918548919631 78.957010064410127 59.142274958835422 77.952146901828854 58.31750224803131Z" stroke="none" fill="black" />
            <path d="M77.810624027167933 42.052312037045255L76.515310730913541 41.942023939108161 78.725377158415299 44.9094481396615 78.801019613006531 41.210221434110274 77.810624027167933 42.052312037045255Z" stroke="none" fill="black" />
        </g>
    </g>
</svg>
