<?xml version="1.0" standalone="no"?>
<!DOCTYPE svg PUBLIC "-//W3C//DTD SVG 1.1//EN" "http://www.w3.org/Graphics/SVG/1.1/DTD/svg11.dtd">

<svg width="400" height="400" viewBox="0, 0, 100, 100" font-family="Helvetica, Arial, FreeSans, Sans, sans, sans-serif" style="font-size:4px; stroke-width:0.5pt; text-anchor:middle" version="1.1" xmlns="http://www.w3.org/2000/svg" xmlns:xlink="http://www.w3.org/1999/xlink" >
    <g >
        <circle cx="50" cy="50" r="33" stroke="black" fill="none" />
        <path d="M48 86L50 83 52 86M47 86L53 86 53 90 47 90Z" stroke="black" fill="white" />
        <path d="M65.50415426597057 82.55182330526182L65.8210427739387 78.960224542382292 69.014484513532054 80.634121150845004M64.626571704080192 83.031248843866024L69.892067075422432 80.154695612240801 71.809769229839247 83.665025859802299 66.544273858497007 86.541579091427522Z" stroke="black" fill="white" />
        <path d="M79.212350841347998 71.133824980868823L77.76854249866058 67.829976093648611 81.373560064820552 67.767941041637243M78.67204853547986 71.975295965676722L81.91386237068869 66.926470056829345 85.279746309920284 69.087679280301899 82.03793247471144 74.136505189149275Z" stroke="black" fill="white" />
        <path d="M85.76834511441055 54.541529233245413L82.917334557933799 52.334327655034194 86.051293921081367 50.5515492868292M85.697607912742853 55.539024219849466L86.122031122749064 49.554054300225147 90.112011069165277 49.837003106895956 89.687587859159066 55.821973026520276Z" stroke="black" fill="white" />
        <path d="M83.56700103881883 36.837308737954231L80.006815085247496 36.267154393944303 81.902413692630262 33.200119030651507M83.983147875365972 37.746606164779919L81.48626685608312 32.290821603825833 85.123456563385844 30.626234257637261 87.620337582668697 36.082018818591351Z" stroke="black" fill="white" />
        <path d="M73.147284418836307 22.355774128518302L69.749580755430571 23.562260686951188 69.942709956648571 19.961885552102469M73.948428034383241 22.954246272622253L69.141566341101637 19.363413407998518 71.535454917517455 16.158838945810786 76.34231661079906 19.749671810434521Z" stroke="black" fill="white" />
        <path d="M57.060305283356115 14.642510138503702L54.65696026597562 17.330247612185303 53.100335296954327 14.078030106264229M58.050297779956558 14.783630146563567L52.110342800353884 13.936910098204365 52.67482283259335 9.976940111802584 58.614777812196024 10.823660160161786Z" stroke="black" fill="white" />
        <path d="M39.244717177755277 15.585992802152099L38.424153486242545 19.096929319403721 35.498890428592091 16.989125712910571M40.18117386504607 15.235209574462473L34.562433741301298 17.339908940600196 33.159300830542819 13.59408219143701 38.77804095428759 11.489382825299288Z" stroke="black" fill="white" />
        <path d="M24.062397410641807 24.955224658294117L25.025517654838371 28.429760511500806 21.44782292718736 27.982434639525824M24.716041031505419 24.198422162986187L20.794179306323748 28.739237134833754 17.766969325092035 26.124662651379307 21.688831050273706 21.58384767953174Z" stroke="black" fill="white" />
    </g>
</svg>
