<?xml version="1.0" standalone="no"?>
<!DOCTYPE svg PUBLIC "-//W3C//DTD SVG 1.1//EN" "http://www.w3.org/Graphics/SVG/1.1/DTD/svg11.dtd">

<svg style="stroke:black; fill:none; stroke-width:0.5pt; stroke-linejoin:round; text-anchor:middle" xmlns="http://www.w3.org/2000/svg" height="400px" width="400px" version="1.1" xmlns:xlink="http://www.w3.org/1999/xlink" font-family="Helvetica,Arial,FreeSans,Sans,sans,sans-serif" viewBox="0 0 100 100">

<g>

<path d="M50 95.4545L54.2195 95.2583L58.8139 94.5918L62.508 93.6997L66.1068 92.5051L69.1227 91.2363L73.3777 88.982L76.6016 86.8574L79.7824 84.3383L83.4789 80.7453L86.8995 76.5433L89.2609 72.9063L90.4796 70.6764L92.2532 66.7566L93.4351 63.3981L94.7817 57.7921L95.2418 54.3923L95.4538 49.7339L95.2738 45.95L94.7193 41.8574L94.0372 38.7375L92.5613 34.0423L90.9722 30.3177L87.8591 24.8444L85.5843 21.718L82.8712 18.6058L80.6151 16.4019L78.067 14.2458L73.9019 11.3371L70.7847 9.57586L66.9703 7.83217L62.6709 6.34724L59.204 5.48705L55.7184 4.90659L51.4728 4.56932L47.9609 4.59122L44.3918 4.89275L40.6615 5.51507L36.3898 6.6309L31.6262 8.42455L27.2156 10.6683L23.6275 12.9783L20.136 15.7326L17.7604 17.9575L15.5113 20.3918L12.5516 24.2369L9.45295 29.4561L7.58183 33.6655L6.5833 36.5424L5.6564 40.012L4.89444 44.3783L4.57063 48.4874L4.61852 52.5763L4.94971 56.0487L5.60393 59.7522L6.61564 63.5615L7.99187 67.3618L10.0735 71.7254L12.5418 75.7488L14.7788 78.7329L17.0622 81.3244L20.1845 84.3096L23.6353 87.0273L27.7942 89.6613L32.6175 91.9996L36.4985 93.403L40.487 94.4479L44.7807 95.1539L48.8029 95.4388L50 95.4545Z" fill="lightgreen" />

<path d="M36.6867 63.3133L36.6867 36.6867L63.3133 36.6867L63.3133 63.3133Z" fill="purple" />

<path d="M63.3133 36.6867L68.3922 19.3464L77.8759 22.1241L80.6536 31.6078Z" fill="purple" />

<path d="M64.7444 11.6647L68.8102 10.9326L71.3545 13.1149L68.3922 19.3463Z" fill="purple" />

<path d="M63.619 7.70951L65.0294 8.448L64.7444 11.6647L61.6065 8.54838Z" fill="purple" />

<path d="M61.4365 6.74037L61.6065 8.54838L59.423 7.07313L60.5793 6.41342Z" fill="purple" />

<path d="M59.423 7.07313L57.8847 6.27593L58.6228 5.77329L59.1914 5.94452Z" fill="purple" />

<path d="M60.7882 6.01719L60.5793 6.41342L60.4349 5.95676L60.6311 5.91443Z" fill="purple" />

<path d="M61.741 6.22144L61.9236 6.39881L61.4365 6.74037L61.519 6.2278Z" fill="purple" />

<path d="M63.7851 6.87427L64.0383 7.07118L63.619 7.70951L63.4485 6.91927Z" fill="purple" />

<path d="M63.4857 6.68416L63.4485 6.91927L63.258 6.67657L63.3909 6.63228Z" fill="purple" />

<path d="M63.8275 6.73203L63.8709 6.76827L63.7851 6.87427L63.7705 6.73727Z" fill="purple" />

<path d="M64.1185 6.87551L64.2119 6.88398L64.2844 6.97587L64.0383 7.07118Z" fill="purple" />

<path d="M65.2797 7.55634L65.6789 7.58455L65.9759 7.9409L65.0294 8.44799Z" fill="purple" />

<path d="M65.2689 7.25645L65.3604 7.31779L65.2797 7.55634L65.1382 7.2852Z" fill="purple" />

<path d="M65.6819 7.40772L65.7554 7.40633L65.8096 7.45872L65.6789 7.58455Z" fill="purple" />

<path d="M65.9759 7.9409L66.1624 7.6528L66.3192 7.68313L66.4305 7.8664Z" fill="purple" />

<path d="M68.7462 9.30708L69.4345 9.31707L69.889 9.79879L68.8102 10.9326Z" fill="purple" />

<path d="M68.7116 8.72164L68.8865 8.84986L68.7462 9.30708L68.4375 8.77453Z" fill="purple" />

<path d="M68.4652 8.55587L68.4375 8.77453L68.2323 8.54194L68.3754 8.49948Z" fill="purple" />

<path d="M68.7482 8.61729L68.7777 8.64664L68.7116 8.72164L68.7048 8.61742Z" fill="purple" />

<path d="M68.9364 8.7301L68.9916 8.73927L69.0292 8.79362L68.8865 8.84986Z" fill="purple" />

<path d="M69.4449 9.03502L69.5621 9.04045L69.6404 9.12676L69.4345 9.31707Z" fill="purple" />

<path d="M69.4425 8.93761L69.4709 8.95943L69.4449 9.03502L69.3974 8.94493Z" fill="purple" />

<path d="M69.5645 8.99201L69.5846 8.99305L69.598 9.00797L69.5621 9.04045Z" fill="purple" />

<path d="M69.6404 9.12676L69.6817 9.05963L69.716 9.06777L69.7383 9.10649Z" fill="purple" />

<path d="M69.889 9.79879L70.117 9.42115L70.3082 9.46782L70.4299 9.68262Z" fill="purple" />

<path d="M70.0725 9.28651L70.1336 9.28156L70.1723 9.31558L70.117 9.42115Z" fill="purple" />

<path d="M70.3082 9.46782L70.3223 9.37921L70.3594 9.38303L70.3839 9.41314Z" fill="purple" />

<path d="M70.6962 9.68657L70.4299 9.68262L70.5593 9.54132L70.646 9.57003Z" fill="purple" />

<path d="M71.3546 13.1149L72.342 11.3103L73.2194 11.5548L73.7164 12.5128Z" fill="purple" />

<path d="M72.1452 10.6546L72.4447 10.6435L72.6227 10.8169L72.342 11.3103Z" fill="purple" />

<path d="M72.1227 10.3694L72.2061 10.436L72.1452 10.6546L71.979 10.3932Z" fill="purple" />

<path d="M72.4508 10.5285L72.4984 10.5333L72.5277 10.5691L72.4447 10.6435Z" fill="purple" />

<path d="M72.6227 10.8169L72.6992 10.6839L72.7634 10.7017L72.8015 10.7722Z" fill="purple" />

<path d="M73.2194 11.5548L73.3064 11.156L73.474 11.1852L73.5742 11.329Z" fill="purple" />

<path d="M73.2557 11.0222L73.3193 11.0188L73.356 11.0537L73.3064 11.156Z" fill="purple" />

<path d="M73.474 11.1852L73.4855 11.1147L73.5148 11.1193L73.5323 11.1434Z" fill="purple" />

<path d="M73.729 11.317L73.5742 11.329L73.6497 11.2346L73.7011 11.2528Z" fill="purple" />

<path d="M74.8118 12.5854L73.7164 12.5128L74.2953 11.9446L74.6468 12.0949Z" fill="purple" />

<path d="M74.2953 11.9446L74.2513 11.6877L74.3631 11.6925L74.4269 11.7641Z" fill="purple" />

<path d="M74.8152 12.0067L74.6468 12.0949L74.7001 11.9227L74.7733 11.9395Z" fill="purple" />

<path d="M75.3368 12.4251L75.409 12.7177L74.8118 12.5854L75.1505 12.3312Z" fill="purple" />

<path d="M77.8759 22.1241L79.5208 17.9122L81.3668 18.6332L82.0878 20.4792Z" fill="purple" />

<path d="M79.191 16.23L79.9646 16.3229L80.3234 16.8226L79.5208 17.9122Z" fill="purple" />

<path d="M79.2517 15.4539L79.4447 15.6749L79.191 16.23L78.8421 15.4529Z" fill="purple" />

<path d="M78.9517 15.1285L78.8421 15.4529L78.5822 15.0218L78.833 15.0054Z" fill="purple" />

<path d="M79.3379 15.3237L79.367 15.3744L79.2517 15.4539L79.2781 15.3077Z" fill="purple" />

<path d="M79.5446 15.5386L79.6104 15.5687L79.6386 15.6475L79.4447 15.6749Z" fill="purple" />

<path d="M80.0349 16.0368L80.1522 16.073L80.2069 16.1773L79.9646 16.3229Z" fill="purple" />

<path d="M80.0592 15.9351L80.0823 15.9659L80.0349 16.0368L80.0098 15.9298Z" fill="purple" />

<path d="M80.1679 16.0255L80.1875 16.0322L80.1966 16.0506L80.1522 16.073Z" fill="purple" />

<path d="M80.2069 16.1773L80.2636 16.1234L80.294 16.1403L80.3049 16.1825Z" fill="purple" />

<path d="M80.3234 16.8226L80.5657 16.5417L80.7083 16.6156L80.7625 16.7982Z" fill="purple" />

<path d="M80.557 16.4213L80.6086 16.431L80.6325 16.4674L80.5657 16.5417Z" fill="purple" />

<path d="M80.7083 16.6156L80.7371 16.5502L80.7648 16.561L80.777 16.5891Z" fill="purple" />

<path d="M80.9503 16.8439L80.7625 16.7982L80.8805 16.7181L80.9363 16.7546Z" fill="purple" />

<path d="M81.3668 18.6332L81.6837 17.8604L82.007 17.993L82.1396 18.3163Z" fill="purple" />

<path d="M81.6395 17.562L81.7728 17.5853L81.8312 17.6744L81.6837 17.8604Z" fill="purple" />

<path d="M81.6586 17.4284L81.6893 17.4686L81.6395 17.562L81.588 17.4232Z" fill="purple" />

<path d="M81.7873 17.5366L81.8072 17.5439L81.8157 17.5622L81.7728 17.5853Z" fill="purple" />

<path d="M81.8312 17.6744L81.8748 17.6275L81.8988 17.641L81.9071 17.6728Z" fill="purple" />

<path d="M82.007 17.993L82.0625 17.8588L82.1182 17.8818L82.1412 17.9375Z" fill="purple" />

<path d="M82.0553 17.8074L82.0782 17.8116L82.0881 17.8269L82.0625 17.8588Z" fill="purple" />

<path d="M82.1182 17.8818L82.1277 17.8588L82.1373 17.8627L82.1412 17.8723Z" fill="purple" />

<path d="M82.1926 17.9447L82.1412 17.9375L82.1731 17.9119L82.1884 17.9218Z" fill="purple" />

<path d="M82.438 18.3605L82.1396 18.3163L82.3256 18.1688L82.4147 18.2272Z" fill="purple" />

<path d="M82.3256 18.1688L82.3272 18.0929L82.359 18.1012L82.3725 18.1252Z" fill="purple" />

<path d="M82.4634 18.2127L82.4147 18.2272L82.4378 18.1843L82.4561 18.1928Z" fill="purple" />

<path d="M82.5716 18.3414L82.5768 18.412L82.438 18.3605L82.5314 18.3107Z" fill="purple" />

<path d="M83.77 20.809L82.0878 20.4792L83.1774 19.6766L83.6771 20.0354Z" fill="purple" />

<path d="M83.1774 19.6766L83.2018 19.2375L83.3844 19.2917L83.4583 19.4343Z" fill="purple" />

<path d="M83.1561 19.0497L83.2454 19.0637L83.2819 19.1195L83.2018 19.2375Z" fill="purple" />

<path d="M83.3844 19.2917L83.4109 19.223L83.439 19.2352L83.4498 19.2629Z" fill="purple" />

<path d="M83.5787 19.443L83.4583 19.4343L83.5326 19.3675L83.569 19.3914Z" fill="purple" />

<path d="M83.9632 19.9651L83.6771 20.0354L83.8227 19.7931L83.927 19.8478Z" fill="purple" />

<path d="M83.8227 19.7931L83.8175 19.6951L83.8597 19.706L83.8766 19.7364Z" fill="purple" />

<path d="M83.9745 19.8321L83.927 19.8478L83.9494 19.8034L83.9678 19.8125Z" fill="purple" />

<path d="M84.0649 19.9408L84.0702 19.9902L83.9632 19.9651L84.0341 19.9177Z" fill="purple" />

<path d="M84.5461 20.7483L84.5471 21.1579L83.77 20.809L84.3251 20.5553Z" fill="purple" />

<path d="M84.4614 20.4554L84.3251 20.5553L84.3525 20.3614L84.4313 20.3896Z" fill="purple" />

<path d="M84.6763 20.6621L84.6923 20.7219L84.5461 20.7483L84.6256 20.633Z" fill="purple" />

<path d="M84.8715 21.0483L84.9946 21.167L84.9782 21.4178L84.5471 21.1579Z" fill="purple" />

<path d="M88.3353 35.2556L80.6537 31.6078L86.8851 28.6455L89.0674 31.1898Z" fill="purple" />

<path d="M86.8851 28.6454L87.4872 26.2836L88.4452 26.7806L88.6897 27.658Z" fill="purple" />

<path d="M87.4146 25.1882L87.9051 25.3532L88.0554 25.7047L87.4872 26.2836Z" fill="purple" />

<path d="M87.5749 24.6632L87.6688 24.8495L87.4146 25.1882L87.2823 24.591Z" fill="purple" />

<path d="M87.9933 25.1848L88.0605 25.2267L88.0773 25.2999L87.9051 25.3532Z" fill="purple" />

<path d="M88.0554 25.7047L88.2359 25.5731L88.3075 25.6369L88.3123 25.7487Z" fill="purple" />

<path d="M88.4452 26.7806L88.671 26.4258L88.8148 26.526L88.844 26.6936Z" fill="purple" />

<path d="M88.683 26.271L88.7472 26.2989L88.7654 26.3503L88.671 26.4258Z" fill="purple" />

<path d="M88.8148 26.526L88.8566 26.4677L88.8807 26.4852L88.8853 26.5145Z" fill="purple" />

<path d="M88.9778 26.7443L88.844 26.6936L88.9463 26.644L88.9812 26.6807Z" fill="purple" />

<path d="M89.3454 27.8548L88.6897 27.658L89.1831 27.3773L89.3565 27.5553Z" fill="purple" />

<path d="M89.1831 27.3773L89.2278 27.1985L89.2983 27.2366L89.3161 27.3008Z" fill="purple" />

<path d="M89.4715 27.5492L89.3565 27.5553L89.4309 27.4723L89.4667 27.5016Z" fill="purple" />

<path d="M89.6306 27.8773L89.6068 28.021L89.3454 27.8548L89.564 27.7939Z" fill="purple" />

<path d="M90.6929 31.2538L89.0674 31.1898L90.2012 30.111L90.6829 30.5655Z" fill="purple" />

<path d="M90.2012 30.111L90.3174 29.5701L90.5322 29.6918L90.5789 29.883Z" fill="purple" />

<path d="M90.3134 29.3038L90.43 29.354L90.4587 29.4407L90.3174 29.5701Z" fill="purple" />

<path d="M90.5322 29.6918L90.5869 29.6161L90.617 29.6406L90.6208 29.6777Z" fill="purple" />

<path d="M90.7135 29.9275L90.5789 29.883L90.6844 29.8277L90.7184 29.8664Z" fill="purple" />

<path d="M90.965 30.5551L90.6829 30.5655L90.8732 30.3596L90.9595 30.4379Z" fill="purple" />

<path d="M90.8732 30.3596L90.8935 30.2617L90.9322 30.284L90.9404 30.3183Z" fill="purple" />

<path d="M91.008 30.4355L90.9595 30.4379L90.992 30.402L91.007 30.4154Z" fill="purple" />

<path d="M91.0624 30.5575L91.0551 30.6026L90.965 30.5551L91.0406 30.5291Z" fill="purple" />

<path d="M91.2784 31.2884L91.2255 31.5625L90.6929 31.2538L91.1501 31.1135Z" fill="purple" />

<path d="M91.2699 31.0636L91.1501 31.1135L91.2064 30.9708L91.2607 31.0084Z" fill="purple" />

<path d="M91.3827 31.2518L91.3826 31.2952L91.2784 31.2884L91.3534 31.2223Z" fill="purple" />

<path d="M91.4441 31.5348L91.5005 31.6246L91.4581 31.7677L91.2255 31.5625Z" fill="purple" />

<path d="M92.2905 36.381L91.4516 38.3935L88.3353 35.2556L91.552 34.9706Z" fill="purple" />

<path d="M92.4437 34.7203L91.552 34.9706L92.0591 34.0241L92.4155 34.3211Z" fill="purple" />

<path d="M92.0591 34.0241L92.1336 33.5695L92.3169 33.6808L92.3472 33.8376Z" fill="purple" />

<path d="M92.5923 34.3181L92.4155 34.3211L92.5413 34.1904L92.5937 34.2446Z" fill="purple" />

<path d="M92.7435 34.7311L92.7148 34.8618L92.4437 34.7203L92.6822 34.6396Z" fill="purple" />

<path d="M93.1257 36.2149L93.0807 36.5515L92.2905 36.381L92.9288 35.9617Z" fill="purple" />

<path d="M93.1245 35.8815L92.9288 35.9617L93.0241 35.7156L93.116 35.7881Z" fill="purple" />

<path d="M93.268 36.1725L93.2627 36.2295L93.1257 36.2149L93.2317 36.1291Z" fill="purple" />

<path d="M93.3158 36.5143L93.3677 36.6091L93.3234 36.742L93.0807 36.5515Z" fill="purple" />

<path d="M93.2596 38.5635L93.5866 39.4207L92.9269 40.577L91.4516 38.3935Z" fill="purple" />

<path d="M93.7786 38.259L93.7722 38.481L93.2596 38.5635L93.6012 38.0764Z" fill="purple" />

<path d="M93.9828 39.2118L94.0856 39.3689L94.0432 39.5651L93.5866 39.4207Z" fill="purple" />

<path d="M92.9269 40.577L94.0555 40.8086L94.2267 41.3772L93.7241 42.1153Z" fill="purple" />

<path d="M19.3464 31.6078L22.1241 22.1241L31.6078 19.3464L36.6867 36.6867Z" fill="purple" />

<path d="M10.9326 31.1898L13.1149 28.6455L19.3463 31.6078L11.6647 35.2556Z" fill="purple" />

<path d="M8.448 34.9706L11.6647 35.2556L8.54838 38.3935L7.70951 36.381Z" fill="purple" />

<path d="M8.54838 38.3935L7.07313 40.577L6.41342 39.4207L6.74037 38.5635Z" fill="purple" />

<path d="M6.27593 42.1153L5.77329 41.3772L5.94452 40.8086L7.07313 40.577Z" fill="purple" />

<path d="M6.41342 39.4207L5.95676 39.5651L5.91443 39.3689L6.01719 39.2118Z" fill="purple" />

<path d="M6.39881 38.0764L6.74037 38.5635L6.2278 38.481L6.22144 38.259Z" fill="purple" />

<path d="M7.07118 35.9617L7.70951 36.381L6.91927 36.5515L6.87427 36.2149Z" fill="purple" />

<path d="M6.91927 36.5515L6.67657 36.742L6.63228 36.6091L6.68416 36.5143Z" fill="purple" />

<path d="M6.76827 36.1291L6.87427 36.2149L6.73727 36.2295L6.73203 36.1725Z" fill="purple" />

<path d="M6.88398 35.7881L6.97587 35.7156L7.07118 35.9617L6.87551 35.8815Z" fill="purple" />

<path d="M7.58455 34.3211L7.9409 34.0241L8.44799 34.9706L7.55634 34.7203Z" fill="purple" />

<path d="M7.31779 34.6396L7.55634 34.7203L7.2852 34.8618L7.25645 34.7311Z" fill="purple" />

<path d="M7.40633 34.2446L7.45872 34.1904L7.58455 34.3211L7.40772 34.3181Z" fill="purple" />

<path d="M7.6528 33.8376L7.68313 33.6808L7.8664 33.5695L7.9409 34.0241Z" fill="purple" />

<path d="M9.31707 30.5655L9.79879 30.111L10.9326 31.1898L9.30708 31.2538Z" fill="purple" />

<path d="M8.84986 31.1135L9.30708 31.2538L8.77453 31.5625L8.72164 31.2884Z" fill="purple" />

<path d="M8.77453 31.5625L8.54194 31.7677L8.49948 31.6246L8.55587 31.5348Z" fill="purple" />

<path d="M8.64664 31.2223L8.72164 31.2884L8.61742 31.2952L8.61729 31.2518Z" fill="purple" />

<path d="M8.73927 31.0084L8.79362 30.9708L8.84986 31.1135L8.7301 31.0636Z" fill="purple" />

<path d="M9.04045 30.4379L9.12676 30.3596L9.31707 30.5655L9.03502 30.5551Z" fill="purple" />

<path d="M8.95943 30.5291L9.03502 30.5551L8.94493 30.6026L8.93761 30.5575Z" fill="purple" />

<path d="M8.99305 30.4154L9.00797 30.402L9.04045 30.4379L8.99201 30.4355Z" fill="purple" />

<path d="M9.05963 30.3183L9.06777 30.284L9.10649 30.2617L9.12676 30.3596Z" fill="purple" />

<path d="M9.42115 29.883L9.46782 29.6918L9.68262 29.5701L9.79879 30.111Z" fill="purple" />

<path d="M9.28156 29.8664L9.31558 29.8277L9.42115 29.883L9.28651 29.9275Z" fill="purple" />

<path d="M9.37921 29.6777L9.38303 29.6406L9.41314 29.6161L9.46782 29.6918Z" fill="purple" />

<path d="M9.68262 29.5701L9.54132 29.4407L9.57003 29.354L9.68657 29.3038Z" fill="purple" />

<path d="M11.3103 27.658L11.5548 26.7806L12.5128 26.2836L13.1149 28.6454Z" fill="purple" />

<path d="M10.6435 27.5553L10.8169 27.3773L11.3103 27.658L10.6546 27.8548Z" fill="purple" />

<path d="M10.436 27.7939L10.6546 27.8548L10.3932 28.021L10.3694 27.8773Z" fill="purple" />

<path d="M10.5333 27.5016L10.5691 27.4723L10.6435 27.5553L10.5285 27.5492Z" fill="purple" />

<path d="M10.6839 27.3008L10.7017 27.2366L10.7722 27.1985L10.8169 27.3773Z" fill="purple" />

<path d="M11.156 26.6936L11.1852 26.526L11.329 26.4258L11.5548 26.7806Z" fill="purple" />

<path d="M11.0188 26.6807L11.0537 26.644L11.156 26.6936L11.0222 26.7443Z" fill="purple" />

<path d="M11.1147 26.5145L11.1193 26.4852L11.1434 26.4677L11.1852 26.526Z" fill="purple" />

<path d="M11.329 26.4258L11.2346 26.3503L11.2528 26.2989L11.317 26.271Z" fill="purple" />

<path d="M12.5128 26.2836L11.9446 25.7047L12.0949 25.3532L12.5854 25.1882Z" fill="purple" />

<path d="M11.6877 25.7487L11.6925 25.6369L11.7641 25.5731L11.9446 25.7047Z" fill="purple" />

<path d="M12.0949 25.3532L11.9227 25.2999L11.9395 25.2267L12.0067 25.1848Z" fill="purple" />

<path d="M12.7177 24.591L12.5854 25.1882L12.3312 24.8495L12.4251 24.6632Z" fill="purple" />

<path d="M17.9122 20.4792L18.6332 18.6332L20.4792 17.9122L22.1241 22.1241Z" fill="purple" />

<path d="M16.3229 20.0354L16.8226 19.6766L17.9122 20.4792L16.23 20.809Z" fill="purple" />

<path d="M15.6749 20.5553L16.23 20.809L15.4529 21.1579L15.4539 20.7483Z" fill="purple" />

<path d="M15.4529 21.1579L15.0218 21.4178L15.0054 21.167L15.1285 21.0483Z" fill="purple" />

<path d="M15.3744 20.633L15.4539 20.7483L15.3077 20.7219L15.3237 20.6621Z" fill="purple" />

<path d="M15.5687 20.3896L15.6475 20.3614L15.6749 20.5553L15.5386 20.4554Z" fill="purple" />

<path d="M16.073 19.8478L16.1773 19.7931L16.3229 20.0354L16.0368 19.9651Z" fill="purple" />

<path d="M15.9659 19.9177L16.0368 19.9651L15.9298 19.9902L15.9351 19.9408Z" fill="purple" />

<path d="M16.0322 19.8125L16.0506 19.8034L16.073 19.8478L16.0255 19.8321Z" fill="purple" />

<path d="M16.1234 19.7364L16.1403 19.706L16.1825 19.6951L16.1773 19.7931Z" fill="purple" />

<path d="M16.5417 19.4343L16.6156 19.2917L16.7982 19.2375L16.8226 19.6766Z" fill="purple" />

<path d="M16.431 19.3914L16.4674 19.3675L16.5417 19.4343L16.4213 19.443Z" fill="purple" />

<path d="M16.5502 19.2629L16.561 19.2352L16.5891 19.223L16.6156 19.2917Z" fill="purple" />

<path d="M16.7982 19.2375L16.7181 19.1195L16.7546 19.0637L16.8439 19.0497Z" fill="purple" />

<path d="M17.8604 18.3163L17.993 17.993L18.3163 17.8604L18.6332 18.6332Z" fill="purple" />

<path d="M17.5853 18.2272L17.6744 18.1688L17.8604 18.3163L17.562 18.3605Z" fill="purple" />

<path d="M17.4686 18.3107L17.562 18.3605L17.4232 18.412L17.4284 18.3414Z" fill="purple" />

<path d="M17.5439 18.1928L17.5622 18.1843L17.5853 18.2272L17.5366 18.2127Z" fill="purple" />

<path d="M17.6275 18.1252L17.641 18.1012L17.6728 18.0929L17.6744 18.1688Z" fill="purple" />

<path d="M17.8588 17.9375L17.8818 17.8818L17.9375 17.8588L17.993 17.993Z" fill="purple" />

<path d="M17.8116 17.9218L17.8269 17.9119L17.8588 17.9375L17.8074 17.9447Z" fill="purple" />

<path d="M17.8588 17.8723L17.8627 17.8627L17.8723 17.8588L17.8818 17.8818Z" fill="purple" />

<path d="M17.9375 17.8588L17.9119 17.8269L17.9218 17.8116L17.9447 17.8074Z" fill="purple" />

<path d="M18.3163 17.8604L18.1688 17.6744L18.2272 17.5853L18.3605 17.562Z" fill="purple" />

<path d="M18.0929 17.6728L18.1012 17.641L18.1252 17.6275L18.1688 17.6744Z" fill="purple" />

<path d="M18.2272 17.5853L18.1843 17.5622L18.1928 17.5439L18.2127 17.5366Z" fill="purple" />

<path d="M18.412 17.4232L18.3605 17.562L18.3107 17.4686L18.3414 17.4284Z" fill="purple" />

<path d="M20.4792 17.9122L19.6766 16.8226L20.0354 16.3229L20.809 16.23Z" fill="purple" />

<path d="M19.2375 16.7982L19.2917 16.6156L19.4343 16.5417L19.6766 16.8226Z" fill="purple" />

<path d="M19.0637 16.7546L19.1195 16.7181L19.2375 16.7982L19.0497 16.8439Z" fill="purple" />

<path d="M19.223 16.5891L19.2352 16.561L19.2629 16.5502L19.2917 16.6156Z" fill="purple" />

<path d="M19.4343 16.5417L19.3675 16.4674L19.3914 16.431L19.443 16.4213Z" fill="purple" />

<path d="M20.0354 16.3229L19.7931 16.1773L19.8478 16.073L19.9651 16.0368Z" fill="purple" />

<path d="M19.6951 16.1825L19.706 16.1403L19.7364 16.1234L19.7931 16.1773Z" fill="purple" />

<path d="M19.8478 16.073L19.8034 16.0506L19.8125 16.0322L19.8321 16.0255Z" fill="purple" />

<path d="M19.9902 15.9298L19.9651 16.0368L19.9177 15.9659L19.9408 15.9351Z" fill="purple" />

<path d="M21.1579 15.4529L20.809 16.23L20.5553 15.6749L20.7483 15.4539Z" fill="purple" />

<path d="M20.5553 15.6749L20.3614 15.6475L20.3896 15.5687L20.4554 15.5386Z" fill="purple" />

<path d="M20.7219 15.3077L20.7483 15.4539L20.633 15.3744L20.6621 15.3237Z" fill="purple" />

<path d="M21.167 15.0054L21.4178 15.0218L21.1579 15.4529L21.0483 15.1285Z" fill="purple" />

<path d="M31.6078 19.3463L28.6455 13.1149L31.1898 10.9326L35.2556 11.6647Z" fill="purple" />

<path d="M26.2836 12.5128L26.7806 11.5548L27.658 11.3103L28.6454 13.1149Z" fill="purple" />

<path d="M25.3532 12.0949L25.7047 11.9446L26.2836 12.5128L25.1882 12.5854Z" fill="purple" />

<path d="M24.8495 12.3312L25.1882 12.5854L24.591 12.7177L24.6632 12.4251Z" fill="purple" />

<path d="M25.2267 11.9395L25.2999 11.9227L25.3532 12.0949L25.1848 12.0067Z" fill="purple" />

<path d="M25.5731 11.7641L25.6369 11.6925L25.7487 11.6877L25.7047 11.9446Z" fill="purple" />

<path d="M26.4258 11.329L26.526 11.1852L26.6936 11.156L26.7806 11.5548Z" fill="purple" />

<path d="M26.2989 11.2528L26.3503 11.2346L26.4258 11.329L26.271 11.317Z" fill="purple" />

<path d="M26.4677 11.1434L26.4852 11.1193L26.5145 11.1147L26.526 11.1852Z" fill="purple" />

<path d="M26.6936 11.156L26.644 11.0537L26.6807 11.0188L26.7443 11.0222Z" fill="purple" />

<path d="M27.658 11.3103L27.3773 10.8169L27.5553 10.6435L27.8548 10.6546Z" fill="purple" />

<path d="M27.1985 10.7722L27.2366 10.7017L27.3008 10.6839L27.3773 10.8169Z" fill="purple" />

<path d="M27.5553 10.6435L27.4723 10.5691L27.5016 10.5333L27.5492 10.5285Z" fill="purple" />

<path d="M28.021 10.3932L27.8548 10.6546L27.7939 10.436L27.8773 10.3694Z" fill="purple" />

<path d="M31.1898 10.9326L30.111 9.79879L30.5655 9.31707L31.2538 9.30708Z" fill="purple" />

<path d="M29.5701 9.68262L29.6918 9.46782L29.883 9.42115L30.111 9.79879Z" fill="purple" />

<path d="M29.354 9.57003L29.4407 9.54132L29.5701 9.68262L29.3038 9.68657Z" fill="purple" />

<path d="M29.6161 9.41314L29.6406 9.38303L29.6777 9.37921L29.6918 9.46782Z" fill="purple" />

<path d="M29.883 9.42115L29.8277 9.31558L29.8664 9.28156L29.9275 9.28651Z" fill="purple" />

<path d="M30.5655 9.31707L30.3596 9.12676L30.4379 9.04045L30.5551 9.03502Z" fill="purple" />

<path d="M30.2617 9.10649L30.284 9.06777L30.3183 9.05963L30.3596 9.12676Z" fill="purple" />

<path d="M30.4379 9.04045L30.402 9.00797L30.4154 8.99305L30.4355 8.99201Z" fill="purple" />

<path d="M30.6026 8.94493L30.5551 9.03502L30.5291 8.95943L30.5575 8.93761Z" fill="purple" />

<path d="M31.5625 8.77453L31.2538 9.30708L31.1135 8.84986L31.2884 8.72164Z" fill="purple" />

<path d="M31.1135 8.84986L30.9708 8.79362L31.0084 8.73927L31.0636 8.7301Z" fill="purple" />

<path d="M31.2952 8.61742L31.2884 8.72164L31.2223 8.64664L31.2518 8.61729Z" fill="purple" />

<path d="M31.6246 8.49948L31.7677 8.54194L31.5625 8.77453L31.5348 8.55587Z" fill="purple" />

<path d="M38.3935 8.54838L35.2556 11.6647L34.9706 8.448L36.381 7.70951Z" fill="purple" />

<path d="M34.9706 8.44799L34.0241 7.9409L34.3211 7.58455L34.7203 7.55634Z" fill="purple" />

<path d="M33.5695 7.8664L33.6808 7.68313L33.8376 7.6528L34.0241 7.9409Z" fill="purple" />

<path d="M34.3211 7.58455L34.1904 7.45872L34.2446 7.40633L34.3181 7.40772Z" fill="purple" />

<path d="M34.8618 7.2852L34.7203 7.55634L34.6396 7.31779L34.7311 7.25645Z" fill="purple" />

<path d="M36.5515 6.91927L36.381 7.70951L35.9617 7.07118L36.2149 6.87427Z" fill="purple" />

<path d="M35.9617 7.07118L35.7156 6.97587L35.7881 6.88398L35.8815 6.87551Z" fill="purple" />

<path d="M36.2295 6.73727L36.2149 6.87427L36.1291 6.76827L36.1725 6.73203Z" fill="purple" />

<path d="M36.6091 6.63228L36.742 6.67657L36.5515 6.91927L36.5143 6.68416Z" fill="purple" />

<path d="M39.4207 6.41342L40.577 7.07313L38.3935 8.54838L38.5635 6.74037Z" fill="purple" />

<path d="M38.481 6.2278L38.5635 6.74037L38.0764 6.39881L38.259 6.22144Z" fill="purple" />

<path d="M39.3689 5.91443L39.5651 5.95676L39.4207 6.41342L39.2118 6.01719Z" fill="purple" />

<path d="M40.8086 5.94452L41.3772 5.77329L42.1153 6.27593L40.577 7.07313Z" fill="purple" />

<path d="M22.1241 77.8759L19.3464 68.3922L36.6867 63.3133L31.6078 80.6536Z" fill="purple" />

<path d="M28.6455 86.8851L31.6078 80.6537L35.2556 88.3353L31.1898 89.0674Z" fill="purple" />

<path d="M35.2556 88.3353L38.3935 91.4516L36.381 92.2905L34.9706 91.552Z" fill="purple" />

<path d="M40.577 92.9269L39.4207 93.5866L38.5635 93.2596L38.3935 91.4516Z" fill="purple" />

<path d="M41.3772 94.2267L40.8086 94.0555L40.577 92.9269L42.1153 93.7241Z" fill="purple" />

<path d="M39.5651 94.0432L39.3689 94.0856L39.2118 93.9828L39.4207 93.5866Z" fill="purple" />

<path d="M38.5635 93.2596L38.481 93.7722L38.259 93.7786L38.0764 93.6012Z" fill="purple" />

<path d="M36.381 92.2905L36.5515 93.0807L36.2149 93.1257L35.9617 92.9288Z" fill="purple" />

<path d="M36.742 93.3234L36.6091 93.3677L36.5143 93.3158L36.5515 93.0807Z" fill="purple" />

<path d="M36.2149 93.1257L36.2295 93.2627L36.1725 93.268L36.1291 93.2317Z" fill="purple" />

<path d="M35.7156 93.0241L35.9617 92.9288L35.8815 93.1245L35.7881 93.116Z" fill="purple" />

<path d="M34.0241 92.0591L34.9706 91.552L34.7203 92.4437L34.3211 92.4155Z" fill="purple" />

<path d="M34.7203 92.4437L34.8618 92.7148L34.7311 92.7435L34.6396 92.6822Z" fill="purple" />

<path d="M34.1904 92.5413L34.3211 92.4155L34.3181 92.5923L34.2446 92.5937Z" fill="purple" />

<path d="M33.6808 92.3169L33.5695 92.1336L34.0241 92.0591L33.8376 92.3472Z" fill="purple" />

<path d="M30.111 90.2012L31.1898 89.0674L31.2538 90.6929L30.5655 90.6829Z" fill="purple" />

<path d="M31.2538 90.6929L31.5625 91.2255L31.2884 91.2784L31.1135 91.1501Z" fill="purple" />

<path d="M31.7677 91.4581L31.6246 91.5005L31.5348 91.4441L31.5625 91.2255Z" fill="purple" />

<path d="M31.2884 91.2784L31.2952 91.3826L31.2518 91.3827L31.2223 91.3534Z" fill="purple" />

<path d="M30.9708 91.2064L31.1135 91.1501L31.0636 91.2699L31.0084 91.2607Z" fill="purple" />

<path d="M30.3596 90.8732L30.5655 90.6829L30.5551 90.965L30.4379 90.9595Z" fill="purple" />

<path d="M30.5551 90.965L30.6026 91.0551L30.5575 91.0624L30.5291 91.0406Z" fill="purple" />

<path d="M30.402 90.992L30.4379 90.9595L30.4355 91.008L30.4154 91.007Z" fill="purple" />

<path d="M30.284 90.9322L30.2617 90.8935L30.3596 90.8732L30.3183 90.9404Z" fill="purple" />

<path d="M29.6918 90.5322L29.5701 90.3174L30.111 90.2012L29.883 90.5789Z" fill="purple" />

<path d="M29.8277 90.6844L29.883 90.5789L29.9275 90.7135L29.8664 90.7184Z" fill="purple" />

<path d="M29.6406 90.617L29.6161 90.5869L29.6918 90.5322L29.6777 90.6208Z" fill="purple" />

<path d="M29.4407 90.4587L29.354 90.43L29.3038 90.3134L29.5701 90.3174Z" fill="purple" />

<path d="M26.7806 88.4452L26.2836 87.4872L28.6454 86.8851L27.658 88.6897Z" fill="purple" />

<path d="M27.3773 89.1831L27.658 88.6897L27.8548 89.3454L27.5553 89.3565Z" fill="purple" />

<path d="M27.8548 89.3454L28.021 89.6068L27.8773 89.6306L27.7939 89.564Z" fill="purple" />

<path d="M27.4723 89.4309L27.5553 89.3565L27.5492 89.4715L27.5016 89.4667Z" fill="purple" />

<path d="M27.2366 89.2983L27.1985 89.2278L27.3773 89.1831L27.3008 89.3161Z" fill="purple" />

<path d="M26.526 88.8148L26.4258 88.671L26.7806 88.4452L26.6936 88.844Z" fill="purple" />

<path d="M26.644 88.9463L26.6936 88.844L26.7443 88.9778L26.6807 88.9812Z" fill="purple" />

<path d="M26.4852 88.8807L26.4677 88.8566L26.526 88.8148L26.5145 88.8853Z" fill="purple" />

<path d="M26.3503 88.7654L26.2989 88.7472L26.271 88.683L26.4258 88.671Z" fill="purple" />

<path d="M25.7047 88.0554L25.3532 87.9051L25.1882 87.4146L26.2836 87.4872Z" fill="purple" />

<path d="M25.6369 88.3075L25.5731 88.2359L25.7047 88.0554L25.7487 88.3123Z" fill="purple" />

<path d="M25.2999 88.0773L25.2267 88.0605L25.1848 87.9933L25.3532 87.9051Z" fill="purple" />

<path d="M25.1882 87.4146L24.8495 87.6688L24.6632 87.5749L24.591 87.2823Z" fill="purple" />

<path d="M18.6332 81.3668L17.9122 79.5208L22.1241 77.8759L20.4792 82.0878Z" fill="purple" />

<path d="M19.6766 83.1774L20.4792 82.0878L20.809 83.77L20.0354 83.6771Z" fill="purple" />

<path d="M20.809 83.77L21.1579 84.5471L20.7483 84.5461L20.5553 84.3251Z" fill="purple" />

<path d="M21.4178 84.9782L21.167 84.9946L21.0483 84.8715L21.1579 84.5471Z" fill="purple" />

<path d="M20.7483 84.5461L20.7219 84.6923L20.6621 84.6763L20.633 84.6256Z" fill="purple" />

<path d="M20.3614 84.3525L20.5553 84.3251L20.4554 84.4614L20.3896 84.4313Z" fill="purple" />

<path d="M19.7931 83.8227L20.0354 83.6771L19.9651 83.9632L19.8478 83.927Z" fill="purple" />

<path d="M19.9651 83.9632L19.9902 84.0702L19.9408 84.0649L19.9177 84.0341Z" fill="purple" />

<path d="M19.8034 83.9494L19.8478 83.927L19.8321 83.9745L19.8125 83.9678Z" fill="purple" />

<path d="M19.706 83.8597L19.6951 83.8175L19.7931 83.8227L19.7364 83.8766Z" fill="purple" />

<path d="M19.2917 83.3844L19.2375 83.2018L19.6766 83.1774L19.4343 83.4583Z" fill="purple" />

<path d="M19.3675 83.5326L19.4343 83.4583L19.443 83.5787L19.3914 83.569Z" fill="purple" />

<path d="M19.2352 83.439L19.223 83.4109L19.2917 83.3844L19.2629 83.4498Z" fill="purple" />

<path d="M19.1195 83.2819L19.0637 83.2454L19.0497 83.1561L19.2375 83.2018Z" fill="purple" />

<path d="M17.993 82.007L17.8604 81.6837L18.6332 81.3668L18.3163 82.1396Z" fill="purple" />

<path d="M18.1688 82.3256L18.3163 82.1396L18.3605 82.438L18.2272 82.4147Z" fill="purple" />

<path d="M18.3605 82.438L18.412 82.5768L18.3414 82.5716L18.3107 82.5314Z" fill="purple" />

<path d="M18.1843 82.4378L18.2272 82.4147L18.2127 82.4634L18.1928 82.4561Z" fill="purple" />

<path d="M18.1012 82.359L18.0929 82.3272L18.1688 82.3256L18.1252 82.3725Z" fill="purple" />

<path d="M17.8818 82.1182L17.8588 82.0625L17.993 82.007L17.9375 82.1412Z" fill="purple" />

<path d="M17.9119 82.1731L17.9375 82.1412L17.9447 82.1926L17.9218 82.1884Z" fill="purple" />

<path d="M17.8627 82.1373L17.8588 82.1277L17.8818 82.1182L17.8723 82.1412Z" fill="purple" />

<path d="M17.8269 82.0881L17.8116 82.0782L17.8074 82.0553L17.8588 82.0625Z" fill="purple" />

<path d="M17.6744 81.8312L17.5853 81.7728L17.562 81.6395L17.8604 81.6837Z" fill="purple" />

<path d="M17.641 81.8988L17.6275 81.8748L17.6744 81.8312L17.6728 81.9071Z" fill="purple" />

<path d="M17.5622 81.8157L17.5439 81.8072L17.5366 81.7873L17.5853 81.7728Z" fill="purple" />

<path d="M17.562 81.6395L17.4686 81.6893L17.4284 81.6586L17.4232 81.588Z" fill="purple" />

<path d="M16.8226 80.3234L16.3229 79.9646L16.23 79.191L17.9122 79.5208Z" fill="purple" />

<path d="M16.6156 80.7083L16.5417 80.5657L16.8226 80.3234L16.7982 80.7625Z" fill="purple" />

<path d="M16.7181 80.8805L16.7982 80.7625L16.8439 80.9503L16.7546 80.9363Z" fill="purple" />

<path d="M16.561 80.7648L16.5502 80.7371L16.6156 80.7083L16.5891 80.777Z" fill="purple" />

<path d="M16.4674 80.6325L16.431 80.6086L16.4213 80.557L16.5417 80.5657Z" fill="purple" />

<path d="M16.1773 80.2069L16.073 80.1522L16.0368 80.0349L16.3229 79.9646Z" fill="purple" />

<path d="M16.1403 80.294L16.1234 80.2636L16.1773 80.2069L16.1825 80.3049Z" fill="purple" />

<path d="M16.0506 80.1966L16.0322 80.1875L16.0255 80.1679L16.073 80.1522Z" fill="purple" />

<path d="M16.0368 80.0349L15.9659 80.0823L15.9351 80.0592L15.9298 80.0098Z" fill="purple" />

<path d="M16.23 79.191L15.6749 79.4447L15.4539 79.2517L15.4529 78.8421Z" fill="purple" />

<path d="M15.6475 79.6386L15.5687 79.6104L15.5386 79.5446L15.6749 79.4447Z" fill="purple" />

<path d="M15.4539 79.2517L15.3744 79.367L15.3237 79.3379L15.3077 79.2781Z" fill="purple" />

<path d="M15.0218 78.5822L15.4529 78.8421L15.1285 78.9517L15.0054 78.833Z" fill="purple" />

<path d="M13.1149 71.3545L10.9326 68.8102L11.6647 64.7444L19.3463 68.3922Z" fill="purple" />

<path d="M11.5548 73.2194L11.3103 72.342L13.1149 71.3546L12.5128 73.7164Z" fill="purple" />

<path d="M11.9446 74.2953L12.5128 73.7164L12.5854 74.8118L12.0949 74.6468Z" fill="purple" />

<path d="M12.5854 74.8118L12.7177 75.409L12.4251 75.3368L12.3312 75.1505Z" fill="purple" />

<path d="M11.9227 74.7001L12.0949 74.6468L12.0067 74.8152L11.9395 74.7733Z" fill="purple" />

<path d="M11.6925 74.3631L11.6877 74.2513L11.9446 74.2953L11.7641 74.4269Z" fill="purple" />

<path d="M11.1852 73.474L11.156 73.3064L11.5548 73.2194L11.329 73.5742Z" fill="purple" />

<path d="M11.2346 73.6497L11.329 73.5742L11.317 73.729L11.2528 73.7011Z" fill="purple" />

<path d="M11.1193 73.5148L11.1147 73.4855L11.1852 73.474L11.1434 73.5323Z" fill="purple" />

<path d="M11.0537 73.356L11.0188 73.3193L11.0222 73.2557L11.156 73.3064Z" fill="purple" />

<path d="M10.8169 72.6227L10.6435 72.4447L10.6546 72.1452L11.3103 72.342Z" fill="purple" />

<path d="M10.7017 72.7634L10.6839 72.6992L10.8169 72.6227L10.7722 72.8015Z" fill="purple" />

<path d="M10.5691 72.5277L10.5333 72.4984L10.5285 72.4508L10.6435 72.4447Z" fill="purple" />

<path d="M10.6546 72.1452L10.436 72.2061L10.3694 72.1227L10.3932 71.979Z" fill="purple" />

<path d="M9.79879 69.889L9.31707 69.4345L9.30708 68.7462L10.9326 68.8102Z" fill="purple" />

<path d="M9.46782 70.3082L9.42115 70.117L9.79879 69.889L9.68262 70.4299Z" fill="purple" />

<path d="M9.54132 70.5593L9.68262 70.4299L9.68657 70.6962L9.57003 70.646Z" fill="purple" />

<path d="M9.38303 70.3594L9.37921 70.3223L9.46782 70.3082L9.41314 70.3839Z" fill="purple" />

<path d="M9.31558 70.1723L9.28156 70.1336L9.28651 70.0725L9.42115 70.117Z" fill="purple" />

<path d="M9.12676 69.6404L9.04045 69.5621L9.03502 69.4449L9.31707 69.4345Z" fill="purple" />

<path d="M9.06777 69.716L9.05963 69.6817L9.12676 69.6404L9.10649 69.7383Z" fill="purple" />

<path d="M9.00797 69.598L8.99305 69.5846L8.99201 69.5645L9.04045 69.5621Z" fill="purple" />

<path d="M9.03502 69.4449L8.95943 69.4709L8.93761 69.4425L8.94493 69.3974Z" fill="purple" />

<path d="M9.30708 68.7462L8.84986 68.8865L8.72164 68.7116L8.77453 68.4375Z" fill="purple" />

<path d="M8.79362 69.0292L8.73927 68.9916L8.7301 68.9364L8.84986 68.8865Z" fill="purple" />

<path d="M8.72164 68.7116L8.64664 68.7777L8.61729 68.7482L8.61742 68.7048Z" fill="purple" />

<path d="M8.54194 68.2323L8.77453 68.4375L8.55587 68.4652L8.49948 68.3754Z" fill="purple" />

<path d="M11.6647 64.7444L8.448 65.0294L7.70951 63.619L8.54838 61.6065Z" fill="purple" />

<path d="M7.9409 65.9759L7.58455 65.6789L7.55634 65.2797L8.44799 65.0294Z" fill="purple" />

<path d="M7.68313 66.3192L7.6528 66.1624L7.9409 65.9759L7.8664 66.4305Z" fill="purple" />

<path d="M7.45872 65.8096L7.40633 65.7554L7.40772 65.6819L7.58455 65.6789Z" fill="purple" />

<path d="M7.55634 65.2797L7.31779 65.3604L7.25645 65.2689L7.2852 65.1382Z" fill="purple" />

<path d="M7.70951 63.619L7.07118 64.0383L6.87427 63.7851L6.91927 63.4485Z" fill="purple" />

<path d="M6.97587 64.2844L6.88398 64.2119L6.87551 64.1185L7.07118 64.0383Z" fill="purple" />

<path d="M6.87427 63.7851L6.76827 63.8709L6.73203 63.8275L6.73727 63.7705Z" fill="purple" />

<path d="M6.67657 63.258L6.91927 63.4485L6.68416 63.4857L6.63228 63.3909Z" fill="purple" />

<path d="M7.07313 59.423L8.54838 61.6065L6.74037 61.4365L6.41342 60.5793Z" fill="purple" />

<path d="M6.74037 61.4365L6.39881 61.9236L6.22144 61.741L6.2278 61.519Z" fill="purple" />

<path d="M5.95676 60.4349L6.41342 60.5793L6.01719 60.7882L5.91443 60.6311Z" fill="purple" />

<path d="M5.77329 58.6228L6.27593 57.8847L7.07313 59.423L5.94452 59.1914Z" fill="purple" />

<path d="M68.3922 80.6536L63.3133 63.3133L80.6536 68.3922L77.8759 77.8759Z" fill="purple" />

<path d="M80.6537 68.3922L88.3353 64.7444L89.0674 68.8102L86.8851 71.3545Z" fill="purple" />

<path d="M91.4516 61.6065L92.2905 63.619L91.552 65.0294L88.3353 64.7444Z" fill="purple" />

<path d="M93.5866 60.5793L93.2596 61.4365L91.4516 61.6065L92.9269 59.423Z" fill="purple" />

<path d="M94.0555 59.1914L92.9269 59.423L93.7241 57.8847L94.2267 58.6228Z" fill="purple" />

<path d="M94.0856 60.6311L93.9828 60.7882L93.5866 60.5793L94.0432 60.4349Z" fill="purple" />

<path d="M93.7722 61.519L93.7786 61.741L93.6012 61.9236L93.2596 61.4365Z" fill="purple" />

<path d="M93.0807 63.4485L93.1257 63.7851L92.9288 64.0383L92.2905 63.619Z" fill="purple" />

<path d="M93.3677 63.3909L93.3158 63.4857L93.0807 63.4485L93.3234 63.258Z" fill="purple" />

<path d="M93.2627 63.7705L93.268 63.8275L93.2317 63.8709L93.1257 63.7851Z" fill="purple" />

<path d="M92.9288 64.0383L93.1245 64.1185L93.116 64.2119L93.0241 64.2844Z" fill="purple" />

<path d="M91.552 65.0294L92.4437 65.2797L92.4155 65.6789L92.0591 65.9759Z" fill="purple" />

<path d="M92.7148 65.1382L92.7435 65.2689L92.6822 65.3604L92.4437 65.2797Z" fill="purple" />

<path d="M92.4155 65.6789L92.5923 65.6819L92.5937 65.7554L92.5413 65.8096Z" fill="purple" />

<path d="M92.1336 66.4305L92.0591 65.9759L92.3472 66.1624L92.3169 66.3192Z" fill="purple" />

<path d="M89.0674 68.8102L90.6929 68.7462L90.6829 69.4345L90.2012 69.889Z" fill="purple" />

<path d="M91.2255 68.4375L91.2784 68.7116L91.1501 68.8865L90.6929 68.7462Z" fill="purple" />

<path d="M91.5005 68.3754L91.4441 68.4652L91.2255 68.4375L91.4581 68.2323Z" fill="purple" />

<path d="M91.3826 68.7048L91.3827 68.7482L91.3534 68.7777L91.2784 68.7116Z" fill="purple" />

<path d="M91.1501 68.8865L91.2699 68.9364L91.2607 68.9916L91.2064 69.0292Z" fill="purple" />

<path d="M90.6829 69.4345L90.965 69.4449L90.9595 69.5621L90.8732 69.6404Z" fill="purple" />

<path d="M91.0551 69.3974L91.0624 69.4425L91.0406 69.4709L90.965 69.4449Z" fill="purple" />

<path d="M90.9595 69.5621L91.008 69.5645L91.007 69.5846L90.992 69.598Z" fill="purple" />

<path d="M90.8935 69.7383L90.8732 69.6404L90.9404 69.6817L90.9322 69.716Z" fill="purple" />

<path d="M90.3174 70.4299L90.2012 69.889L90.5789 70.117L90.5322 70.3082Z" fill="purple" />

<path d="M90.5789 70.117L90.7135 70.0725L90.7184 70.1336L90.6844 70.1723Z" fill="purple" />

<path d="M90.5869 70.3839L90.5322 70.3082L90.6208 70.3223L90.617 70.3594Z" fill="purple" />

<path d="M90.43 70.646L90.3134 70.6962L90.3174 70.4299L90.4587 70.5593Z" fill="purple" />

<path d="M87.4872 73.7164L86.8851 71.3546L88.6897 72.342L88.4452 73.2194Z" fill="purple" />

<path d="M88.6897 72.342L89.3454 72.1452L89.3565 72.4447L89.1831 72.6227Z" fill="purple" />

<path d="M89.6068 71.979L89.6306 72.1227L89.564 72.2061L89.3454 72.1452Z" fill="purple" />

<path d="M89.3565 72.4447L89.4715 72.4508L89.4667 72.4984L89.4309 72.5277Z" fill="purple" />

<path d="M89.2278 72.8015L89.1831 72.6227L89.3161 72.6992L89.2983 72.7634Z" fill="purple" />

<path d="M88.671 73.5742L88.4452 73.2194L88.844 73.3064L88.8148 73.474Z" fill="purple" />

<path d="M88.844 73.3064L88.9778 73.2557L88.9812 73.3193L88.9463 73.356Z" fill="purple" />

<path d="M88.8566 73.5323L88.8148 73.474L88.8853 73.4855L88.8807 73.5148Z" fill="purple" />

<path d="M88.7472 73.7011L88.683 73.729L88.671 73.5742L88.7654 73.6497Z" fill="purple" />

<path d="M87.9051 74.6468L87.4146 74.8118L87.4872 73.7164L88.0554 74.2953Z" fill="purple" />

<path d="M88.2359 74.4269L88.0554 74.2953L88.3123 74.2513L88.3075 74.3631Z" fill="purple" />

<path d="M88.0605 74.7733L87.9933 74.8152L87.9051 74.6468L88.0773 74.7001Z" fill="purple" />

<path d="M87.6688 75.1505L87.5749 75.3368L87.2823 75.409L87.4146 74.8118Z" fill="purple" />

<path d="M79.5208 82.0878L77.8759 77.8759L82.0878 79.5208L81.3668 81.3668Z" fill="purple" />

<path d="M82.0878 79.5208L83.77 79.191L83.6771 79.9646L83.1774 80.3234Z" fill="purple" />

<path d="M84.5471 78.8421L84.5461 79.2517L84.3251 79.4447L83.77 79.191Z" fill="purple" />

<path d="M84.9946 78.833L84.8715 78.9517L84.5471 78.8421L84.9782 78.5822Z" fill="purple" />

<path d="M84.6923 79.2781L84.6763 79.3379L84.6256 79.367L84.5461 79.2517Z" fill="purple" />

<path d="M84.3251 79.4447L84.4614 79.5446L84.4313 79.6104L84.3525 79.6386Z" fill="purple" />

<path d="M83.6771 79.9646L83.9632 80.0349L83.927 80.1522L83.8227 80.2069Z" fill="purple" />

<path d="M84.0702 80.0098L84.0649 80.0592L84.0341 80.0823L83.9632 80.0349Z" fill="purple" />

<path d="M83.927 80.1522L83.9745 80.1679L83.9678 80.1875L83.9494 80.1966Z" fill="purple" />

<path d="M83.8175 80.3049L83.8227 80.2069L83.8766 80.2636L83.8597 80.294Z" fill="purple" />

<path d="M83.2018 80.7625L83.1774 80.3234L83.4583 80.5657L83.3844 80.7083Z" fill="purple" />

<path d="M83.4583 80.5657L83.5787 80.557L83.569 80.6086L83.5326 80.6325Z" fill="purple" />

<path d="M83.4109 80.777L83.3844 80.7083L83.4498 80.7371L83.439 80.7648Z" fill="purple" />

<path d="M83.2454 80.9363L83.1561 80.9503L83.2018 80.7625L83.2819 80.8805Z" fill="purple" />

<path d="M81.6837 82.1396L81.3668 81.3668L82.1396 81.6837L82.007 82.007Z" fill="purple" />

<path d="M82.1396 81.6837L82.438 81.6395L82.4147 81.7728L82.3256 81.8312Z" fill="purple" />

<path d="M82.5768 81.588L82.5716 81.6586L82.5314 81.6893L82.438 81.6395Z" fill="purple" />

<path d="M82.4147 81.7728L82.4634 81.7873L82.4561 81.8072L82.4378 81.8157Z" fill="purple" />

<path d="M82.3272 81.9071L82.3256 81.8312L82.3725 81.8748L82.359 81.8988Z" fill="purple" />

<path d="M82.0625 82.1412L82.007 82.007L82.1412 82.0625L82.1182 82.1182Z" fill="purple" />

<path d="M82.1412 82.0625L82.1926 82.0553L82.1884 82.0782L82.1731 82.0881Z" fill="purple" />

<path d="M82.1277 82.1412L82.1182 82.1182L82.1412 82.1277L82.1373 82.1373Z" fill="purple" />

<path d="M82.0782 82.1884L82.0553 82.1926L82.0625 82.1412L82.0881 82.1731Z" fill="purple" />

<path d="M81.7728 82.4147L81.6395 82.438L81.6837 82.1396L81.8312 82.3256Z" fill="purple" />

<path d="M81.8748 82.3725L81.8312 82.3256L81.9071 82.3272L81.8988 82.359Z" fill="purple" />

<path d="M81.8072 82.4561L81.7873 82.4634L81.7728 82.4147L81.8157 82.4378Z" fill="purple" />

<path d="M81.6893 82.5314L81.6586 82.5716L81.588 82.5768L81.6395 82.438Z" fill="purple" />

<path d="M79.9646 83.6771L79.191 83.77L79.5208 82.0878L80.3234 83.1774Z" fill="purple" />

<path d="M80.5657 83.4583L80.3234 83.1774L80.7625 83.2018L80.7083 83.3844Z" fill="purple" />

<path d="M80.7625 83.2018L80.9503 83.1561L80.9363 83.2454L80.8805 83.2819Z" fill="purple" />

<path d="M80.7371 83.4498L80.7083 83.3844L80.777 83.4109L80.7648 83.439Z" fill="purple" />

<path d="M80.6086 83.569L80.557 83.5787L80.5657 83.4583L80.6325 83.5326Z" fill="purple" />

<path d="M80.1522 83.927L80.0349 83.9632L79.9646 83.6771L80.2069 83.8227Z" fill="purple" />

<path d="M80.2636 83.8766L80.2069 83.8227L80.3049 83.8175L80.294 83.8597Z" fill="purple" />

<path d="M80.1875 83.9678L80.1679 83.9745L80.1522 83.927L80.1966 83.9494Z" fill="purple" />

<path d="M80.0823 84.0341L80.0592 84.0649L80.0098 84.0702L80.0349 83.9632Z" fill="purple" />

<path d="M79.4447 84.3251L79.2517 84.5461L78.8421 84.5471L79.191 83.77Z" fill="purple" />

<path d="M79.6104 84.4313L79.5446 84.4614L79.4447 84.3251L79.6386 84.3525Z" fill="purple" />

<path d="M79.367 84.6256L79.3379 84.6763L79.2781 84.6923L79.2517 84.5461Z" fill="purple" />

<path d="M78.8421 84.5471L78.9517 84.8715L78.833 84.9946L78.5822 84.9782Z" fill="purple" />

<path d="M68.8102 89.0674L64.7444 88.3353L68.3922 80.6537L71.3545 86.8851Z" fill="purple" />

<path d="M72.342 88.6897L71.3546 86.8851L73.7164 87.4872L73.2194 88.4452Z" fill="purple" />

<path d="M73.7164 87.4872L74.8118 87.4146L74.6468 87.9051L74.2953 88.0554Z" fill="purple" />

<path d="M75.409 87.2823L75.3368 87.5749L75.1505 87.6688L74.8118 87.4146Z" fill="purple" />

<path d="M74.6468 87.9051L74.8152 87.9933L74.7733 88.0605L74.7001 88.0773Z" fill="purple" />

<path d="M74.2513 88.3123L74.2953 88.0554L74.4269 88.2359L74.3631 88.3075Z" fill="purple" />

<path d="M73.3064 88.844L73.2194 88.4452L73.5742 88.671L73.474 88.8148Z" fill="purple" />

<path d="M73.5742 88.671L73.729 88.683L73.7011 88.7472L73.6497 88.7654Z" fill="purple" />

<path d="M73.4855 88.8853L73.474 88.8148L73.5323 88.8566L73.5148 88.8807Z" fill="purple" />

<path d="M73.3193 88.9812L73.2557 88.9778L73.3064 88.844L73.356 88.9463Z" fill="purple" />

<path d="M72.4447 89.3565L72.1452 89.3454L72.342 88.6897L72.6227 89.1831Z" fill="purple" />

<path d="M72.6992 89.3161L72.6227 89.1831L72.8015 89.2278L72.7634 89.2983Z" fill="purple" />

<path d="M72.4984 89.4667L72.4508 89.4715L72.4447 89.3565L72.5277 89.4309Z" fill="purple" />

<path d="M72.2061 89.564L72.1227 89.6306L71.979 89.6068L72.1452 89.3454Z" fill="purple" />

<path d="M69.4345 90.6829L68.7462 90.6929L68.8102 89.0674L69.889 90.2012Z" fill="purple" />

<path d="M70.117 90.5789L69.889 90.2012L70.4299 90.3174L70.3082 90.5322Z" fill="purple" />

<path d="M70.4299 90.3174L70.6962 90.3134L70.646 90.43L70.5593 90.4587Z" fill="purple" />

<path d="M70.3223 90.6208L70.3082 90.5322L70.3839 90.5869L70.3594 90.617Z" fill="purple" />

<path d="M70.1336 90.7184L70.0725 90.7135L70.117 90.5789L70.1723 90.6844Z" fill="purple" />

<path d="M69.5621 90.9595L69.4449 90.965L69.4345 90.6829L69.6404 90.8732Z" fill="purple" />

<path d="M69.6817 90.9404L69.6404 90.8732L69.7383 90.8935L69.716 90.9322Z" fill="purple" />

<path d="M69.5846 91.007L69.5645 91.008L69.5621 90.9595L69.598 90.992Z" fill="purple" />

<path d="M69.4709 91.0406L69.4425 91.0624L69.3974 91.0551L69.4449 90.965Z" fill="purple" />

<path d="M68.8865 91.1501L68.7116 91.2784L68.4375 91.2255L68.7462 90.6929Z" fill="purple" />

<path d="M68.9916 91.2607L68.9364 91.2699L68.8865 91.1501L69.0292 91.2064Z" fill="purple" />

<path d="M68.7777 91.3534L68.7482 91.3827L68.7048 91.3826L68.7116 91.2784Z" fill="purple" />

<path d="M68.4375 91.2255L68.4652 91.4441L68.3754 91.5005L68.2323 91.4581Z" fill="purple" />

<path d="M65.0294 91.552L63.619 92.2905L61.6065 91.4516L64.7444 88.3353Z" fill="purple" />

<path d="M65.6789 92.4155L65.2797 92.4437L65.0294 91.552L65.9759 92.0591Z" fill="purple" />

<path d="M66.1624 92.3472L65.9759 92.0591L66.4305 92.1336L66.3192 92.3169Z" fill="purple" />

<path d="M65.7554 92.5937L65.6819 92.5923L65.6789 92.4155L65.8096 92.5413Z" fill="purple" />

<path d="M65.3604 92.6822L65.2689 92.7435L65.1382 92.7148L65.2797 92.4437Z" fill="purple" />

<path d="M64.0383 92.9288L63.7851 93.1257L63.4485 93.0807L63.619 92.2905Z" fill="purple" />

<path d="M64.2119 93.116L64.1185 93.1245L64.0383 92.9288L64.2844 93.0241Z" fill="purple" />

<path d="M63.8709 93.2317L63.8275 93.268L63.7705 93.2627L63.7851 93.1257Z" fill="purple" />

<path d="M63.4485 93.0807L63.4857 93.3158L63.3909 93.3677L63.258 93.3234Z" fill="purple" />

<path d="M61.6065 91.4516L61.4365 93.2596L60.5793 93.5866L59.423 92.9269Z" fill="purple" />

<path d="M61.9236 93.6012L61.741 93.7786L61.519 93.7722L61.4365 93.2596Z" fill="purple" />

<path d="M60.5793 93.5866L60.7882 93.9828L60.6311 94.0856L60.4349 94.0432Z" fill="purple" />

<path d="M57.8847 93.7241L59.423 92.9269L59.1914 94.0555L58.6228 94.2267Z" fill="purple" />

</g>

</svg>

