<?xml version="1.0" standalone="no"?>
<!DOCTYPE svg PUBLIC "-//W3C//DTD SVG 1.1//EN" "http://www.w3.org/Graphics/SVG/1.1/DTD/svg11.dtd">

<svg style="stroke-linejoin:round; stroke:black; stroke-width:0.5pt; text-anchor:middle; fill:none" xmlns="http://www.w3.org/2000/svg" font-family="Helvetica, Arial, FreeSans, Sans, sans, sans-serif" height="400px" width="400px" version="1.1" xmlns:xlink="http://www.w3.org/1999/xlink" viewBox="0 0 100 100">

<g>

<g>

<path stroke-width="0.25pt" d="M7.25 73.25L7.25 71.75M9.5 73.25L9.5 71.75M11.75 73.25L11.75 71.75M14 73.25L14 71.75M18.5 73.25L18.5 71.75M20.75 73.25L20.75 71.75M23 73.25L23 71.75M25.25 73.25L25.25 71.75M29.75 73.25L29.75 71.75M32 73.25L32 71.75M34.25 73.25L34.25 71.75M36.5 73.25L36.5 71.75M41 73.25L41 71.75M43.25 73.25L43.25 71.75M45.5 73.25L45.5 71.75M47.75 73.25L47.75 71.75M52.25 73.25L52.25 71.75M54.5 73.25L54.5 71.75M56.75 73.25L56.75 71.75M59 73.25L59 71.75M63.5 73.25L63.5 71.75M65.75 73.25L65.75 71.75M68 73.25L68 71.75M70.25 73.25L70.25 71.75M74.75 73.25L74.75 71.75M77 73.25L77 71.75M79.25 73.25L79.25 71.75M81.5 73.25L81.5 71.75M86 73.25L86 71.75M88.25 73.25L88.25 71.75M90.5 73.25L90.5 71.75M92.75 73.25L92.75 71.75" />

<path stroke-width="0.25pt" d="M16.25 74L16.25 71M38.75 74L38.75 71M95 74L95 71M61.25 74L61.25 71M72.5 74L72.5 71M27.5 74L27.5 71M50 74L50 71M5 74L5 71M83.75 74L83.75 71" />

<text font-size="5" transform="translate(16.25, 73.5) rotate(0)" stroke="none" dominant-baseline="text-before-edge" fill="black">–1.5</text>

<text font-size="5" transform="translate(95, 73.5) rotate(0)" stroke="none" dominant-baseline="text-before-edge" fill="black">2</text>

<text font-size="5" transform="translate(72.5, 73.5) rotate(0)" stroke="none" dominant-baseline="text-before-edge" fill="black">1</text>

<text font-size="5" transform="translate(27.5, 73.5) rotate(0)" stroke="none" dominant-baseline="text-before-edge" fill="black">–1</text>

<text font-size="5" transform="translate(5, 73.5) rotate(0)" stroke="none" dominant-baseline="text-before-edge" fill="black">–2</text>

<text font-size="5" transform="translate(83.75, 73.5) rotate(0)" stroke="none" dominant-baseline="text-before-edge" fill="black">1.5</text>

<path stroke-width="0.25pt" d="M5 72.5L95 72.5" />

<path stroke-width="0.25pt" d="M50.75 83.75L49.25 83.75M50.75 61.25L49.25 61.25M50.75 38.75L49.25 38.75M50.75 16.25L49.25 16.25" />

<path stroke-width="0.25pt" d="M51.5 72.5L48.5 72.5M51.5 50L48.5 50M51.5 27.5L48.5 27.5M51.5 95L48.5 95M51.5 5L48.5 5" />

<text font-size="5" transform="translate(47.5, 50) rotate(0)" text-anchor="end" stroke="none" dominant-baseline="middle" fill="black">2</text>

<text font-size="5" transform="translate(47.5, 27.5) rotate(0)" text-anchor="end" stroke="none" dominant-baseline="middle" fill="black">4</text>

<text font-size="5" transform="translate(47.5, 95) rotate(0)" text-anchor="end" stroke="none" dominant-baseline="middle" fill="black">–2</text>

<text font-size="5" transform="translate(47.5, 5) rotate(0)" text-anchor="end" stroke="none" dominant-baseline="middle" fill="black">6</text>

<path stroke-width="0.25pt" d="M50 95L50 5" />

</g>

<path d="M5 27.5L9.7636 36.5229L15.1773 45.5529L20.3397 52.9504L23.2949 56.652L27.5618 61.3117L30.042 63.6484L34.392 67.0865L36.6432 68.5355L39.4864 70.0437L41.9741 71.0685L45.0103 71.9467L47.0297 72.3039L49.3715 72.4912L52.1561 72.3967L54.6245 72.0248L57.8158 71.1425L60.2055 70.1855L63.5949 68.3928L66.8383 66.1993L70.0266 63.5875L72.0372 61.708L74.8736 58.7512L77.601 55.5708L81.2869 50.7474L86.2577 43.2862L91.7588 33.7489L95 27.5" />

</g>

</svg>

