<?xml version="1.0" standalone="no"?>
<!DOCTYPE svg PUBLIC "-//W3C//DTD SVG 1.1//EN" "http://www.w3.org/Graphics/SVG/1.1/DTD/svg11.dtd">

<svg style="stroke:black; fill:none; stroke-width:0.5pt; stroke-linejoin:round; text-anchor:middle" xmlns="http://www.w3.org/2000/svg" font-family="Helvetica,Arial,FreeSans,Sans,sans,sans-serif" height="400px" width="400px" version="1.1" xmlns:xlink="http://www.w3.org/1999/xlink" viewBox="0 0 100 100">

<g>

<g>

<path stroke-width="0.25pt" d="M21.875 5.75L21.875 5M23.75 5.75L23.75 5M25.625 5.75L25.625 5M27.5 5.75L27.5 5M31.25 5.75L31.25 5M33.125 5.75L33.125 5M35 5.75L35 5M36.875 5.75L36.875 5M40.625 5.75L40.625 5M42.5 5.75L42.5 5M44.375 5.75L44.375 5M46.25 5.75L46.25 5M50 5.75L50 5M51.875 5.75L51.875 5M53.75 5.75L53.75 5M55.625 5.75L55.625 5M59.375 5.75L59.375 5M61.25 5.75L61.25 5M63.125 5.75L63.125 5M65 5.75L65 5M68.75 5.75L68.75 5M70.625 5.75L70.625 5M72.5 5.75L72.5 5M74.375 5.75L74.375 5M78.125 5.75L78.125 5M80 5.75L80 5M81.875 5.75L81.875 5M83.75 5.75L83.75 5M87.5 5.75L87.5 5M89.375 5.75L89.375 5M91.25 5.75L91.25 5M93.125 5.75L93.125 5" />

<path stroke-width="0.25pt" d="M29.375 6.5L29.375 5M48.125 6.5L48.125 5M95 6.5L95 5M66.875 6.5L66.875 5M76.25 6.5L76.25 5M20 6.5L20 5M85.625 6.5L85.625 5M38.75 6.5L38.75 5M57.5 6.5L57.5 5" />

<path stroke-width="0.25pt" d="M20 5L95 5" />

</g>

<g>

<path stroke-width="0.25pt" d="M95 84L94.25 84M95 83L94.25 83M95 82L94.25 82M95 81L94.25 81M95 80L94.25 80M95 79L94.25 79M95 78L94.25 78M95 77L94.25 77M95 76L94.25 76M95 74L94.25 74M95 73L94.25 73M95 72L94.25 72M95 71L94.25 71M95 70L94.25 70M95 69L94.25 69M95 68L94.25 68M95 67L94.25 67M95 66L94.25 66M95 64L94.25 64M95 63L94.25 63M95 62L94.25 62M95 61L94.25 61M95 60L94.25 60M95 59L94.25 59M95 58L94.25 58M95 57L94.25 57M95 56L94.25 56M95 54L94.25 54M95 53L94.25 53M95 52L94.25 52M95 51L94.25 51M95 50L94.25 50M95 49L94.25 49M95 48L94.25 48M95 47L94.25 47M95 46L94.25 46M95 44L94.25 44M95 43L94.25 43M95 42L94.25 42M95 41L94.25 41M95 40L94.25 40M95 39L94.25 39M95 38L94.25 38M95 37L94.25 37M95 36L94.25 36M95 34L94.25 34M95 33L94.25 33M95 32L94.25 32M95 31L94.25 31M95 30L94.25 30M95 29L94.25 29M95 28L94.25 28M95 27L94.25 27M95 26L94.25 26M95 24L94.25 24M95 23L94.25 23M95 22L94.25 22M95 21L94.25 21M95 20L94.25 20M95 19L94.25 19M95 18L94.25 18M95 17L94.25 17M95 16L94.25 16M95 14L94.25 14M95 13L94.25 13M95 12L94.25 12M95 11L94.25 11M95 10L94.25 10M95 9L94.25 9M95 8L94.25 8M95 7L94.25 7M95 6L94.25 6" />

<path stroke-width="0.25pt" d="M95 65L93.5 65M95 55L93.5 55M95 45L93.5 45M95 35L93.5 35M95 25L93.5 25M95 15L93.5 15M95 5L93.5 5M95 85L93.5 85M95 75L93.5 75" />

<path stroke-width="0.25pt" d="M95 85L95 5" />

</g>

<g>

<path stroke-width="0.25pt" d="M21.875 85L21.875 84.25M23.75 85L23.75 84.25M25.625 85L25.625 84.25M27.5 85L27.5 84.25M31.25 85L31.25 84.25M33.125 85L33.125 84.25M35 85L35 84.25M36.875 85L36.875 84.25M40.625 85L40.625 84.25M42.5 85L42.5 84.25M44.375 85L44.375 84.25M46.25 85L46.25 84.25M50 85L50 84.25M51.875 85L51.875 84.25M53.75 85L53.75 84.25M55.625 85L55.625 84.25M59.375 85L59.375 84.25M61.25 85L61.25 84.25M63.125 85L63.125 84.25M65 85L65 84.25M68.75 85L68.75 84.25M70.625 85L70.625 84.25M72.5 85L72.5 84.25M74.375 85L74.375 84.25M78.125 85L78.125 84.25M80 85L80 84.25M81.875 85L81.875 84.25M83.75 85L83.75 84.25M87.5 85L87.5 84.25M89.375 85L89.375 84.25M91.25 85L91.25 84.25M93.125 85L93.125 84.25" />

<path stroke-width="0.25pt" d="M29.375 85L29.375 83.5M48.125 85L48.125 83.5M95 85L95 83.5M66.875 85L66.875 83.5M76.25 85L76.25 83.5M20 85L20 83.5M85.625 85L85.625 83.5M38.75 85L38.75 83.5M57.5 85L57.5 83.5" />

<text font-size="5" transform="translate(29.375, 91) rotate(0)" stroke="none" dominant-baseline="text-before-edge" fill="black">–1.5</text>

<text font-size="5" transform="translate(48.125, 91) rotate(0)" stroke="none" dominant-baseline="text-before-edge" fill="black">–0.5</text>

<text font-size="5" transform="translate(95, 91) rotate(0)" stroke="none" dominant-baseline="text-before-edge" fill="black">2</text>

<text font-size="5" transform="translate(66.875, 91) rotate(0)" stroke="none" dominant-baseline="text-before-edge" fill="black">0.5</text>

<text font-size="5" transform="translate(76.25, 91) rotate(0)" stroke="none" dominant-baseline="text-before-edge" fill="black">1</text>

<text font-size="5" transform="translate(20, 91) rotate(0)" stroke="none" dominant-baseline="text-before-edge" fill="black">–2</text>

<text font-size="5" transform="translate(85.625, 91) rotate(0)" stroke="none" dominant-baseline="text-before-edge" fill="black">1.5</text>

<text font-size="5" transform="translate(38.75, 91) rotate(0)" stroke="none" dominant-baseline="text-before-edge" fill="black">–1</text>

<text font-size="5" transform="translate(57.5, 91) rotate(0)" stroke="none" dominant-baseline="text-before-edge" fill="black">0</text>

<path stroke-width="0.25pt" d="M20 85L95 85" />

</g>

<g>

<path stroke-width="0.25pt" d="M20.75 84L20 84M20.75 83L20 83M20.75 82L20 82M20.75 81L20 81M20.75 80L20 80M20.75 79L20 79M20.75 78L20 78M20.75 77L20 77M20.75 76L20 76M20.75 74L20 74M20.75 73L20 73M20.75 72L20 72M20.75 71L20 71M20.75 70L20 70M20.75 69L20 69M20.75 68L20 68M20.75 67L20 67M20.75 66L20 66M20.75 64L20 64M20.75 63L20 63M20.75 62L20 62M20.75 61L20 61M20.75 60L20 60M20.75 59L20 59M20.75 58L20 58M20.75 57L20 57M20.75 56L20 56M20.75 54L20 54M20.75 53L20 53M20.75 52L20 52M20.75 51L20 51M20.75 50L20 50M20.75 49L20 49M20.75 48L20 48M20.75 47L20 47M20.75 46L20 46M20.75 44L20 44M20.75 43L20 43M20.75 42L20 42M20.75 41L20 41M20.75 40L20 40M20.75 39L20 39M20.75 38L20 38M20.75 37L20 37M20.75 36L20 36M20.75 34L20 34M20.75 33L20 33M20.75 32L20 32M20.75 31L20 31M20.75 30L20 30M20.75 29L20 29M20.75 28L20 28M20.75 27L20 27M20.75 26L20 26M20.75 24L20 24M20.75 23L20 23M20.75 22L20 22M20.75 21L20 21M20.75 20L20 20M20.75 19L20 19M20.75 18L20 18M20.75 17L20 17M20.75 16L20 16M20.75 14L20 14M20.75 13L20 13M20.75 12L20 12M20.75 11L20 11M20.75 10L20 10M20.75 9L20 9M20.75 8L20 8M20.75 7L20 7M20.75 6L20 6" />

<path stroke-width="0.25pt" d="M21.5 65L20 65M21.5 55L20 55M21.5 45L20 45M21.5 35L20 35M21.5 25L20 25M21.5 15L20 15M21.5 5L20 5M21.5 85L20 85M21.5 75L20 75" />

<text font-size="5" transform="translate(18, 67) rotate(0)" text-anchor="end" stroke="none" dominant-baseline="middle" fill="black">0</text>

<text font-size="5" transform="translate(18, 57) rotate(0)" text-anchor="end" stroke="none" dominant-baseline="middle" fill="black">1</text>

<text font-size="5" transform="translate(18, 47) rotate(0)" text-anchor="end" stroke="none" dominant-baseline="middle" fill="black">2</text>

<text font-size="5" transform="translate(18, 37) rotate(0)" text-anchor="end" stroke="none" dominant-baseline="middle" fill="black">3</text>

<text font-size="5" transform="translate(18, 27) rotate(0)" text-anchor="end" stroke="none" dominant-baseline="middle" fill="black">4</text>

<text font-size="5" transform="translate(18, 17) rotate(0)" text-anchor="end" stroke="none" dominant-baseline="middle" fill="black">5</text>

<text font-size="5" transform="translate(18, 7) rotate(0)" text-anchor="end" stroke="none" dominant-baseline="middle" fill="black">6</text>

<text font-size="5" transform="translate(18, 87) rotate(0)" text-anchor="end" stroke="none" dominant-baseline="middle" fill="black">–2</text>

<text font-size="5" transform="translate(18, 77) rotate(0)" text-anchor="end" stroke="none" dominant-baseline="middle" fill="black">–1</text>

<path stroke-width="0.25pt" d="M20 85L20 5" />

</g>

<path d="M20 25L22.8531 30.855L27.8555 40.0031L31.8912 46.3458L35.4267 51.141L38.7328 54.9816L41.9557 58.1271L43.7201 59.5988L46.462 61.5344L49.1659 63.0243L51.577 64.0021L53.2354 64.4827L55.0752 64.8328L57.1329 64.9962L59.9345 64.8314L62.0462 64.4121L64.661 63.5414L66.4804 62.706L69.2447 61.0765L71.8741 59.123L74.2608 57.0092L77.0015 54.1824L80.9329 49.3811L83.9139 45.1545L88.8607 37.0251L93.6353 27.8583L95 25" />

</g>

</svg>

