<?xml version="1.0" standalone="no"?>
<!DOCTYPE svg PUBLIC "-//W3C//DTD SVG 1.1//EN" "http://www.w3.org/Graphics/SVG/1.1/DTD/svg11.dtd">

<svg style="stroke:black; fill:none; stroke-width:0.5pt; stroke-linejoin:round; text-anchor:middle" xmlns="http://www.w3.org/2000/svg" height="400px" width="400px" version="1.1" xmlns:xlink="http://www.w3.org/1999/xlink" font-family="Helvetica,Arial,FreeSans,Sans,sans,sans-serif" viewBox="0 0 200 100">

<g>

<path stroke="none" d="M31.4607 34.8397L29.5356 34.4363L29.845 35.5948L30.0649 36.7887C29.019 36.145 27.9506 35.5421 26.8754 34.984C25.7831 34.4157 24.6914 33.8929 23.616 33.4207C22.5302 32.9392 21.4673 32.51 20.4423 32.1393C19.4129 31.7615 18.4269 31.4449 17.4983 31.1967C15.785 30.7289 14.5083 30.5825 13.6677 30.7507C12.8275 30.9333 12.4034 31.4514 12.3679 32.2848C12.2942 33.1465 12.5569 34.3282 13.1146 35.7931C13.5701 37.2819 14.2521 39.0394 15.1211 41.0114C15.4462 41.8713 15.761 42.6815 16.0761 43.4459C16.3656 44.2083 16.6616 44.923 16.9733 45.5939C17.2652 46.261 17.5779 46.8829 17.9192 47.4633C18.2455 48.0388 18.6046 48.5718 19.0031 49.0663C19.3905 49.5549 19.8206 50.0043 20.299 50.4185C20.7694 50.8263 21.2908 51.1985 21.8679 51.5392C22.4394 51.8732 23.0686 52.1755 23.7597 52.4503C24.447 52.7184 25.1977 52.9589 26.0156 53.176L27.0702 53.4396L28.121 53.693L29.1681 53.9367L30.2117 54.171C31.0214 54.351 31.6464 54.4871 32.1406 54.6018C32.634 54.7142 32.9972 54.8071 33.2832 54.9001C33.5686 54.9921 33.7768 55.0848 33.96 55.1967C34.1424 55.3078 34.2992 55.438 34.4818 55.6049C34.7389 55.8426 34.9396 56.1106 35.0819 56.406C35.2186 56.699 35.2947 57.0199 35.3083 57.3663C35.314 57.7107 35.2549 58.0814 35.1291 58.4762C34.993 58.87 34.7875 59.2888 34.5108 59.731C34.2137 60.1845 33.8708 60.6253 33.4828 61.0549C33.0827 61.4857 32.6388 61.9064 32.1515 62.3184C31.6531 62.7327 31.1124 63.1392 30.5296 63.5396C29.9366 63.943 29.3025 64.3412 28.6271 64.7354C25.5784 66.4848 23.3016 67.4292 20.4188 68.1531C19.4491 68.4049 18.6264 68.5669 17.9448 68.634C17.2649 68.7004 16.726 68.6674 16.3193 68.5303C15.9119 68.3882 15.6323 68.1383 15.4683 67.7758C15.2967 67.4048 15.2312 66.9177 15.2558 66.31C15.2665 65.7488 15.3253 65.1627 15.4386 64.5278C15.5311 63.8846 15.6726 63.1939 15.8643 62.4308C16.0274 61.6602 16.2308 60.818 16.4687 59.8779C16.6649 58.931 16.8793 57.8867 17.0963 56.7179L15.0665 56.9394L14.2912 59.213L13.2912 61.485L12.0667 63.7552L10.6178 66.0238L8.94463 68.2906L7.04748 70.5557L4.92646 72.8191L2.58177 75.0808L4.67803 74.3536L5.55299 73.7267L6.41208 73.1046L7.25541 72.4874L8.0831 71.8749L8.89525 71.2673L9.69197 70.6644L10.4734 70.0663L11.2396 69.4728C11.335 70.0402 11.505 70.4733 11.7795 70.7811C12.049 71.0787 12.432 71.2569 12.9535 71.3224C13.4762 71.3833 14.1408 71.3366 14.9688 71.1883C15.7992 71.0406 16.7922 70.7966 17.9668 70.4626C18.9592 70.1855 19.9857 69.8584 21.0347 69.4879C22.0795 69.1243 23.1422 68.7191 24.2105 68.2779C25.2699 67.8448 26.3299 67.3765 27.3787 66.8777C28.4137 66.3871 29.4323 65.866 30.423 65.3184C31.3951 64.7785 32.3346 64.2112 33.2302 63.6201C34.1029 63.0354 34.9271 62.4255 35.6925 61.793C36.4307 61.1653 37.1056 60.5132 37.7074 59.8389C38.2777 59.1673 38.7704 58.4711 39.1761 57.752C39.5195 57.0865 39.7586 56.4511 39.8981 55.8478C40.0123 55.2424 40.0322 54.6673 39.9627 54.1251C39.8727 53.579 39.6982 53.0644 39.4442 52.5845C39.1743 52.0995 38.8295 51.6481 38.415 51.2342C38.1209 50.9477 37.7853 50.6842 37.3884 50.4353C36.9873 50.1833 36.5261 49.9453 35.9839 49.7123C35.4383 49.4753 34.8121 49.2424 34.084 49.0034C33.3524 48.7592 32.5185 48.5071 31.5601 48.2361L30.2711 47.8581L28.9738 47.4655L27.6681 47.0577L26.3534 46.6343C25.2515 46.2624 24.2685 45.8323 23.3962 45.3387C22.512 44.8333 21.7324 44.2653 21.0472 43.6303C20.3428 42.9853 19.7249 42.2763 19.1811 41.5004C18.609 40.7183 18.1013 39.8744 17.6435 38.967C17.0699 37.9258 16.6697 37.0014 16.451 36.2199C16.2018 35.4466 16.1549 34.8211 16.3187 34.3636C16.4712 33.9158 16.8502 33.6346 17.4603 33.534C18.0707 33.4386 18.9183 33.5165 19.9995 33.7771C20.8898 33.9882 21.8254 34.2842 22.797 34.6591C23.7632 35.0269 24.7586 35.4702 25.7719 35.9843C26.7721 36.4889 27.781 37.0622 28.786 37.7003C29.7681 38.328 30.7354 39.0197 31.6741 39.7727C32.3309 40.3081 32.9386 40.8365 33.5053 41.3651C34.0546 41.8892 34.5624 42.4143 35.0355 42.9473C35.4904 43.4766 35.9093 44.0145 36.2974 44.5673C36.6658 45.1171 37.0009 45.6823 37.3069 46.2693L38.3169 46.3258L39.3269 46.3811L39.0986 45.6654L38.8355 44.949L38.5374 44.2318L38.2044 43.5139L37.8363 42.7953L37.4332 42.0758L36.995 41.3557L36.5215 40.6347L36.0128 39.913L35.4688 39.1905L34.8895 38.4673L34.2748 37.7433L33.6246 37.0186L32.9389 36.2931L32.2176 35.5668L31.4607 34.8397" fill="black" />

<path stroke="none" d="M55.7884 60.5959L56.417 59.1221L56.8831 57.6328L57.1803 56.1275L57.3021 54.6055L57.2422 53.0662L56.994 51.509L56.5513 49.9334L55.9075 48.3386L55.0563 46.7241L53.9912 45.0893L52.7058 43.4336L51.1938 41.7564L49.4486 40.0569L47.4639 38.3348L45.2333 36.5892L42.7503 34.8198C41.6346 34.0793 40.5856 33.3543 40.1294 33.0061C39.7811 32.7449 39.5421 32.5347 39.4199 32.3739C39.2961 32.2136 39.2919 32.1028 39.4136 32.0398C39.5356 31.977 39.7848 31.9615 40.1662 31.9908C40.5485 32.0195 41.0629 32.0919 41.7137 32.205L44.0276 32.5897L43.5757 32.2678L43.1157 31.946L42.6473 31.6241L42.1707 31.3022L41.6859 30.9804L41.1927 30.6585L40.6913 30.3366L40.1815 30.0147L38.9842 29.8033L37.7869 29.5845L36.5897 29.3583L35.3924 29.1247L34.1951 28.8837L32.9978 28.6353L31.8005 28.3795L30.6032 28.1162L29.4059 27.8456L28.2086 27.5676L27.0114 27.2822L25.8141 26.9893L24.6168 26.6891L23.4195 26.3815L22.2222 26.0664L21.0249 25.744L22.3274 26.5253L23.5873 27.3066L24.8046 28.0879L25.9791 28.8692L27.1361 29.1573C27.7869 29.3163 28.3814 29.4858 28.9911 29.7006C29.5981 29.9132 30.2164 30.1706 30.9137 30.5067C31.6029 30.8402 32.3629 31.2518 33.2538 31.7741C34.1245 32.2933 35.1088 32.9221 36.2539 33.6914L39.8336 36.3014L42.906 38.8585L45.4875 41.3642L47.5946 43.8203L49.2438 46.2283L50.4516 48.5897L51.2345 50.9062L51.609 53.1793L51.5915 55.4106L51.1987 57.6018L50.4469 59.7544L49.3527 61.8699L47.9325 63.9501L46.2028 65.9964L44.1802 68.0104L41.8811 69.9938L44.3614 69.6051L48.123 67.5375L51.5054 65.4994L54.5217 63.4895L57.1849 61.5068L59.5082 59.5498L61.5045 57.6175L63.187 55.7086L64.5688 53.8218L65.6628 51.956L66.4822 50.11L67.0401 48.2824L67.3495 46.472L67.4235 44.6778L67.2752 42.8983L66.9176 41.1325L66.3638 39.379C65.9934 38.4592 65.7037 37.7153 65.5298 37.1196C65.3393 36.5253 65.2876 36.078 65.3951 35.7507C65.5018 35.4235 65.7765 35.2151 66.231 35.0981C66.6885 34.9799 67.3256 34.9513 68.1499 34.9845L68.7284 35.0057L68.1761 34.4513L67.6038 33.8969L67.0114 33.3424L66.399 32.788L64.3191 32.6976L62.2392 32.5849L60.1593 32.4498L58.0794 32.2924L55.9995 32.1127L53.9196 31.9106L51.8397 31.6862L49.7598 31.4394L50.6253 32.0373L51.4624 32.6351L52.2712 33.233L53.0517 33.8309L54.1508 33.9538C54.8884 34.0329 55.6276 34.164 56.3491 34.3403C57.0663 34.514 57.7617 34.7332 58.4172 34.9916C59.0645 35.2482 59.6688 35.5447 60.2132 35.8749C60.7471 36.2041 61.2192 36.568 61.6144 36.9605C62.2777 37.6474 63.0272 38.7578 63.4338 39.668L63.8872 40.9069L64.2363 42.1532L64.4769 43.4073L64.6048 44.6696L64.6155 45.9404L64.505 47.2202L64.2689 48.5094L63.9029 49.8083L63.4028 51.1173L62.7643 52.4367L61.9832 53.7671L61.0551 55.1088L59.9759 56.4621L58.7412 57.8275L57.3468 59.2053L55.7884 60.5959" fill="black" />

<path stroke="none" d="M100.324 38.2353L98.3302 38.4191L97.9006 38.9573L97.4767 39.4907L97.0578 40.0194L96.6435 40.5435C95.7435 40.1837 94.9105 39.8906 94.1071 39.6569C93.2941 39.4234 92.5154 39.2479 91.7312 39.1233C90.9413 38.9976 90.1494 38.9216 89.3139 38.8879C88.4758 38.8518 87.5968 38.8566 86.6344 38.8942C85.5929 38.9302 84.6266 39.0015 83.7244 39.1122C82.8253 39.2185 81.9927 39.3648 81.2149 39.5549C80.4419 39.7414 79.7246 39.9723 79.0504 40.2514C78.3808 40.5276 77.7535 40.8526 77.1545 41.23C76.6851 41.5247 76.263 41.8289 75.8866 42.1437C75.5092 42.4581 75.1755 42.7837 74.8839 43.1215C74.5889 43.4594 74.3337 43.8097 74.1165 44.1735C73.8934 44.5378 73.7061 44.9157 73.5525 45.3079C73.3903 45.7008 73.2594 46.1081 73.1578 46.5305C73.0449 46.9536 72.9587 47.3917 72.897 47.8455C72.7316 48.7547 72.6494 49.7254 72.6315 50.7622C72.605 51.1538 72.5905 51.5372 72.5885 51.9119C72.5768 52.2865 72.5787 52.6523 72.5949 53.0092C72.6025 53.3657 72.6256 53.7132 72.6649 54.0513C72.6969 54.389 72.7463 54.7173 72.8139 55.036C72.8755 55.3543 72.9564 55.6629 73.0576 55.9617C73.1541 56.2601 73.2719 56.5487 73.4118 56.8274C73.5484 57.1058 73.7082 57.3743 73.892 57.6328C74.0738 57.8913 74.2805 58.1398 74.5128 58.3785C74.7592 58.6356 75.036 58.8788 75.3419 59.1075C75.648 59.3366 75.9844 59.5515 76.3492 59.7517C76.7153 59.9527 77.1107 60.1393 77.5334 60.311C77.9582 60.4838 78.4106 60.6421 78.8888 60.7852C79.3692 60.9297 79.8752 61.0593 80.4045 61.1735C80.936 61.2894 81.4904 61.3901 82.0651 61.4748C82.6416 61.5613 83.2377 61.6321 83.8506 61.6863C84.4645 61.7424 85.0942 61.782 85.7368 61.8041C86.8612 61.8475 87.9221 61.8431 88.9445 61.7841C89.962 61.7286 90.9361 61.6164 91.8909 61.4412C92.8361 61.2674 93.7571 61.0287 94.6768 60.719C95.5822 60.4083 96.4811 60.0245 97.3952 59.5612L98.117 61.0893L98.8604 62.6427L101.108 62.8716L101.205 61.9565L101.296 61.0414L101.379 60.1263L101.455 59.2112L101.523 58.2961L101.585 57.381L101.639 56.4659L101.686 55.5509C101.707 55.1016 101.721 54.7626 101.736 54.5034C101.75 54.2441 101.766 54.0645 101.788 53.9341C101.81 53.8037 101.839 53.7224 101.881 53.6598C101.923 53.5971 101.977 53.5531 102.05 53.4971C102.158 53.4172 102.301 53.3507 102.495 53.2973C102.688 53.2437 102.932 53.2031 103.242 53.1749C103.551 53.1467 103.927 53.1311 104.384 53.1278C104.84 53.1245 105.378 53.1339 106.013 53.1555L106.719 53.1803L106.719 51.5343L105.79 51.5186L104.86 51.5034L103.931 51.4889L103.002 51.4749L102.073 51.4616L101.143 51.4488L100.214 51.4366L99.2848 51.425L98.3556 51.414L97.4264 51.4036L96.4971 51.3938L95.5679 51.3846L94.6386 51.376L93.7094 51.368L92.7801 51.3606L91.8509 51.3537L91.7592 52.806L92.653 52.8195C93.147 52.8275 93.5842 52.8372 93.9708 52.8516C94.3575 52.8662 94.6937 52.8853 94.9856 52.9118C95.2776 52.9385 95.5254 52.9726 95.7353 53.0168C95.9452 53.0613 96.1171 53.1159 96.2573 53.1837C96.3975 53.2517 96.5059 53.3327 96.5888 53.4298C96.6715 53.527 96.7285 53.6402 96.7659 53.7723C96.8031 53.9045 96.8205 54.0556 96.824 54.2285C96.8271 54.4015 96.816 54.5963 96.7968 54.8158C96.6566 56.1889 96.1015 57.4454 95.389 58.1762C95.2001 58.3617 94.9803 58.5379 94.7335 58.7036C94.4848 58.8689 94.2089 59.024 93.9098 59.1677C93.6087 59.3112 93.2844 59.4434 92.941 59.5636C92.5955 59.6837 92.2311 59.7919 91.852 59.8873C91.471 59.9829 91.0756 60.0658 90.6701 60.1353C90.2631 60.2051 89.8464 60.2617 89.4246 60.3043C89.0017 60.3473 88.5743 60.3764 88.1467 60.3907C87.7186 60.4058 87.2911 60.4062 86.8688 60.3911C86.4529 60.377 86.0427 60.3479 85.6412 60.305C85.2401 60.2629 84.8483 60.207 84.4686 60.1383C84.0898 60.0704 83.7235 59.9898 83.3727 59.8974C83.0227 59.8057 82.6884 59.7021 82.3724 59.5877C82.0574 59.4739 81.7606 59.3492 81.4848 59.2143C81.2098 59.08 80.9554 58.9355 80.7243 58.7816C80.4937 58.6281 80.2859 58.4652 80.1033 58.2937C79.9207 58.1225 79.7629 57.9425 79.6321 57.7548C79.4899 57.5484 79.3662 57.3346 79.2603 57.1122C79.153 56.8899 79.0629 56.6588 78.9897 56.4179C78.9141 56.177 78.8545 55.9261 78.8102 55.6641C78.7627 55.4021 78.7296 55.1289 78.7102 54.8434C78.6865 54.5578 78.6755 54.2599 78.676 53.9484C78.6712 53.6369 78.6767 53.3119 78.6915 52.9721C78.6997 52.6323 78.7157 52.2779 78.7383 51.9075C78.7527 51.5372 78.7722 51.151 78.7952 50.7479C78.8088 50.3278 78.8253 49.9199 78.8456 49.5244C78.8565 49.129 78.8724 48.7459 78.8942 48.3754C78.9079 48.005 78.9287 47.6471 78.9574 47.3019C78.9793 46.9567 79.0104 46.6242 79.0514 46.3045C79.087 45.9849 79.1337 45.6781 79.1922 45.3841C79.2465 45.0902 79.3138 44.8091 79.3948 44.541C79.4726 44.2729 79.5652 44.0177 79.673 43.7755C79.7787 43.5332 79.9006 43.3038 80.0392 43.0875C80.1765 42.871 80.3313 42.6674 80.504 42.4768C80.6762 42.2861 80.8668 42.1082 81.0762 41.9433C81.2857 41.7781 81.5143 41.6257 81.7624 41.4863C82.011 41.3465 82.2793 41.2195 82.5672 41.1055C82.856 40.9909 83.1645 40.8891 83.4929 40.8002C83.8221 40.7106 84.171 40.6339 84.5396 40.57C84.9088 40.5054 85.2974 40.4536 85.7052 40.4147C86.1133 40.375 86.5403 40.3481 86.9857 40.3342C87.351 40.3221 87.7127 40.3195 88.0706 40.3265C88.4282 40.333 88.7817 40.3491 89.1309 40.3749C89.4796 40.4003 89.8236 40.4355 90.1628 40.4805C90.5012 40.5253 90.8345 40.5799 91.1625 40.6445C91.4894 40.709 91.8108 40.7836 92.1263 40.8682C92.4406 40.9528 92.7489 41.0477 93.051 41.1527C93.3516 41.2579 93.6458 41.3734 93.9333 41.4992C94.2193 41.6253 94.4984 41.7618 94.7706 41.9088C95.0411 42.0562 95.3044 42.214 95.5605 42.3825C95.8147 42.5514 96.0616 42.7309 96.3009 42.9211C96.5383 43.1118 96.7682 43.3132 96.9902 43.5254C97.2103 43.7381 97.4226 43.9617 97.627 44.196C97.8295 44.4309 98.024 44.6766 98.2104 44.9332C98.3949 45.1904 98.5713 45.4585 98.7395 45.7374C98.9059 46.0169 99.0641 46.3073 99.214 46.6085C99.362 46.9104 99.5018 47.2231 99.6333 47.5465L101.651 47.5013L101.595 46.9189L101.537 46.3369L101.474 45.7554L101.409 45.1743L101.339 44.5936L101.267 44.0134L101.19 43.4336L101.11 42.8543L101.026 42.2754L100.938 41.6969L100.846 41.1189L100.75 40.5413L100.65 39.9642L100.545 39.3875L100.437 38.8112L100.324 38.2353M139.604 31.3528L138.632 31.6105L137.661 31.864L136.69 32.1133L135.718 32.3585L134.747 32.5996L133.775 32.8365L132.804 33.0693L131.833 33.298L130.861 33.5225L129.89 33.7429L128.918 33.9591L127.947 34.1712L126.976 34.3791L126.004 34.5829L125.033 34.7826L124.061 34.9781L123.09 35.1695L122.119 35.3567L121.147 35.5399L120.176 35.7188L119.204 35.8936L118.233 36.0643L117.262 36.2308L116.29 36.3932L115.319 36.5515L114.348 36.7056L113.376 36.8556L112.405 37.0014L111.433 37.1431L110.462 37.2807L109.491 37.4141L108.519 37.5434L108.469 39.22L109.385 39.1117C109.899 39.0494 110.357 38.9959 110.763 38.9532C111.169 38.9098 111.524 38.8777 111.833 38.8584C112.142 38.8389 112.406 38.8326 112.63 38.8412C112.854 38.8498 113.039 38.8735 113.19 38.9138C113.341 38.9543 113.458 39.0115 113.548 39.0871C113.638 39.1629 113.701 39.257 113.742 39.371C113.784 39.4851 113.804 39.619 113.81 39.7743C113.816 39.9296 113.806 40.1062 113.789 40.3056L113.697 41.4073L113.675 41.6899L113.654 41.9724L113.634 42.2549L113.615 42.5375L113.596 42.82L113.578 43.1026L113.56 43.3851L113.544 43.6677L113.528 43.9502L113.513 44.2328L113.498 44.5153L113.484 44.7978L113.471 45.0804L113.459 45.3629L113.448 45.6455L113.437 45.928L113.427 46.2106L113.417 46.4931L113.409 46.7756L113.401 47.0582L113.394 47.3407L113.387 47.6233L113.381 47.9058L113.376 48.1884L113.372 48.4709L113.368 48.7534L113.366 49.036L113.364 49.3185L113.362 49.6011L113.361 49.8836L113.362 50.1661L113.362 50.4487L113.364 50.7313L113.366 51.0138L113.369 51.2963L113.373 51.5789L113.377 51.8614L113.382 52.144L113.388 52.4265L113.395 52.7091L113.402 52.9916L113.41 53.2741L113.419 53.5567L113.428 53.8392L113.439 54.1218L113.45 54.4043L113.461 54.6869L113.474 54.9694L113.487 55.2519L113.501 55.5345L113.515 55.817L113.531 56.0996L113.547 56.3821L113.563 56.6647L113.581 56.9472L113.599 57.2297L113.618 57.5123L113.638 57.7948L113.658 58.0774L113.679 58.3599L113.701 58.6425L113.724 58.925L113.747 59.2076L113.771 59.4901L113.871 60.5918C113.891 60.7912 113.901 60.9678 113.897 61.1229C113.892 61.2779 113.872 61.4115 113.831 61.525C113.79 61.6384 113.727 61.7317 113.637 61.8064C113.546 61.8809 113.427 61.9368 113.275 61.9756C113.122 62.0143 112.936 62.036 112.709 62.0422C112.482 62.0485 112.215 62.0394 111.902 62.0167C111.588 61.9943 111.229 61.9586 110.818 61.9112C110.406 61.8645 109.943 61.8067 109.421 61.7394L108.494 61.6227L108.547 63.2993L109.115 63.3784L109.683 63.4589L110.252 63.5408L110.82 63.6242L111.388 63.7091L111.957 63.7955L112.525 63.8834L113.094 63.9727L113.662 64.0634L114.23 64.1557L114.799 64.2494L115.367 64.3446L115.935 64.4412L116.504 64.5394L117.072 64.6389L117.64 64.74L118.209 64.8425L118.777 64.9465L119.345 65.052L119.914 65.1589L120.482 65.2673L121.05 65.3772L121.619 65.4886L122.187 65.6014L122.755 65.7157L123.324 65.8314L123.892 65.9486L124.46 66.0673L125.029 66.1875L125.597 66.3091L126.165 66.4322L126.734 66.5568L126.165 64.4695L124.465 64.1384C123.944 64.0393 123.479 63.9488 123.065 63.8628C122.651 63.7776 122.287 63.6967 121.967 63.6161C121.648 63.5361 121.372 63.4563 121.132 63.3727C120.894 63.2897 120.692 63.2029 120.52 63.1085C120.349 63.0145 120.208 62.9129 120.09 62.8C119.973 62.6874 119.88 62.5633 119.803 62.4241C119.727 62.2852 119.667 62.1311 119.618 61.9581C119.569 61.7853 119.531 61.5935 119.496 61.3792L119.317 60.1956L119.237 59.6166L119.161 59.0375L119.09 58.4585L119.024 57.8795L118.962 57.3004L118.905 56.7214L118.853 56.1424L118.805 55.5633L118.762 54.9843L118.724 54.4052L118.691 53.8262L118.662 53.2472L118.638 52.6681L118.619 52.0891L118.604 51.51L118.594 50.931L119.528 50.9435C119.709 50.946 119.883 50.9494 120.05 50.9537C120.218 50.9581 120.379 50.9635 120.534 50.9699C120.689 50.9764 120.837 50.9841 120.98 50.9929C121.123 51.0018 121.261 51.0119 121.393 51.0233C121.525 51.0348 121.652 51.0476 121.773 51.0618C121.895 51.0761 122.012 51.0919 122.124 51.1092C122.237 51.1265 122.345 51.1454 122.449 51.166C122.553 51.1866 122.652 51.2089 122.748 51.233C122.844 51.2572 122.937 51.2831 123.026 51.3109C123.115 51.3388 123.201 51.3686 123.284 51.4004C123.367 51.4322 123.447 51.4661 123.524 51.502C123.602 51.5381 123.677 51.5762 123.751 51.6167C123.824 51.6571 123.895 51.6998 123.964 51.7449C124.034 51.79 124.102 51.8375 124.169 51.8874C124.235 51.9374 124.301 51.99 124.366 52.045C124.43 52.1002 124.495 52.158 124.558 52.2184C124.71 52.3684 124.852 52.5228 124.984 52.6834C125.117 52.8447 125.24 53.0122 125.355 53.1877C125.47 53.3637 125.577 53.5477 125.676 53.7416C125.775 53.9359 125.868 54.1401 125.953 54.3558C126.039 54.572 126.119 54.7998 126.193 55.041C126.269 55.2826 126.339 55.5375 126.405 55.8077C126.472 56.0781 126.535 56.3637 126.596 56.6663C126.658 56.9692 126.717 57.2889 126.775 57.6275L129.028 57.8906L128.891 56.9209L128.772 55.9512L128.671 54.9815L128.588 54.0118L128.523 53.0421L128.476 52.0724L128.446 51.1027L128.435 50.133L128.441 49.1633L128.466 48.1936L128.508 47.2239L128.569 46.2542L128.647 45.2845L128.743 44.3148L128.857 43.345L128.989 42.3753L126.74 42.6296C126.637 43.1928 126.519 43.7158 126.383 44.2002C126.252 44.6832 126.1 45.127 125.927 45.533C125.756 45.9372 125.563 46.3033 125.342 46.6329C125.124 46.9605 124.879 47.2514 124.605 47.5074C124.331 47.7614 124.027 47.9805 123.691 48.1668C123.355 48.3512 122.986 48.5029 122.582 48.624C122.178 48.7437 121.739 48.8333 121.262 48.8948C120.785 48.9554 120.27 48.9887 119.716 48.9968L118.595 49.0128L118.605 48.4312L118.62 47.8496L118.64 47.268L118.665 46.6864L118.694 46.1048L118.729 45.5233L118.768 44.9417L118.811 44.3601L118.86 43.7785L118.913 43.1969L118.971 42.6153L119.033 42.0337L119.101 41.4521L119.173 40.8705L119.249 40.289L119.331 39.7074C119.396 39.2686 119.477 38.9176 119.605 38.6311C119.734 38.344 119.91 38.121 120.162 37.9387C120.416 37.7554 120.747 37.6124 121.185 37.4864C121.625 37.359 122.172 37.2481 122.858 37.1295L125.197 36.7113C125.721 36.6145 126.22 36.5278 126.693 36.4522C127.167 36.3759 127.615 36.3111 128.04 36.2589C128.464 36.2063 128.864 36.1667 129.241 36.1409C129.617 36.1151 129.97 36.1036 130.301 36.1074C130.631 36.1114 130.939 36.131 131.226 36.1672C131.512 36.2039 131.777 36.2574 132.022 36.3288C132.266 36.4008 132.49 36.4909 132.694 36.6001C132.899 36.7101 133.085 36.8394 133.252 36.9888C133.42 37.1392 133.57 37.31 133.704 37.502C133.838 37.6952 133.956 37.9097 134.06 38.1466C134.164 38.3848 134.254 38.6453 134.331 38.9292C134.409 39.2145 134.475 39.5232 134.53 39.8562C134.586 40.1907 134.633 40.5495 134.671 40.9339C134.712 41.3195 134.745 41.7307 134.772 42.1684C134.802 42.6074 134.828 43.073 134.85 43.5662C134.877 44.0608 134.902 44.583 134.927 45.134L136.997 44.9711L137.051 44.1115L137.12 43.2531L137.204 42.3958L137.302 41.5396L137.415 40.6845L137.543 39.8306L137.685 38.9778L137.841 38.1261L138.012 37.2755L138.197 36.4261L138.396 35.5778L138.609 34.7305L138.837 33.8844L139.079 33.0395L139.334 32.1956L139.604 31.3528M148.103 43.992L147.545 44.0888L146.987 44.1846L146.429 44.279L145.872 44.3723L145.314 44.4644L144.757 44.5553L144.2 44.645L143.643 44.7337L143.086 44.8211L142.53 44.9074L141.974 44.9926L141.417 45.0766L140.861 45.1596L140.305 45.2414L139.749 45.3222L139.194 45.4019L139.029 47.8076L139.624 47.7864L140.22 47.765L140.816 47.7434L141.412 47.7216C141.628 47.7136 141.822 47.7129 141.994 47.7227C142.166 47.7325 142.318 47.7529 142.451 47.7873C142.584 47.8218 142.698 47.8703 142.796 47.9362C142.894 48.0023 142.976 48.0857 143.044 48.1899C143.111 48.2943 143.165 48.4194 143.207 48.5685C143.25 48.7178 143.282 48.8911 143.304 49.0917C143.328 49.2924 143.342 49.5204 143.352 49.7789C143.362 50.0375 143.368 50.3265 143.371 50.6493L143.39 51.5464L143.426 52.4435L143.478 53.3406L143.546 54.2377L143.63 55.1349L143.729 56.0319L143.845 56.9291L143.977 57.8262L144.125 58.7233L144.29 59.6204L144.47 60.5175L144.666 61.4146L144.878 62.3117L145.106 63.2088L145.351 64.1059L145.611 65.003L146.387 67.4053C146.493 67.7056 146.58 67.9726 146.645 68.2081C146.712 68.4435 146.756 68.6472 146.774 68.8211C146.793 68.9948 146.786 69.1385 146.749 69.2542C146.713 69.3695 146.646 69.4566 146.547 69.5175C146.447 69.5781 146.315 69.6124 146.146 69.6224C145.976 69.6321 145.771 69.6177 145.526 69.581C145.281 69.5443 144.996 69.4856 144.669 69.407C144.342 69.3286 143.972 69.2306 143.558 69.1149L143.195 69.0144L144.018 71.0467L144.876 71.3051L145.734 71.5668L146.593 71.8319L147.451 72.1003L148.309 72.3721L149.167 72.6472L150.026 72.9257L150.884 73.2076L151.742 73.4927L152.601 73.7813L153.459 74.0732L154.317 74.3684L155.176 74.667L156.034 74.9689L156.892 75.2742L157.751 75.5829L156.625 73.1125L156.262 72.9916C155.841 72.8519 155.46 72.72 155.114 72.5909C154.768 72.4625 154.457 72.3369 154.176 72.2092C153.894 72.0821 153.642 71.9529 153.414 71.8169C153.186 71.6814 152.982 71.5391 152.796 71.3851C152.611 71.2317 152.444 71.0666 152.29 70.8851C152.137 70.704 151.996 70.5065 151.864 70.2878C151.732 70.0694 151.609 69.8298 151.488 69.5641C151.369 69.2986 151.253 69.007 151.135 68.6846L150.266 66.1058L150.055 65.4147L149.853 64.7237L149.661 64.0326L149.478 63.3416L149.304 62.6505L149.139 61.9595L148.983 61.2684L148.837 60.5773L148.7 59.8863L148.572 59.1952L148.454 58.5041L148.345 57.8131L148.245 57.1221L148.154 56.431L148.072 55.7399L148 55.0489L147.937 54.3578L147.884 53.6668L147.839 52.9757L147.804 52.2846L147.778 51.5936L147.761 50.9026L147.754 50.2115L147.756 49.5204L147.767 48.8294L147.787 48.1383L147.816 47.4472L147.855 46.7562L147.903 46.0652L147.961 45.3741L148.027 44.683L148.103 43.992M150.023 28.7067C149.607 28.8349 149.169 29.0563 148.734 29.3455C148.302 29.6321 147.875 29.9854 147.479 30.3814C147.087 30.7745 146.727 31.2104 146.423 31.6667C146.124 32.121 145.881 32.5971 145.717 33.0736C145.563 33.5352 145.499 33.9622 145.515 34.3386C145.533 34.7167 145.628 35.0454 145.79 35.3072C145.953 35.5713 146.181 35.7683 146.463 35.8795C146.745 35.9922 147.081 36.0177 147.461 35.9357C147.865 35.8478 148.277 35.6619 148.677 35.3993C149.078 35.1343 149.47 34.7913 149.832 34.3934C150.198 33.9925 150.537 33.5368 150.829 33.0507C151.126 32.5625 151.376 32.0455 151.559 31.5254C151.747 31.0054 151.849 30.5335 151.87 30.1271C151.894 29.7226 151.836 29.3847 151.702 29.1291C151.569 28.8759 151.357 28.7048 151.075 28.63C150.793 28.5565 150.439 28.5778 150.023 28.7067M166.8 74.1588C166.094 73.8973 165.553 73.6945 165.126 73.5253C164.699 73.3572 164.386 73.2219 164.135 73.0954C163.885 72.9695 163.697 72.8523 163.521 72.7202C163.345 72.5886 163.18 72.4423 162.977 72.2583C162.507 71.8381 161.944 70.9202 161.645 70.0828C161.546 69.7974 161.476 69.5382 161.436 69.3046C161.397 69.0707 161.387 68.862 161.407 68.678C161.428 68.4934 161.479 68.3332 161.56 68.1969C161.641 68.0598 161.753 67.9465 161.896 67.8564C162.038 67.7655 162.212 67.6978 162.417 67.6528C162.622 67.6071 162.859 67.5843 163.128 67.5837C163.398 67.5828 163.699 67.6044 164.035 67.6481C164.37 67.6918 164.739 67.758 165.142 67.8464C165.716 67.9807 166.229 68.0994 166.689 68.2024C167.15 68.3059 167.558 68.3935 167.922 68.4654C168.286 68.5374 168.607 68.5935 168.893 68.634C169.178 68.6745 169.428 68.6991 169.653 68.7082C169.877 68.717 170.075 68.7102 170.255 68.688C170.435 68.6655 170.598 68.6274 170.752 68.5741C170.906 68.5203 171.051 68.451 171.196 68.3665C171.342 68.2815 171.487 68.1809 171.641 68.0648C171.922 67.8547 172.175 67.6008 172.4 67.3048C172.625 67.0055 172.824 66.6637 172.995 66.281C173.168 65.8949 173.315 65.4678 173.436 65.0018C173.561 64.5323 173.661 64.0239 173.736 63.4788C173.816 62.9304 173.873 62.3457 173.907 61.7269C173.947 61.1053 173.965 60.4503 173.962 59.7643C173.966 59.0764 173.95 58.3582 173.915 57.6124C173.888 56.8656 173.842 56.0923 173.778 55.2952C173.713 54.3292 173.639 53.4523 173.544 52.6306C173.458 51.8103 173.35 51.0468 173.208 50.3061C173.075 49.5685 172.908 48.8554 172.7 48.134C172.5 47.4175 172.259 46.6949 171.974 45.9346C172.89 44.1709 173.362 43.5588 173.737 43.5226C173.971 43.5 174.086 43.7771 174.094 44.8364C174.101 45.4156 174.152 45.9267 174.242 46.3674C174.336 46.8095 174.467 47.1815 174.634 47.4805C174.802 47.7811 175.004 48.0085 175.237 48.1592C175.47 48.311 175.734 48.3854 176.026 48.3784C176.317 48.3714 176.597 48.2322 176.855 47.9832C177.114 47.7324 177.352 47.3706 177.558 46.9216C177.767 46.4702 177.947 45.9316 178.087 45.331C178.232 44.7285 178.339 44.0653 178.396 43.3679C178.478 42.4896 178.483 41.6856 178.418 40.9794C178.36 40.2763 178.227 39.6732 178.027 39.1915C177.829 38.7139 177.56 38.3577 177.225 38.1423C176.891 37.9297 176.49 37.8557 176.028 37.9377C175.649 38.0046 175.302 38.1251 174.949 38.3371C174.598 38.5474 174.242 38.8476 173.848 39.2744C173.456 39.6973 173.029 40.2438 172.533 40.9482C172.045 41.6443 171.495 42.4925 170.856 43.5223C170.428 42.9291 170.022 42.4441 169.618 42.0555C169.216 41.6728 168.814 41.3837 168.39 41.1781C167.966 40.9758 167.521 40.8549 167.034 40.8058C166.547 40.7581 166.018 40.7803 165.427 40.8632C164.725 40.9611 164.041 41.1393 163.38 41.3897C162.719 41.6363 162.083 41.9526 161.476 42.3316C160.871 42.7047 160.297 43.1389 159.76 43.628C159.226 44.1101 158.731 44.6464 158.28 45.2317C157.835 45.8099 157.435 46.4372 157.086 47.1091C156.745 47.7744 156.458 48.4854 156.228 49.2383C156.009 49.9861 155.851 50.7776 155.758 51.6098C155.678 52.4391 155.666 53.3117 155.728 54.2252C155.771 54.7642 155.843 55.2961 155.94 55.8185C156.043 56.3417 156.171 56.8562 156.323 57.3597C156.481 57.8646 156.662 58.359 156.865 58.8405C157.072 59.324 157.301 59.795 157.549 60.2511C157.801 60.7094 158.073 61.1531 158.362 61.5793C158.653 62.0082 158.962 62.4198 159.285 62.8112C159.611 63.2055 159.95 63.5795 160.301 63.9302C160.655 64.2837 161.019 64.6138 161.392 64.9172C161.208 64.944 161.033 64.9767 160.866 65.0154C160.699 65.0537 160.541 65.098 160.39 65.1484C160.24 65.1984 160.098 65.2545 159.965 65.3169C159.831 65.3788 159.706 65.447 159.59 65.5215C159.473 65.5956 159.365 65.6761 159.264 65.763C159.164 65.8495 159.073 65.9426 158.989 66.0422C158.906 66.1415 158.831 66.2473 158.765 66.36C158.698 66.4723 158.64 66.5914 158.591 66.7175C158.541 66.8432 158.5 66.9758 158.468 67.1156C158.435 67.2551 158.411 67.4017 158.396 67.5557C158.381 67.7093 158.374 67.8703 158.376 68.0389C158.379 68.2072 158.39 68.383 158.409 68.5667C158.43 68.75 158.459 68.9412 158.496 69.1404C158.535 69.3394 158.582 69.5464 158.638 69.7617C158.695 69.9769 158.761 70.2003 158.836 70.4322C158.913 70.6641 158.998 70.9045 159.092 71.1537C159.403 71.9511 159.755 72.688 160.156 73.3773C160.566 74.0692 161.024 74.7156 161.536 75.3292C162.056 75.9472 162.629 76.5339 163.266 77.1017C163.908 77.6755 164.612 78.2316 165.387 78.7824C165.08 78.8265 164.804 78.8913 164.56 78.9768C164.315 79.0605 164.103 79.1647 163.922 79.2892C163.741 79.412 163.593 79.5552 163.476 79.7184C163.36 79.8801 163.276 80.062 163.224 80.264C163.173 80.4647 163.155 80.6856 163.169 80.9269C163.185 81.167 163.234 81.4276 163.316 81.7088C163.399 81.9891 163.517 82.2903 163.668 82.6125C163.822 82.9343 164.01 83.2774 164.233 83.6421C164.597 84.2291 165.016 84.8151 165.488 85.3994C165.966 85.9857 166.497 86.572 167.077 87.1576C167.663 87.7466 168.299 88.3363 168.981 88.9253C169.669 89.5191 170.403 90.1134 171.179 90.7065C171.96 91.3055 172.783 91.9041 173.642 92.5002C174.507 93.1029 175.407 93.7036 176.339 94.2999C177.275 94.9029 178.241 95.5016 179.232 96.093C180.225 96.6908 181.242 97.2808 182.277 97.8598C183.568 98.5892 184.723 99.2102 185.742 99.7186C186.757 100.23 187.633 100.623 188.368 100.895C189.099 101.166 189.69 101.311 190.14 101.329C190.587 101.342 190.895 101.225 191.066 100.976C191.235 100.721 191.27 100.332 191.174 99.8119C191.08 99.2836 190.859 98.6231 190.516 97.8314C190.181 97.0331 189.729 96.1054 189.166 95.0504C188.618 93.9913 187.965 92.8083 187.214 91.5045C186.521 90.2628 185.804 89.0442 185.083 87.879C184.38 86.7181 183.669 85.6141 182.964 84.5956C182.274 83.5838 181.587 82.6591 180.915 81.8479C180.253 81.044 179.602 80.3532 178.975 79.7996C178.542 79.4268 178.107 79.0843 177.643 78.7592C177.18 78.4364 176.687 78.131 176.139 77.8302C175.592 77.532 174.988 77.2385 174.303 76.9378C173.619 76.6397 172.851 76.3347 171.976 76.0109L171.329 75.7736L170.682 75.5379L170.035 75.3039L169.388 75.0715L168.741 74.8409L168.094 74.6119L167.447 74.3845L166.8 74.1588M164.956 44.4986C165.325 44.4672 165.669 44.4961 165.986 44.5844C166.303 44.6737 166.595 44.8236 166.861 45.0326C167.128 45.2436 167.369 45.5147 167.586 45.8443C167.805 46.1764 168 46.5674 168.171 47.0157C168.346 47.4667 168.5 47.9749 168.632 48.5383C168.769 49.1042 168.888 49.725 168.988 50.3984C169.095 51.0738 169.186 51.8012 169.262 52.5778C169.347 53.3556 169.419 54.1816 169.479 55.0531C169.552 55.9358 169.604 56.7718 169.634 57.5575C169.673 58.3418 169.689 59.0745 169.679 59.7524C169.677 60.428 169.647 61.048 169.589 61.6093C169.535 62.1678 169.452 62.6674 169.337 63.1052C169.225 63.5401 169.081 63.9134 168.904 64.2228C168.728 64.5295 168.517 64.7726 168.272 64.9502C168.028 65.1259 167.748 65.2368 167.433 65.2812C167.117 65.3248 166.767 65.3031 166.382 65.2148C166.008 65.1297 165.638 64.9877 165.272 64.7932C164.907 64.6002 164.548 64.3556 164.197 64.0634C163.848 63.7735 163.509 63.4366 163.182 63.0563C162.857 62.6788 162.547 62.2582 162.253 61.7978C161.963 61.3402 161.691 60.8429 161.44 60.3088C161.194 59.7772 160.971 59.2086 160.773 58.6054C160.581 58.0043 160.416 57.3681 160.28 56.6993C160.153 56.0316 160.057 55.3302 159.995 54.5974C159.939 53.8254 159.924 53.0964 159.946 52.4109C159.977 51.7243 160.043 51.0803 160.142 50.48C160.248 49.8776 160.385 49.3181 160.553 48.8029C160.724 48.2852 160.924 47.8113 161.149 47.3829C161.378 46.9517 161.632 46.566 161.908 46.2276C162.187 45.8865 162.487 45.5931 162.807 45.3495C163.129 45.1036 163.47 44.9082 163.828 44.7657C164.187 44.6218 164.564 44.5319 164.956 44.4986M172.657 82.2639C173.212 82.5071 173.702 82.7233 174.137 82.9163C174.572 83.1102 174.952 83.2805 175.286 83.4314C175.619 83.5828 175.907 83.7143 176.158 83.8305C176.409 83.9469 176.624 84.0476 176.81 84.1369C176.997 84.2264 177.156 84.3046 177.296 84.3756C177.437 84.4468 177.559 84.5109 177.672 84.5724C177.784 84.6339 177.888 84.6929 177.991 84.7537C178.094 84.8146 178.197 84.8773 178.309 84.9465C178.601 85.1164 178.893 85.3066 179.185 85.5154C179.478 85.7252 179.77 85.9537 180.06 86.1993C180.352 86.4458 180.641 86.7095 180.928 86.9883C181.215 87.2682 181.5 87.5632 181.78 87.8715C182.062 88.1807 182.339 88.503 182.61 88.8364C182.883 89.1706 183.151 89.5156 183.41 89.8693C183.672 90.2237 183.926 90.5864 184.171 90.9552C184.419 91.3245 184.657 91.6994 184.884 92.0778C185.295 92.7518 185.632 93.3593 185.896 93.8986C186.164 94.4363 186.356 94.9043 186.472 95.3015C186.589 95.696 186.629 96.0189 186.589 96.2695C186.551 96.517 186.432 96.692 186.233 96.7942C186.033 96.8937 185.752 96.9208 185.391 96.8759C185.029 96.829 184.585 96.711 184.062 96.5226C183.537 96.3336 182.933 96.0758 182.251 95.7501C181.567 95.4258 180.806 95.0357 179.97 94.5812C179.342 94.2427 178.726 93.8921 178.122 93.5314C177.519 93.1731 176.93 92.8049 176.357 92.4285C175.786 92.0548 175.232 91.673 174.697 91.2847C174.164 90.8989 173.651 90.5066 173.16 90.1089C172.672 89.7137 172.206 89.3129 171.765 88.9076C171.326 88.5045 170.913 88.0965 170.527 87.6846C170.144 87.2742 169.788 86.8594 169.461 86.4409C169.137 86.0233 168.843 85.6013 168.579 85.1756C168.388 84.8635 168.222 84.5715 168.082 84.2981C167.942 84.0244 167.828 83.769 167.737 83.5303C167.648 83.2912 167.583 83.0684 167.542 82.8605C167.502 82.652 167.485 82.458 167.492 82.277C167.5 82.0952 167.531 81.9262 167.585 81.7682C167.64 81.6092 167.718 81.4611 167.819 81.3223C167.921 81.1822 168.045 81.0511 168.192 80.9272C168.34 80.802 168.51 80.6837 168.703 80.5707L169.197 80.7784L169.691 80.9872L170.186 81.1972L170.68 81.4083L171.174 81.6205L171.669 81.8338L172.163 82.0483L172.657 82.2639" fill="black" />

<g>

<path stroke-width="0.5pt" d="M59.2868 4.68747L59.6708 3.23747M61.4672 5.28918L61.8813 3.84748M63.6173 5.93138L64.0618 4.49876M63.6173 5.93138L64.0618 4.49876M67.8192 7.33484L68.3255 5.92284M69.8672 8.09478L70.4047 6.69442M71.8772 8.89259L72.4465 7.50481M71.8772 8.89259L72.4465 7.50481M75.7765 10.5988L76.4102 9.23922M77.6622 11.5056L78.3287 10.1618M79.503 12.447L80.2026 11.1201M79.503 12.447L80.2026 11.1201M83.043 14.4302L83.81 13.1411M84.7392 15.4701L85.5403 14.202M86.3839 16.5409L87.2196 15.2952M86.3839 16.5409L87.2196 15.2952M89.5136 18.771L90.4191 17.5752M90.9956 19.9283L91.9365 18.76M92.4207 21.1122L93.397 19.9733M92.4207 21.1122L93.397 19.9733M95.0951 23.5554L96.1424 22.4814M96.3421 24.8123L97.4247 23.7741M97.5274 26.0913L98.6451 25.091M97.5274 26.0913L98.6451 25.091M99.709 28.7104L100.896 27.7931M100.704 30.048L101.924 29.176M101.633 31.4027L102.886 30.5785M101.633 31.4027L102.886 30.5785M103.292 34.1583L104.608 33.4374M104.021 35.5567L105.366 34.8913M104.683 36.9671L106.054 36.3598M104.683 36.9671L106.054 36.3598M105.799 39.8191L107.219 39.3349M106.254 41.2582L107.694 40.8389M106.639 42.7044L108.097 42.3518M106.639 42.7044L108.097 42.3518M107.201 45.6132L108.685 45.3989M107.376 47.0735L108.869 46.9301M107.482 48.5362L108.98 48.4643M107.482 48.5362L108.98 48.4643M107.482 51.4638L108.98 51.5358M107.376 52.9264L108.869 53.07M107.201 54.3867L108.685 54.6011M107.201 54.3867L108.685 54.6011M106.639 57.2956L108.097 57.6482M106.254 58.7418L107.694 59.1611M105.799 60.1809L107.219 60.6651M105.799 60.1809L107.219 60.6651M104.683 63.0329L106.054 63.6403M104.021 64.4433L105.366 65.1087M103.292 65.8417L104.608 66.5626M103.292 65.8417L104.608 66.5626M101.633 68.5973L102.886 69.4216M100.704 69.952L101.924 70.8241M99.709 71.2896L100.896 72.2069M99.709 71.2896L100.896 72.2069M97.5274 73.9087L98.6451 74.909M96.3421 75.1877L97.4246 76.2259M95.0952 76.4446L96.1423 77.5186M95.0952 76.4446L96.1423 77.5186M92.4208 78.8878L93.397 80.0267M90.9956 80.0717L91.9364 81.24M89.5136 81.2289L90.4191 82.4248M89.5136 81.2289L90.4191 82.4248M86.3839 83.4591L87.2196 84.7048M84.7392 84.5299L85.5403 85.798M83.0431 85.5698L83.81 86.8589M83.0431 85.5698L83.81 86.8589M79.503 87.553L80.2026 88.8799M77.6622 88.4944L78.3287 89.8382M75.7765 89.4012L76.4102 90.7608M75.7765 89.4012L76.4102 90.7608M71.8772 91.1074L72.4465 92.4952M69.8672 91.9052L70.4047 93.3056M67.8192 92.6652L68.3255 94.0772M67.8192 92.6652L68.3255 94.0772M63.6173 94.0686L64.0618 95.5012M61.4672 94.7108L61.8813 96.1525M59.2868 95.3125L59.6708 96.7625" />

<path stroke-width="0.5pt" d="M106.767 50L109.767 50M101.853 66.8398L104.423 68.3876M106.219 44.2985L109.164 43.7303M104.577 38.6617L107.37 37.568M104.577 61.3382L107.37 62.432M80.9306 14.0765L82.3968 11.4592M93.2818 77.1247L95.3052 79.3396M98.0737 27.8711L100.379 25.951M106.219 55.7014L109.164 56.2698M65.4977 7.32484L66.4482 4.47938M98.0737 72.1289L100.379 74.049M65.4977 92.6751L66.4481 95.5206M73.5469 10.4146L74.7496 7.66622M93.2818 22.8753L95.3052 20.6604M101.853 33.1601L104.423 31.6124M73.547 89.5854L74.7496 92.3338M80.9306 85.9235L82.3968 88.5408M87.5406 81.7477L89.2816 84.1908M87.5406 18.2523L89.2816 15.8092" />

<defs>

<marker refY="3.6" refX="9" markerUnits="strokeWidth" viewBox="0 0 10.5 7.2" stroke="none" id="arrowstart" markerWidth="10.5" fill="black" orient="auto" markerHeight="7.2">

<path d="M 9 3.6 L 10.5 0 L 0 3.6 L 10.5 7.2 L 9 3.6 Z" />

</marker>

<marker refY="3.6" refX="1.5" markerUnits="strokeWidth" viewBox="0 0 10.5 7.2" stroke="none" id="arrowend" markerWidth="10.5" fill="black" orient="auto" markerHeight="7.2">

<path d="M 1.5 3.6 L 0 0 L 10.5 3.6 L 0 7.2 L 1.5 3.6 Z" />

</marker>

</defs>

<text stroke="none" transform="translate(110.767, 50) rotate(90.0011)" font-size="5" fill="black"></text>

<text stroke="none" transform="translate(105.28, 68.9035) rotate(121.059)" font-size="5" fill="black"></text>

<text stroke="none" transform="translate(110.146, 43.5409) rotate(79.0813)" font-size="5" fill="black"></text>

<text stroke="none" transform="translate(108.302, 37.2034) rotate(68.6183)" font-size="5" fill="black"></text>

<text stroke="none" transform="translate(108.302, 62.7967) rotate(111.384)" font-size="5" fill="black"></text>

<text stroke="none" transform="translate(82.8856, 10.5868) rotate(29.259)" font-size="5" fill="black"></text>

<text stroke="none" transform="translate(57.8456, 99.0313) rotate(166.343)" font-size="5" fill="black"></text>

<text stroke="none" transform="translate(95.9797, 80.0779) rotate(137.587)" font-size="5" fill="black"></text>

<text stroke="none" transform="translate(101.147, 25.311) rotate(50.2073)" font-size="5" fill="black"></text>

<text stroke="none" transform="translate(110.146, 56.4592) rotate(100.921)" font-size="5" fill="black"></text>

<text stroke="none" transform="translate(66.765, 3.53089) rotate(18.4702)" font-size="5" fill="black"></text>

<text stroke="none" transform="translate(101.147, 74.689) rotate(129.794)" font-size="5" fill="black"></text>

<text stroke="none" transform="translate(66.7649, 96.4691) rotate(161.531)" font-size="5" fill="black"></text>

<text stroke="none" transform="translate(75.1505, 6.75009) rotate(23.6331)" font-size="5" fill="black"></text>

<text stroke="none" transform="translate(95.9797, 19.9222) rotate(42.4143)" font-size="5" fill="black"></text>

<text stroke="none" transform="translate(105.28, 31.0966) rotate(58.9427)" font-size="5" fill="black"></text>

<text stroke="none" transform="translate(75.1504, 93.2499) rotate(156.368)" font-size="5" fill="black"></text>

<text stroke="none" transform="translate(82.8855, 89.4132) rotate(150.742)" font-size="5" fill="black"></text>

<text stroke="none" transform="translate(57.8456, 0.968739) rotate(13.6579)" font-size="5" fill="black"></text>

<text stroke="none" transform="translate(89.8619, 85.0052) rotate(144.527)" font-size="5" fill="black"></text>

<text stroke="none" transform="translate(89.862, 14.9948) rotate(35.4744)" font-size="5" fill="black"></text>

<path marker-start="url(#arrowstart)" stroke-width="0.5pt" marker-end="url(#arrowend)" d="M57.2553 3.39805L62.7592 4.88616L68.0266 6.61246L73.7965 8.88736L78.4058 11.0386L82.2593 13.1049L88.3297 16.9728L92.5841 20.2663L93.96 21.4656L97.3517 24.788L100.362 28.329L101.87 30.4084L103.787 33.5038L104.824 35.4909L106.464 39.4451L107.493 43.0647L108.072 46.5179L108.25 48.9803L108.196 52.1044L107.921 54.6456L106.74 59.722L105.508 63.0163L103.318 67.3118L101.575 70.0178L99.5679 72.674L97.2652 75.3044L94.4658 78.0741L92.5204 79.7874L87.0338 83.9256L82.9839 86.4757L76.3965 89.939L71.1959 92.1913L64.3857 94.6139L57.2553 96.602" />

</g>

</g>

</svg>

