<?xml version="1.0" standalone="no"?>
<!DOCTYPE svg PUBLIC "-//W3C//DTD SVG 1.1//EN" "http://www.w3.org/Graphics/SVG/1.1/DTD/svg11.dtd">

<svg style="stroke:black; fill:none; stroke-width:0.5pt; stroke-linejoin:round; text-anchor:middle" xmlns="http://www.w3.org/2000/svg" height="400px" width="400px" version="1.1" xmlns:xlink="http://www.w3.org/1999/xlink" font-family="Helvetica,Arial,FreeSans,Sans,sans,sans-serif" viewBox="0 0 200 100">

<g>

<g clip-path="url(#theClip)">

<defs>

<radialGradient gradientUnits="userSpaceOnUse" cy="50" cx="100" gradientTransform="translate(0,25) scale(1,0.5)" r="100" id="theRadGrad">

<stop stop-color="white" stop-opacity="0" offset="0%" />

<stop stop-color="white" stop-opacity="1" offset="100%" />

</radialGradient>

<clipPath id="theClip">

<rect y="0" width="200" height="100" x="0" />

</clipPath>

</defs>

<path stroke="#ccccff" stroke-width="0.25pt" d="M351.719 -101.411L313.313 -84.7459L288.437 -72.7267L262.169 -58.5676L245.225 -48.3326L226.235 -35.3745L218.497 -29.4725L209.076 -21.6109L200.109 -13.1907L193.741 -6.42115L188.407 -0.0149928L185.008 4.56161L181.573 9.74368L177.478 17.0482L174.786 23.007L172.994 27.9466L171.381 33.8317L170.346 39.6376L169.882 44.972L169.898 50.6169L170.448 56.3417L171.323 61.1433L172.8 66.6812L173.968 70.1125L176.079 75.2542L178.927 80.958L182.817 87.4486L186.782 93.1227L190.946 98.4027L196.18 104.347L200.592 108.912L208.959 116.746L221.514 127.064L234.196 136.275L246.354 144.286L264.833 155.327L289.289 168.396L318.078 182.164L360.979 200.396L383.298 209.069M515.088 -219.654L446.771 -187.619L395.886 -160.58L357.435 -137.547L329.247 -118.647L308.347 -103.111L288.915 -87.0676L272.497 -71.8456L259.666 -58.4397L250.422 -47.618L242.802 -37.6729L236.283 -28.1334L231.105 -19.5996L226.832 -11.6386L222.017 -1.13563L219.648 4.97244L217.103 12.7066L214.786 21.6775L213.766 26.8163L212.767 33.5736L212.185 39.8616L211.932 46.9217L212.171 55.1584L212.92 62.8937L214.103 70.2464L216.174 79.244L218.548 87.1081L221.504 95.1172L226.267 105.744L231.821 116.082L238.423 126.63L247.142 138.708L256.457 150.051L266.664 161.186L275.346 169.861L290.244 183.463L309.624 199.344L335.153 218.018L360.091 234.467L397.458 256.706L454.673 286.783L517.849 316.107L567.719 337.165M460.632 -175.175L400.905 -148.221L362.928 -128.956L333.248 -112.291L314.229 -100.631L293.544 -86.807L273.781 -72.1166L262.914 -63.2126L247.546 -49.2328L235.118 -36.2401L227.823 -27.5755L221.762 -19.5303L217.499 -13.2391L212.366 -4.66869L207.815 4.32691L204.269 12.9157L202.367 18.5522L200.525 25.3278L199.521 30.0907L198.85 34.1825L198.182 40.2559L197.91 45.9023L197.973 51.4665L198.508 58.3861L198.948 61.7253L199.995 67.5386L201.739 74.5674L205.067 84.4303L207.826 90.9356L212.326 99.8346L218.262 109.65L224.696 118.776L233.192 129.279L243.603 140.545L254.519 151.048L263.563 159.003L279.269 171.609L299.848 186.404L326.884 203.725L354.603 219.682L393.081 239.648L443.054 262.831L490.042 282.552L506.246 288.979M406.175 -135.76L357.768 -114.572L316.477 -94.0143L284.983 -76.0589L262.142 -61.198L246.524 -49.7401L236.547 -41.6537L228.608 -34.6536L219.68 -25.9898L211.45 -16.9824L207.547 -12.239L201.791 -4.46179L197.929 1.48643L194.782 6.97166L191.662 13.2651L190.02 17.0924L187.546 24.0049L185.565 31.5599L184.488 37.871L183.926 44.4504L183.898 50.0405L184.211 54.9109L184.631 58.4236L185.447 63.1124L187.313 70.4729L190.027 78.1632L193.044 84.8917L195.6 89.7596L199.788 96.704L204.951 104.102L212.189 113.08L222.123 123.697L228.94 130.196L238.03 138.14L248.031 146.142L264.145 157.82L284.108 170.761L311.567 186.606L340.982 201.784L393.739 225.795L444.772 246.28M569.544 -269.199L500.128 -235.391L449.046 -207.668L410.1 -184.315L377.11 -162.514L347.133 -140.525L323.689 -121.346L308.233 -107.41L293.867 -93.2251L280.416 -78.5057L269.924 -65.7047L261.345 -54.047L252.743 -40.8287L246.962 -30.7025L242.103 -21.0443L239.378 -14.9782L235.587 -5.39895L233.506 0.682045L231.002 9.25809L228.784 18.9214L227.448 26.8036L226.777 32.2129L226.065 42.1986L225.976 49.4268L226.29 57.3578L227.301 67.3757L228.536 75.028L230.426 83.7189L233.29 93.88L236.191 102.276L239.716 111.001L244.026 120.258L246.948 125.914L252.376 135.458L257.31 143.313L266.767 156.797L276.928 169.637L288.25 182.512L304.183 198.784L329.03 221.141L349.834 237.849L373.96 255.55L406.352 277.181L449.585 303.214L501.272 331.219L585.947 371.912L629.193 390.839M-29.4737 -2.79646L-1.39786 4.77576L23.0682 12.6882L34.4009 17.0393L41.3507 20.0452L50.6145 24.6558L57.001 28.4704L60.0375 30.581L63.4752 33.3422L66.1673 35.9522L68.0504 38.1982L69.6682 40.6865L70.3642 42.0915L71.1805 44.4534L71.5628 46.9826L71.5211 48.8252L71.2934 50.2992L70.6248 52.518L69.3114 55.1711L68.1922 56.8487L66.6758 58.7243L63.3562 62.0004L59.557 65.0082L55.7078 67.599L49.6064 71.1279L41.9982 74.896L26.5223 81.2834L6.24521 88.1568L-37.2516 99.9388L-47.0175 102.236M24.9825 -1.68843L39.5436 4.63825L52.8311 11.3624L59.4358 15.2199L65.2126 19.0172L69.9171 22.5308L74.4389 26.4506L77.8468 29.9711L79.7579 32.2951L81.3712 34.5756L83.1189 37.6165L83.9038 39.3379L84.9305 42.3838L85.3268 44.2253L85.5963 46.7753L85.5304 49.45L85.0069 52.553L83.6963 56.3882L82.003 59.6521L79.5274 63.2415L76.7769 66.4434L73.0052 70.1045L68.8715 73.5294L62.283 78.2056L55.6543 82.2793L48.9807 85.9458L33.1328 93.4929L14.4561 101.035M-83.9298 -8.96979L-43.6297 -0.235853L-12.4477 7.81604L8.16796 14.188L22.9486 19.6356L32.0504 23.5972L38.908 27.0806L43.1871 29.5921L47.1291 32.2652L49.6159 34.2231L52.344 36.7701L53.9487 38.5981L55.717 41.1885L56.853 43.6647L57.3922 45.766L57.541 47.8731L57.3484 49.7223L56.7145 51.9517L55.8893 53.7388L54.55 55.8511L52.7312 58.0563L50.4098 60.3266L48.1885 62.1711L44.6391 64.7101L39.4488 67.8573L32.8759 71.2488L24.2658 75.0646L8.84135 80.8214L-12.7552 87.5094L-54.8609 98.0602L-108.491 108.924M79.4386 -5.64569L84.0086 0.761782L87.4388 6.21763L90.7953 12.3644L93.7643 18.8769L95.5101 23.5144L97.6741 30.9684L98.8165 36.8076L99.4405 42.2068L99.6272 45.8647L99.5473 51.4L99.0304 56.9385L98.0005 62.8318L97.2596 65.9342L95.3441 72.2022L92.7092 78.8315L90.5084 83.4404L86.9314 89.8719L81.4015 98.2312L77.2492 103.695L75.9298 105.323M-138.386 -20.2084L-78.1512 -7.85238L-41.1318 1.35062L-20.3749 7.42234L-6.22833 12.1511L5.77499 16.726L13.2552 19.957L21.4034 23.9737L28.3684 28.0503L33.0754 31.3745L35.9907 33.8295L38.7135 36.6061L40.8431 39.4081L42.1285 41.7106L42.7868 43.3459L43.4072 46.0165L43.4981 48.1395L43.3471 49.6409L42.9608 51.342L42.3027 53.1422L41.4712 54.7978L40.054 56.9668L38.9497 58.3573L36.8569 60.5899L33.9514 63.1667L30.7112 65.6102L25.9024 68.7214L18.4902 72.7742L8.96194 77.1787L-5.42402 82.799L-23.1863 88.6907L-61.2649 99.097L-114.847 110.906L-169.965 121.099M133.895 -14.6682L129.372 -7.25781L124.122 2.85566L121.653 8.50709L119.043 15.5448L117.673 19.9462L116.516 24.3028L115.533 28.7794L114.601 34.3496L113.939 40.632L113.695 46.1517L113.939 54.6137L114.515 60.2469L115.825 67.8889L118.219 77.1242L120.763 84.4821L123.809 91.7057L127.989 100.022L132.332 107.45L135.868 112.877L137.404 115.097M624 -323.81L557.812 -290.286L495.905 -255.595L445.616 -224.174L402.813 -194.235L376.234 -173.615L355.262 -155.875L339.143 -141.111L318.527 -120.347L305.166 -105.391L296.837 -95.2789L285.919 -80.8224L275.564 -65.416L266.179 -49.3618L259.77 -36.6582L256.119 -28.4801L252.67 -19.8499L248.579 -7.89824L245.294 4.00673L242.839 15.6807L241.836 21.9352L240.64 32.4544L240.084 42.1134L240.123 54.2674L240.888 65.4801L242.633 78.3763L244.915 89.6393L248.017 101.288L251.87 112.923L256.111 123.698L261.594 135.699L267.475 146.972L275.339 160.296L285.488 175.456L296.334 189.883L310.686 206.979L324.97 222.34L342.055 239.101L362.996 257.83L394.503 283.221L430.061 308.929L465.145 332.026L520.814 365.247L584.75 399.554L650.945 431.858L690.667 450M297.263 -72.1277L268.181 -59.1122L243.332 -46.5774L226.734 -37.1792L208.931 -25.7721L197.586 -17.4685L189.771 -11.0691L182.547 -4.45789L177.029 1.2217L171.209 8.08644L167.199 13.6123L164.287 18.2709L162.051 22.4266L160.299 26.2395L157.943 32.8449L157.08 36.1807L156.269 40.6474L155.855 45.0379L155.847 50.0427L156.092 53.1576L156.706 57.2561L157.499 60.781L158.567 64.3968L160.476 69.4136L162.599 73.8901L165.961 79.728L170.655 86.435L175.822 92.6797L182.159 99.3171L187.556 104.362L193.953 109.813L204.534 117.908L219.051 127.694L230.821 134.825L251.161 145.938L276.457 158.211L313.751 174.151L321.825 177.345M188.351 -28.7561L176.11 -20.6125L163.538 -11.0839L157.488 -5.89663L150.606 0.694779L146.098 5.57016L142.032 10.5114L137.65 16.7093L135.745 19.8313L132.787 25.5379L130.416 31.5119L129.039 36.3509L128.267 40.3584L127.838 44.2349L127.727 48.5039L128.081 53.5162L128.822 57.9174L129.706 61.443L130.714 64.5939L132 67.9127L134.124 72.4412L136.267 76.2948L139.56 81.3709L143.058 86.0335L147.823 91.5972L153.094 97.0274L158.883 102.374L164.025 106.72L174.823 114.937L188.241 123.925L198.877 130.359M242.807 -47.9092L220.556 -36.7389L205.47 -28.2354L191.927 -19.6931L183.089 -13.4776L174.06 -6.39353L167.68 -0.767385L160.79 6.15741L157.025 10.4844L153.255 15.3924L149.662 20.8971L147.313 25.2144L146.216 27.5462L144.642 31.4712L143.325 35.7104L142.489 39.4735L141.977 43.1337L141.768 46.4942L141.947 51.7889L142.502 55.8379L143.457 60.02L145.04 64.8441L147.289 69.9757L149.107 73.3871L151.814 77.7599L155.122 82.3635L158.361 86.3446L162.144 90.5296L166.694 95.0766L172.563 100.366L180.297 106.616L189.916 113.568L205.503 123.493L217.292 130.211L235.88 139.815L260.351 151.108M-192.842 -36.5123L-116.247 -20.4944L-70.8374 -8.89382L-42.7142 -0.321723L-25.1437 5.91884L-10.7115 11.8501L-1.11553 16.4117L7.30455 21.0518L11.558 23.736L15.7041 26.6811L19.901 30.1613L22.5712 32.7947L24.9493 35.6171L26.5187 37.9195L27.7771 40.2695L28.6278 42.4295L29.0904 44.1255L29.4142 46.2424L29.4306 48.7905L28.9087 51.8604L28.3162 53.6897L27.0886 56.3333L25.8809 58.3143L23.2708 61.6721L21.2728 63.7776L18.4549 66.3491L16.6149 67.8526L12.0778 71.1531L5.90781 75.0105L-2.61006 79.5797L-12.7671 84.2914L-26.6731 89.8991L-48.1289 97.3253L-91.8139 109.76L-152.251 123.683L-231.439 138.761M-247.298 -57.8815L-168.183 -40.5784L-111.217 -25.6308L-79.8701 -15.9229L-53.6518 -6.48172L-34.5912 1.58186L-21.9803 7.80467L-14.0908 12.2501L-5.97127 17.5028L-1.16295 21.0993L2.43676 24.1499L7.03864 28.7551L9.69033 32.0141L11.6928 35.022L13.4008 38.3278L14.4976 41.3054L15.2286 44.6362L15.4351 47.2333L15.343 49.6316L15.0041 51.9092L14.2739 54.6434L12.9875 57.8091L10.9381 61.4269L8.36053 64.9352L6.18084 67.4228L3.14671 70.4384L0.314828 72.9309L-3.86277 76.2139L-9.64192 80.2149L-16.3685 84.3267L-23.0735 88.0108L-32.8883 92.8659L-49.7662 100.177L-70.4895 107.953L-111.203 120.865L-183.299 139.375L-279.684 159.433L-292.912 161.911M-301.754 -84.3161L-207.684 -61.9504L-156.426 -47.5772L-118.629 -35.3996L-84.8603 -22.7595L-61.2288 -12.3497L-47.3642 -5.29758L-36.234 1.13153L-30.0594 5.11546L-21.0643 11.7015L-17.3403 14.8129L-11.652 20.2398L-8.08227 24.2811L-5.39426 27.8626L-3.14425 31.4597L-1.64907 34.3799L-0.230688 37.9323L0.317317 39.7217L1.01105 42.872L1.34355 45.7635L1.39772 48.1958L0.91822 52.8977L-0.0570039 56.7766L-1.15327 59.7354L-2.88937 63.3191L-4.87163 66.6009L-7.99825 70.8534L-11.3617 74.6923L-15.4311 78.7095L-22.0969 84.3526L-30.0903 90.1435L-37.0024 94.5787L-48.3142 101.049L-63.6612 108.741L-82.6636 117.096L-102.018 124.68L-138.023 137.094L-195.426 153.928L-269.667 172.377L-354.386 190.549M-410.667 -152.381L-318.052 -126.601L-246.685 -103.77L-194.635 -84.6562L-157 -68.8986L-131.344 -56.8028L-113.294 -47.3738L-95.114 -36.8199L-78.3487 -25.7536L-66.295 -16.6301L-59.1843 -10.581L-54.3334 -6.06479L-49.5714 -1.22675L-44.0983 5.00691L-39.7284 10.7328L-36.4802 15.6466L-34.1036 19.7859L-31.3299 25.5793L-29.24 31.2465L-27.6538 37.4787L-26.9234 42.4478L-26.6723 46.8499L-26.9584 53.1316L-27.602 57.4899L-29.0618 63.4144L-30.6098 67.8859L-31.9747 71.1333L-34.691 76.5305L-37.4145 81.0789L-41.8033 87.3272L-47.543 94.2518L-54.082 101.058L-64.5176 110.411L-77.0959 120.097L-92.8944 130.678L-111.242 141.48L-134.073 153.393L-165.483 167.869L-214.751 187.591L-277.363 209.218L-364.712 235.271L-477.333 264.286M-356.211 -115.816L-253.448 -89.2088L-192.307 -70.5696L-152.744 -56.7495L-119.386 -43.4823L-97.9799 -33.8381L-81.23 -25.4088L-66.9218 -17.3479L-56.6308 -10.8672L-49.1318 -5.65054L-41.6103 0.154271L-34.4059 6.47528L-29.9673 10.9075L-25.0004 16.6095L-21.4277 21.4687L-18.7251 25.8537L-17.1278 28.9228L-15.5157 32.6451L-14.6256 35.1684L-13.6614 38.6713L-13.0127 42.1755L-12.7254 44.9181L-12.6689 49.323L-12.8401 51.6454L-13.4135 55.4157L-14.431 59.4466L-15.9054 63.5726L-17.1522 66.366L-18.2215 68.4657L-21.3919 73.7161L-23.7099 76.9663L-27.6063 81.7392L-32.9015 87.3161L-38.6703 92.6117L-44.5153 97.4061L-53.9788 104.315L-68.8705 113.742L-79.5264 119.734L-96.3303 128.285L-120.565 139.222L-165.517 156.641L-223.489 175.653L-301.036 197.357L-415.86 224.674M-47.4164 1.12782L-35.2981 7.58971L-16.2899 16.4014L-2.97012 21.6124L12.7555 26.7424L22.911 29.4671L39.0014 32.8391L53.4276 34.877L65.8317 35.8845L77.7941 36.2038L91.637 35.7738L105.656 34.4642L117.974 32.5876L129.03 30.3248L144.255 26.3131L155.63 22.639L169.882 17.2179L186.911 9.54845L200.493 2.50106L214.966 -5.9173L227.411 -13.9059L248.378 -28.9321L260.75 -38.7218M-96.1699 132.707L-80.9915 121.427L-68.1307 112.721L-54.5059 104.351L-43.2852 98.1173L-32.1481 92.5182L-22.2402 88.03L-13.3715 84.4061L1.12141 79.2844L11.5206 76.2211L24.6814 73.0773L37.5139 70.8003L45.0526 69.8255L58.7529 68.7419L69.8151 68.5144L79.1054 68.7702L89.2599 69.5166L99.8305 70.8113L111.132 72.7798L123.014 75.5003L132.067 78.0212L140.57 80.7417L154.508 85.9405L170.397 92.9873L187.595 101.959L198.87 108.6L213.746 118.281L231.011 130.828L249.115 145.499L271.004 165.307L294.199 188.768L309.503 205.639M-245.2 198.496L-214.851 175.611L-196.918 163.294L-178.511 151.584L-154.361 137.651L-132.352 126.368L-109.574 116.112L-88.5231 107.918L-70.3459 101.836L-47.1568 95.4127L-25.0354 90.6813L-6.13692 87.7189L10.4073 85.9421L28.2345 84.8809L48.5857 84.7516L61.4502 85.2649L72.9887 86.1175L93.0096 88.4769L109.356 91.231L129.135 95.5588L145.649 100.007L166.421 106.68L187.001 114.478L208.735 123.993L234.174 136.801L252.48 147.133L276.592 162.167L303.372 180.763L328.599 200.107L357.784 224.698L390.571 255.154L423.506 288.761L458.534 327.82M-477.333 264.286L-430.514 233.618L-393.254 211.487L-357.696 192.246L-324.232 175.816L-285.826 158.963L-239.042 141.327L-203.78 130.136L-179.444 123.464L-149.146 116.361L-123.771 111.437L-89.9397 106.327L-63.2733 103.471L-28.1171 101.283L9.91431 100.936L40.95 102.21L78.4188 105.612L109.993 110.061L138.771 115.377L171.004 122.759L203.216 131.643L246.402 145.919L283.336 160.276L320.059 176.515L357.261 194.962L395.933 216.269L435.801 240.508L484.603 273.321L530.651 307.453L589.363 355.437L648.835 409.146L690.667 450M-199.586 -86.5915L-183.19 -73.687L-164.652 -60.1558L-146.178 -47.789L-128.946 -37.2605L-111.729 -27.7111L-96.2272 -19.9422L-82.2048 -13.5919L-62.9378 -5.91533L-46.7476 -0.403496L-29.4333 4.54234L-11.4482 8.64155L7.33555 11.7933L20.5336 13.3175L36.7347 14.4097L49.964 14.6647L65.5135 14.2327L80.4252 13.0756L94.3172 11.3432L112.305 8.16233L129.919 4.02194L149.65 -1.82121L169.315 -8.91152L189.761 -17.6249L209.634 -27.4043L226.337 -36.6228L251.28 -52.0882L272.81 -67.0732L299.884 -88.0689L322.1 -107.088L345.998 -129.351L377.936 -162.018L403.477 -190.543L412.92 -201.629M-30.2419 66.9173L-6.00528 61.2639L11.2478 58.0817L30.885 55.3122L52.6655 53.3019L71.499 52.4636L91.1542 52.4789L108.021 53.2168L126.612 54.8058L150.984 58.121L170.395 61.7615L197.514 68.3322L223.19 76.1482L243.575 83.4586M-186.29 176.566L-160.131 156.358L-136.176 139.914L-113.279 126.038L-92.1269 114.819L-79.7277 108.957L-62.0145 101.499L-45.366 95.4709L-28.3921 90.3053L-15.1405 86.9602L-0.206077 83.9132L13.0764 81.8467L30.7525 80.0364L42.1232 79.4389L60.1448 79.4016L75.5387 80.253L96.0069 82.6454L114.437 86.0306L128.633 89.4334L144.547 94.0708L155.411 97.7361L174.883 105.32L189.109 111.684L206.91 120.626L227.876 132.553L252.25 148.317L274.095 164.179L291.42 177.925L317.951 200.971L336.411 218.434L366.532 249.438L391.047 276.973L399.623 287.093M-331.073 -130.451L-299.172 -107.432L-271.955 -89.5011L-236.66 -68.5915L-204.849 -52.0134L-180.348 -40.71L-153.338 -29.7271L-128.561 -21.0146L-106.045 -14.2284L-78.3841 -7.36544L-49.7942 -1.98004L-15.068 2.22605L5.16144 3.49554L24.1823 3.89628L45.9095 3.41375L69.5098 1.75348L97.5044 -1.74995L130.292 -7.96976L157.135 -14.7619L180.25 -21.8373L204.353 -30.4236L231.23 -41.4537L255.621 -52.7915L282.184 -66.5762L316.423 -86.5556L348.475 -107.516L381.933 -131.723L415.252 -158.192L447.978 -186.486L489.942 -226.096L530.121 -267.526L544.406 -283.083M-136.613 154.637L-120.969 142.362L-106.927 132.206L-91.571 122.032L-74.7779 112.022L-60.393 104.374L-46.8195 97.9418L-28.4886 90.4637L-14.3236 85.6364L0.350836 81.5099L14.7169 78.3323L29.7861 75.9158L42.8743 74.5785L55.7872 73.9529L65.8896 73.944L80.2088 74.6541L97.4065 76.6269L108.808 78.6086L123.389 81.926L139.755 86.6958L156.173 92.5933L172.644 99.6294L185.931 106.122L205.653 117.105L224.758 129.277L241.194 140.956L261.913 157.269L283.99 176.604L304.511 196.382L326.541 219.552L345.723 241.36L349.946 246.366M-260.713 -108.521L-232.327 -87.1813L-201.065 -66.145L-176.962 -51.6901L-154.408 -39.5554L-127.615 -26.8882L-107.5 -18.6256L-87.1673 -11.361L-67.2263 -5.29816L-47.9568 -0.438451L-31.5684 2.92203L-9.59536 6.31319L5.1396 7.87215L27.0184 9.12781L51.2461 9.04137L73.9598 7.55065L89.4339 5.7538L108.522 2.66511L125.021 -0.781137L144.34 -5.73101L162.443 -11.2652L180.457 -17.6324L199.389 -25.2486L221.733 -35.457L240.725 -45.172L265.467 -59.2585L290.483 -75.147L315.335 -92.57L340.316 -111.729L375.333 -141.364L404.594 -168.613L432.094 -196.287L469.121 -236.706L474.046 -242.356M-105.034 -42.7318L-85.5535 -28.1658L-69.8141 -17.6743L-57.5811 -10.3085L-39.5532 -0.710386L-22.8128 6.86123L-7.66798 12.5986L8.52147 17.563L18.6537 20.0555L31.8598 22.5941L42.2274 24.0239L56.881 25.2L72.2869 25.3696L83.8306 24.7799L97.2526 23.3222L106.735 21.7919L118.114 19.4089L129.584 16.4028L145.346 11.2829L156.572 6.9382L167.541 2.13206L178.85 -3.40315L196.918 -13.4701L211.948 -22.9898L232.057 -37.3553L248.098 -50.1504L266.144 -65.9622L289.869 -89.0333L312.057 -112.957L318.367 -120.175M-32.458 23.0576L-4.93382 30.9832L14.194 35.1969L33.6017 38.3876L46.3324 39.8873L62.0542 41.0906L81.757 41.5863L99.5064 41.0689L120.071 39.3268L141.192 36.2607L157.247 33.0642L176.179 28.3347L197.978 21.601L218.258 14.0993L242.652 3.49525L245.791 2.00501M-71.6085 -20.802L-56.2905 -10.4612L-40.9568 -1.26625L-28.5022 5.35078L-15.2742 11.5428L-4.43994 15.9729L9.60591 20.8565L22.1034 24.3855L32.5636 26.7484L45.3653 28.9075L56.6078 30.1386L64.8708 30.6469L75.4288 30.8074L89.4752 30.1707L100.222 29.028L110.384 27.4247L122.904 24.7508L134.419 21.6105L147.831 17.1303L163.544 10.7552L174.013 5.83358L186.415 -0.694628L200.145 -8.80459L218.244 -20.9129L236.918 -35.0948L254.232 -49.7781L274.305 -68.6458L284.942 -79.4486M-410.667 -152.381L-368.068 -123.347L-342.952 -107.68L-308.028 -87.687L-278.703 -72.5081L-248.29 -58.3179L-219.496 -46.3387L-188.487 -35.022L-159.149 -25.8274L-125.328 -17.0518L-98.3187 -11.447L-72.0178 -7.18658L-45.3573 -4.07383L-20.8939 -2.28573L8.67816 -1.48893L38.7629 -2.21112L71.6502 -4.7693L98.642 -8.24924L122.417 -12.3453L152.847 -18.9967L184.408 -27.566L215.128 -37.5411L253.246 -52.1594L286.239 -66.8157L318.566 -82.9801L342.493 -96.0936L374.385 -115.093L402.18 -133.068L446.277 -164.294L487.5 -196.488L524.915 -228.221L573.08 -272.592L610.368 -309.664L624 -323.81M-64.9603 110.777L-52.1865 102.447L-35.6114 92.83L-20.3219 85.153L-5.93615 78.9757L2.77979 75.7265L10.1712 73.2628L22.9876 69.6256L31.0087 67.7587L40.3477 65.9825L52.6678 64.2931L65.316 63.3326L85.3064 63.4134L92.8827 63.9558L103.397 65.1747L113.577 66.871L126.405 69.7318L139.256 73.4066L150.986 77.4672L168.064 84.5847L178.233 89.5016L193.232 97.6794L208.239 106.965L224.87 118.544L246.695 135.797L265.34 152.385L278.294 164.912M-26.7331 44.9875L83.2591 46.9725L188.223 45.0535L240.066 42.7318M-42.9843 88.8471L-28.1332 81.7128L-12.9586 75.3817L5.7831 68.8997L17.3308 65.6417L29.7377 62.7666L43.2697 60.3692L57.4925 58.68L74.7005 57.7741L84.1962 57.8077L93.8957 58.2338L110.422 59.8715L122.837 61.8578L137.68 65.0839L151.517 68.9261L165.008 73.4479L177.616 78.366L195.918 86.6957L210.443 94.3091L229.512 105.653L243.549 114.981L256.318 124.185M-313.344 220.426L-285.087 199.729L-255.54 179.999L-231.136 165.177L-200.095 148.251L-172.901 135.196L-151.538 126.102L-129.153 117.668L-107.17 110.478L-82.4883 103.695L-59.5887 98.6213L-35.0092 94.482L-10.6517 91.7145L9.46116 90.4306L32.8055 90.0761L53.3369 90.7729L72.5583 92.2806L99.7399 95.8248L129.845 101.681L157.964 108.984L186.76 118.297L214.766 129.136L232.14 136.742L255.919 148.249L275.745 158.81L299.109 172.386L331.446 193.192L362.343 215.259L400.624 245.565L437.321 277.696L479.899 318.756L524.088 365.662L526.678 368.546M-147.693 -64.6617L-127.03 -48.5692L-112.811 -38.4786L-89.6223 -23.744L-69.1546 -12.5105L-53.8182 -5.18225L-38.1144 1.35471L-20.9414 7.38347L-6.40097 11.5735L4.98406 14.2688L20.8971 17.1745L41.4841 19.4434L57.5294 20.046L68.5852 19.8669L81.3539 19.0568L95.8618 17.3514L113.374 14.1807L126.675 10.9597L140.784 6.77594L159.835 -0.126448L173.833 -6.11542L189.584 -13.7835L207.414 -23.6517L222.274 -32.8397L243.953 -47.8148L262.294 -61.9396L276.723 -73.9896L300.254 -95.4121L328.385 -123.906L352.704 -151.068L361.027 -160.902M-390.722 242.356L-359.068 220.241L-319.78 195.301L-280.987 173.4L-251.605 158.613L-221.643 145.135L-193.493 133.943L-161.548 122.97L-137.163 115.829L-110.141 109.165L-81.5168 103.54L-55.9182 99.7573L-26.2227 96.8467L2.66622 95.5377L32.8833 95.7752L59.5032 97.3455L87.2504 100.339L108.566 103.58L135.23 108.785L165.799 116.326L199.735 126.666L226.124 136.14L255.164 148.012L285.734 162.15L314.212 176.833L353.419 199.435L391.569 224.082L436.149 256.202L476.327 288.214L513.537 320.451L561.179 365.362L604.055 409.273" />

<path stroke="lightgray" stroke-width="0.25pt" stroke-dasharray="1,1" d="" />

<rect height="100" width="200" stroke="none" y="0" x="0" fill="url(#theRadGrad)" />

</g>

<path stroke="none" d="M30.8726 32.643L28.9325 32.2445L29.2863 33.3398L29.5521 34.4688C28.482 33.8509 27.3912 33.2713 26.2955 32.734C25.1823 32.1869 24.0717 31.6825 22.9794 31.226C21.8765 30.7606 20.7986 30.3445 19.7612 29.9837C18.7191 29.6161 17.723 29.3063 16.787 29.0614C15.06 28.5996 13.7816 28.445 12.9506 28.5913C12.1206 28.7511 11.7184 29.232 11.7156 30.0152C11.6754 30.8252 11.9823 31.9421 12.5934 33.3314C13.1031 34.7434 13.8481 36.414 14.7872 38.2921C15.1429 39.111 15.4865 39.8831 15.8287 40.6121C16.1452 41.3393 16.4666 42.0215 16.802 42.6625C17.1176 43.3 17.4524 43.8949 17.8143 44.451C18.1612 45.0023 18.5394 45.5138 18.9556 45.9892C19.3606 46.459 19.8069 46.892 20.3004 47.2922C20.7857 47.6862 21.3207 48.0469 21.9104 48.3783C22.4943 48.7032 23.1349 48.9986 23.8365 49.2683C24.534 49.5317 25.294 49.7693 26.1204 49.9851L27.1855 50.2478L28.2464 50.5006L29.3032 50.7439L30.3563 50.9779C31.1733 51.1577 31.8038 51.2937 32.3026 51.4078C32.8005 51.5199 33.1675 51.6119 33.4571 51.7034C33.7462 51.7939 33.958 51.8844 34.1456 51.993C34.3323 52.1008 34.4941 52.2266 34.6832 52.3877C34.9495 52.6172 35.1605 52.8751 35.3141 53.1588C35.4621 53.4401 35.5505 53.7476 35.5773 54.0791C35.5963 54.4087 35.5513 54.7629 35.4405 55.1397C35.3194 55.5154 35.1299 55.9147 34.8701 56.3359C34.5902 56.7678 34.2641 57.1872 33.8924 57.5956C33.5086 58.0052 33.0807 58.4047 32.6088 58.7956C32.1262 59.1886 31.6008 59.574 31.0329 59.953C30.4551 60.335 29.8358 60.7115 29.1751 61.0838C26.1909 62.7361 23.9476 63.6213 21.087 64.2859C20.1248 64.5171 19.3063 64.6633 18.6254 64.7194C17.946 64.7748 17.404 64.736 16.9904 64.5983C16.576 64.4558 16.2854 64.211 16.1064 63.8592C15.9195 63.4991 15.8346 63.0289 15.8355 62.4438C15.8245 61.9037 15.861 61.3405 15.9503 60.7315C16.0185 60.1145 16.1344 59.4528 16.2979 58.7226C16.4326 57.9852 16.6053 57.1801 16.809 56.2822C16.9709 55.3777 17.1475 54.3808 17.3225 53.2655L15.2978 53.4517L14.603 55.6174L13.6836 57.7814L12.5395 59.9439L11.171 62.1046L9.57825 64.2638L7.76144 66.4214L5.72073 68.5773L3.45629 70.7315L5.53495 70.0614L6.38861 69.4675L7.22652 68.8783L8.04877 68.2936L8.8555 67.7135L9.6468 67.1379L10.4228 66.5668L11.1836 66.0003L11.9293 65.4382C12.0478 65.9876 12.2361 66.4088 12.5245 66.7105C12.8074 67.0023 13.1994 67.1803 13.7258 67.2512C14.2533 67.3176 14.9186 67.2817 15.7437 67.1495C16.5711 67.0178 17.5574 66.7948 18.722 66.4868C19.7059 66.2313 20.7219 65.9277 21.7584 65.5822C22.7908 65.2432 23.8393 64.864 24.8919 64.4501C25.9357 64.0437 26.9787 63.6033 28.009 63.1334C29.0259 62.6713 30.025 62.1796 30.9952 61.6621C31.947 61.152 32.865 60.6153 33.7382 60.0554C34.5887 59.5016 35.3897 58.9232 36.1311 58.3229C36.8454 57.7271 37.4955 57.1076 38.0716 56.4665C38.6164 55.8279 39.0825 55.1653 39.4608 54.4805C39.7789 53.8467 39.9938 53.2411 40.1103 52.6656C40.2015 52.0881 40.1995 51.5389 40.1092 51.0207C39.9984 50.4987 39.8043 50.0063 39.5319 49.5465C39.2435 49.0818 38.8815 48.6486 38.4511 48.2507C38.1461 47.9752 37.8004 47.7213 37.3939 47.4808C36.9832 47.2374 36.5128 47.0067 35.9617 46.7801C35.407 46.5498 34.7719 46.3224 34.0347 46.0884C33.2938 45.8492 32.4503 45.6016 31.4817 45.3346L30.1785 44.9625L28.8667 44.5762L27.5459 44.1751L26.2158 43.7589C25.1004 43.3937 24.102 42.9743 23.2119 42.4958C22.3096 42.006 21.5096 41.4578 20.8017 40.8474C20.0743 40.2273 19.431 39.5478 18.8595 38.8059C18.2593 38.0582 17.7212 37.253 17.2307 36.3889C16.6194 35.3972 16.1854 34.5188 15.9377 33.7781C15.6598 33.0452 15.5891 32.4548 15.735 32.0256C15.8697 31.6058 16.2368 31.3458 16.8415 31.2589C17.4465 31.1768 18.2951 31.2607 19.3839 31.5194C20.2806 31.7288 21.2259 32.0187 22.2102 32.3831C23.1892 32.7407 24.2003 33.1698 25.2321 33.6656C26.2506 34.1524 27.2805 34.7042 28.3092 35.3172C29.3146 35.9201 30.3078 36.5836 31.2748 37.3048C31.9518 37.8178 32.5794 38.3237 33.1661 38.8296C33.7352 39.3312 34.2629 39.8335 34.7562 40.3431C35.2313 40.8491 35.6706 41.3631 36.0797 41.8912C36.469 42.4163 36.8256 42.956 37.1539 43.5164L38.1662 43.5785L39.1784 43.6393L38.9229 42.9574L38.6324 42.2749L38.3071 41.5916L37.9467 40.9076L37.5513 40.2228L37.1207 39.5374L36.655 38.8512L36.1541 38.1643L35.618 37.4767L35.0465 36.7884L34.4396 36.0993L33.7973 35.4095L33.1195 34.719L32.4061 34.0277L31.6572 33.3357L30.8726 32.643M100.324 36.4146L98.3302 36.5896L97.9006 37.1022L97.4767 37.6102L97.0578 38.1137L96.6435 38.6129C95.7435 38.2702 94.9105 37.9911 94.1071 37.7685C93.2941 37.5461 92.5154 37.379 91.7312 37.2603C90.9413 37.1405 90.1494 37.0682 89.3139 37.0361C88.4758 37.0017 87.5968 37.0063 86.6344 37.0421C85.5929 37.0764 84.6266 37.1443 83.7244 37.2497C82.8253 37.3509 81.9927 37.4903 81.2149 37.6713C80.4419 37.849 79.7246 38.0689 79.0504 38.3346C78.3808 38.5977 77.7535 38.9073 77.1545 39.2667C76.6851 39.5473 76.263 39.837 75.8866 40.1369C75.5092 40.4363 75.1755 40.7464 74.8839 41.0681C74.5889 41.3899 74.3337 41.7236 74.1165 42.07C73.8934 42.417 73.7061 42.7768 73.5525 43.1504C73.3903 43.5246 73.2594 43.9125 73.1578 44.3148C73.0449 44.7177 72.9587 45.135 72.897 45.5672C72.7316 46.4331 72.6494 47.3575 72.6315 48.3449C72.605 48.7179 72.5905 49.083 72.5885 49.4399C72.5768 49.7966 72.5787 50.1451 72.5949 50.4849C72.6025 50.8245 72.6256 51.1554 72.6649 51.4774C72.6969 51.799 72.7463 52.1117 72.8139 52.4152C72.8755 52.7183 72.9564 53.0123 73.0576 53.2968C73.1541 53.581 73.2719 53.8559 73.4118 54.1213C73.5484 54.3865 73.7082 54.6422 73.892 54.8884C74.0738 55.1345 74.2805 55.3713 74.5128 55.5986C74.7592 55.8435 75.036 56.0751 75.3419 56.2929C75.648 56.5111 75.9844 56.7157 76.3492 56.9064C76.7153 57.0978 77.1107 57.2755 77.5334 57.4391C77.9582 57.6037 78.4106 57.7543 78.8888 57.8906C79.3692 58.0283 79.8752 58.1518 80.4045 58.2605C80.936 58.3709 81.4904 58.4667 82.0651 58.5474C82.6416 58.6298 83.2377 58.6972 83.8506 58.7488C84.4645 58.8023 85.0942 58.84 85.7368 58.8611C86.8612 58.9024 87.9221 58.8982 88.9445 58.842C89.962 58.7891 90.9361 58.6823 91.8909 58.5155C92.8361 58.3499 93.7571 58.1226 94.6768 57.8276C95.5822 57.5317 96.4811 57.1662 97.3952 56.725L98.117 58.1803L98.8604 59.6597L101.108 59.8777L101.205 59.0062L101.296 58.1347L101.379 57.2632L101.455 56.3916L101.523 55.5201L101.585 54.6486L101.639 53.7771L101.686 52.9056C101.707 52.4777 101.721 52.1549 101.736 51.908C101.75 51.661 101.766 51.49 101.788 51.3658C101.81 51.2416 101.839 51.1642 101.881 51.1046C101.923 51.0449 101.977 51.003 102.05 50.9496C102.158 50.8735 102.301 50.8102 102.495 50.7593C102.688 50.7083 102.932 50.6696 103.242 50.6428C103.551 50.6159 103.927 50.6011 104.384 50.5979C104.84 50.5948 105.378 50.6037 106.013 50.6243L106.719 50.6479L106.719 49.0803L105.79 49.0653L104.86 49.0509L103.931 49.037L103.002 49.0237L102.073 49.011L101.143 48.9988L100.214 48.9872L99.2848 48.9762L98.3556 48.9658L97.4264 48.9559L96.4971 48.9465L95.5679 48.9377L94.6386 48.9295L93.7094 48.9219L92.7801 48.9148L91.8509 48.9083L91.7592 50.2914L92.653 50.3043C93.147 50.3119 93.5842 50.3212 93.9708 50.3349C94.3575 50.3488 94.6937 50.367 94.9856 50.3922C95.2776 50.4177 95.5254 50.4501 95.7353 50.4922C95.9452 50.5346 96.1171 50.5866 96.2573 50.6512C96.3975 50.7159 96.5059 50.7931 96.5888 50.8855C96.6715 50.9781 96.7285 51.0859 96.7659 51.2117C96.8031 51.3376 96.8205 51.4815 96.824 51.6462C96.8271 51.811 96.816 51.9964 96.7968 52.2055C96.6566 53.5132 96.1015 54.7099 95.389 55.4059C95.2001 55.5826 94.9803 55.7503 94.7335 55.9082C94.4848 56.0657 94.2089 56.2133 93.9098 56.3502C93.6087 56.4868 93.2844 56.6128 92.941 56.7273C92.5955 56.8417 92.2311 56.9447 91.852 57.0356C91.471 57.1265 91.0756 57.2055 90.6701 57.2717C90.2631 57.3382 89.8464 57.3921 89.4246 57.4326C89.0017 57.4736 88.5743 57.5013 88.1467 57.515C87.7186 57.5293 87.2911 57.5297 86.8688 57.5153C86.4529 57.5019 86.0427 57.4742 85.6412 57.4333C85.2401 57.3932 84.8483 57.34 84.4686 57.2746C84.0898 57.2099 83.7235 57.1331 83.3727 57.0451C83.0227 56.9578 82.6884 56.8592 82.3724 56.7502C82.0574 56.6419 81.7606 56.523 81.4848 56.3946C81.2098 56.2667 80.9554 56.129 80.7243 55.9825C80.4937 55.8363 80.2859 55.6811 80.1033 55.5178C79.9207 55.3547 79.7629 55.1834 79.6321 55.0046C79.4899 54.808 79.3662 54.6044 79.2603 54.3926C79.153 54.1808 79.0629 53.9608 78.9897 53.7313C78.9141 53.5019 78.8545 53.263 78.8102 53.0134C78.7627 52.7639 78.7296 52.5037 78.7102 52.2318C78.6865 51.9598 78.6755 51.6761 78.676 51.3795C78.6712 51.0828 78.6767 50.7732 78.6915 50.4496C78.6997 50.126 78.7157 49.7884 78.7383 49.4358C78.7527 49.083 78.7722 48.7153 78.7952 48.3313C78.8088 47.9312 78.8253 47.5428 78.8456 47.1661C78.8565 46.7895 78.8724 46.4247 78.8942 46.0718C78.9079 45.719 78.9287 45.3782 78.9574 45.0494C78.9793 44.7207 79.0104 44.404 79.0514 44.0996C79.087 43.7952 79.1337 43.5029 79.1922 43.223C79.2465 42.9431 79.3138 42.6754 79.3948 42.42C79.4726 42.1647 79.5652 41.9216 79.673 41.6909C79.7787 41.4602 79.9006 41.2417 80.0392 41.0357C80.1765 40.8295 80.3313 40.6356 80.504 40.4541C80.6762 40.2724 80.8668 40.103 81.0762 39.946C81.2857 39.7886 81.5143 39.6435 81.7624 39.5108C82.011 39.3776 82.2793 39.2567 82.5672 39.1481C82.856 39.0389 83.1645 38.942 83.4929 38.8573C83.8221 38.772 84.171 38.6989 84.5396 38.6381C84.9088 38.5766 85.2974 38.5273 85.7052 38.4902C86.1133 38.4524 86.5403 38.4268 86.9857 38.4135C87.351 38.402 87.7127 38.3996 88.0706 38.4062C88.4282 38.4124 88.7817 38.4277 89.1309 38.4523C89.4796 38.4765 89.8236 38.51 90.1628 38.5529C90.5012 38.5955 90.8345 38.6476 91.1625 38.7091C91.4894 38.7705 91.8108 38.8415 92.1263 38.9221C92.4406 39.0027 92.7489 39.093 93.051 39.1931C93.3516 39.2932 93.6458 39.4032 93.9333 39.5231C94.2193 39.6431 94.4984 39.7732 94.7706 39.9132C95.0411 40.0535 95.3044 40.2038 95.5605 40.3643C95.8147 40.5251 96.0616 40.6961 96.3009 40.8773C96.5383 41.0589 96.7682 41.2507 96.9902 41.4528C97.2103 41.6554 97.4226 41.8682 97.627 42.0914C97.8295 42.3151 98.024 42.5492 98.2104 42.7935C98.3949 43.0385 98.5713 43.2938 98.7395 43.5594C98.9059 43.8257 99.0641 44.1022 99.214 44.3891C99.362 44.6766 99.5018 44.9744 99.6333 45.2824L101.651 45.2394L101.595 44.6847L101.537 44.1304L101.474 43.5765L101.409 43.0231L101.339 42.4701L101.267 41.9175L101.19 41.3654L101.11 40.8136L101.026 40.2623L100.938 39.7114L100.846 39.1609L100.75 38.6108L100.65 38.0611L100.545 37.5119L100.437 36.963L100.324 36.4146M139.604 29.8598L138.632 30.1052L137.661 30.3466L136.69 30.5841L135.718 30.8177L134.747 31.0472L133.775 31.2729L132.804 31.4946L131.833 31.7124L130.861 31.9262L129.89 32.1361L128.918 32.342L127.947 32.544L126.976 32.742L126.004 32.9361L125.033 33.1263L124.061 33.3125L123.09 33.4948L122.119 33.6731L121.147 33.8475L120.176 34.0179L119.204 34.1844L118.233 34.347L117.262 34.5056L116.29 34.6602L115.319 34.811L114.348 34.9577L113.376 35.1006L112.405 35.2395L111.433 35.3744L110.462 35.5054L109.491 35.6325L108.519 35.7556L108.469 37.3524L109.385 37.2493C109.899 37.1899 110.357 37.1389 110.763 37.0983C111.169 37.057 111.524 37.0263 111.833 37.008C112.142 36.9894 112.406 36.9834 112.63 36.9916C112.854 36.9998 113.039 37.0223 113.19 37.0608C113.341 37.0993 113.458 37.1538 113.548 37.2259C113.638 37.298 113.701 37.3876 113.742 37.4962C113.784 37.6048 113.804 37.7324 113.81 37.8802C113.816 38.0282 113.806 38.1964 113.789 38.3863L113.697 39.4355L113.675 39.7046L113.654 39.9737L113.634 40.2428L113.615 40.5119L113.596 40.781L113.578 41.0501L113.56 41.3192L113.544 41.5883L113.528 41.8574L113.513 42.1264L113.498 42.3955L113.484 42.6646L113.471 42.9337L113.459 43.2028L113.448 43.4719L113.437 43.741L113.427 44.0101L113.417 44.2791L113.409 44.5482L113.401 44.8173L113.394 45.0864L113.387 45.3555L113.381 45.6246L113.376 45.8937L113.372 46.1628L113.368 46.4319L113.366 46.7009L113.364 46.97L113.362 47.2391L113.361 47.5082L113.362 47.7773L113.362 48.0464L113.364 48.3155L113.366 48.5846L113.369 48.8536L113.373 49.1227L113.377 49.3918L113.382 49.6609L113.388 49.93L113.395 50.1991L113.402 50.4682L113.41 50.7373L113.419 51.0064L113.428 51.2755L113.439 51.5446L113.45 51.8136L113.461 52.0827L113.474 52.3518L113.487 52.6209L113.501 52.89L113.515 53.1591L113.531 53.4282L113.547 53.6973L113.563 53.9663L113.581 54.2354L113.599 54.5045L113.618 54.7736L113.638 55.0427L113.658 55.3118L113.679 55.5809L113.701 55.85L113.724 56.119L113.747 56.3882L113.771 56.6572L113.871 57.7064C113.891 57.8964 113.901 58.0645 113.897 58.2122C113.892 58.3599 113.872 58.4871 113.831 58.5952C113.79 58.7032 113.727 58.7921 113.637 58.8632C113.546 58.9342 113.427 58.9874 113.275 59.0244C113.122 59.0613 112.936 59.0819 112.709 59.0878C112.482 59.0938 112.215 59.0852 111.902 59.0636C111.588 59.0422 111.229 59.0082 110.818 58.9631C110.406 58.9186 109.943 58.8635 109.421 58.7994L108.494 58.6883L108.547 60.2851L109.115 60.3603L109.683 60.437L110.252 60.5151L110.82 60.5945L111.388 60.6754L111.957 60.7576L112.525 60.8413L113.094 60.9263L113.662 61.0128L114.23 61.1006L114.799 61.1899L115.367 61.2806L115.935 61.3726L116.504 61.4661L117.072 61.5609L117.64 61.6571L118.209 61.7548L118.777 61.8538L119.345 61.9543L119.914 62.0561L120.482 62.1594L121.05 62.264L121.619 62.3701L122.187 62.4775L122.755 62.5863L123.324 62.6966L123.892 62.8082L124.46 62.9213L125.029 63.0357L125.597 63.1515L126.165 63.2688L126.734 63.3874L126.165 61.3995L124.465 61.0842C123.944 60.9898 123.479 60.9036 123.065 60.8217C122.651 60.7406 122.287 60.6635 121.967 60.5868C121.648 60.5106 121.372 60.4345 121.132 60.355C120.894 60.2759 120.692 60.1932 120.52 60.1034C120.349 60.0138 120.208 59.9171 120.09 59.8095C119.973 59.7022 119.88 59.5841 119.803 59.4516C119.727 59.3192 119.667 59.1724 119.618 59.0077C119.569 58.8431 119.531 58.6604 119.496 58.4564L119.317 57.3292L119.237 56.7777L119.161 56.2262L119.09 55.6748L119.024 55.1233L118.962 54.5718L118.905 54.0204L118.853 53.4689L118.805 52.9174L118.762 52.366L118.724 51.8145L118.691 51.263L118.662 50.7116L118.638 50.1601L118.619 49.6087L118.604 49.0572L118.594 48.5057L119.528 48.5177C119.709 48.52 119.883 48.5232 120.05 48.5274C120.218 48.5315 120.379 48.5366 120.534 48.5428C120.689 48.549 120.837 48.5562 120.98 48.5647C121.123 48.5731 121.261 48.5827 121.393 48.5936C121.525 48.6046 121.652 48.6167 121.773 48.6303C121.895 48.6439 122.012 48.6589 122.124 48.6754C122.237 48.6919 122.345 48.7099 122.449 48.7295C122.553 48.7492 122.652 48.7704 122.748 48.7934C122.844 48.8164 122.937 48.841 123.026 48.8675C123.115 48.8941 123.201 48.9225 123.284 48.9527C123.367 48.9831 123.447 49.0153 123.524 49.0495C123.602 49.0839 123.677 49.1202 123.751 49.1587C123.824 49.1973 123.895 49.2379 123.964 49.2808C124.034 49.3238 124.102 49.369 124.169 49.4166C124.235 49.4642 124.301 49.5142 124.366 49.5667C124.43 49.6192 124.495 49.6743 124.558 49.7318C124.71 49.8747 124.852 50.0217 124.984 50.1747C125.117 50.3283 125.24 50.4878 125.355 50.6549C125.47 50.8226 125.577 50.9978 125.676 51.1825C125.775 51.3675 125.868 51.562 125.953 51.7674C126.039 51.9734 126.119 52.1903 126.193 52.42C126.269 52.6501 126.339 52.8929 126.405 53.1501C126.472 53.4077 126.535 53.6797 126.596 53.9679C126.658 54.2564 126.717 54.5609 126.775 54.8833L129.028 55.1339L128.891 54.2104L128.772 53.2869L128.671 52.3634L128.588 51.4398L128.523 50.5163L128.476 49.5928L128.446 48.6692L128.435 47.7457L128.441 46.8222L128.466 45.8986L128.508 44.9751L128.569 44.0516L128.647 43.1281L128.743 42.2045L128.857 41.281L128.989 40.3575L126.74 40.5997C126.637 41.136 126.519 41.6341 126.383 42.0954C126.252 42.5555 126.1 42.9781 125.927 43.3647C125.756 43.7497 125.563 44.0984 125.342 44.4123C125.124 44.7243 124.879 45.0013 124.605 45.2451C124.331 45.487 124.027 45.6957 123.691 45.8731C123.355 46.0487 122.986 46.1933 122.582 46.3086C122.178 46.4226 121.739 46.5079 121.262 46.5664C120.785 46.6242 120.27 46.6559 119.716 46.6636L118.595 46.6788L118.605 46.1249L118.62 45.5711L118.64 45.0172L118.665 44.4633L118.694 43.9094L118.729 43.3555L118.768 42.8016L118.811 42.2477L118.86 41.6938L118.913 41.1399L118.971 40.586L119.033 40.0321L119.101 39.4782L119.173 38.9243L119.249 38.3704L119.331 37.8165C119.396 37.3987 119.477 37.0644 119.605 36.7916C119.734 36.5181 119.91 36.3057 120.162 36.1321C120.416 35.9575 120.747 35.8214 121.185 35.7013C121.625 35.58 122.172 35.4744 122.858 35.3614L125.197 34.9631C125.721 34.8709 126.22 34.7884 126.693 34.7164C127.167 34.6437 127.615 34.582 128.04 34.5323C128.464 34.4822 128.864 34.4444 129.241 34.4199C129.617 34.3954 129.97 34.3844 130.301 34.388C130.631 34.3918 130.939 34.4105 131.226 34.445C131.512 34.4799 131.777 34.5309 132.022 34.5988C132.266 34.6675 132.49 34.7533 132.694 34.8572C132.899 34.962 133.085 35.0851 133.252 35.2274C133.42 35.3707 133.57 35.5333 133.704 35.7162C133.838 35.9002 133.956 36.1045 134.06 36.3301C134.164 36.5569 134.254 36.8051 134.331 37.0755C134.409 37.3471 134.475 37.6411 134.53 37.9583C134.586 38.2768 134.633 38.6186 134.671 38.9846C134.712 39.352 134.745 39.7435 134.772 40.1603C134.802 40.5785 134.828 41.0219 134.85 41.4916C134.877 41.9626 134.902 42.46 134.927 42.9847L136.997 42.8296L137.051 42.011L137.12 41.1934L137.204 40.3769L137.302 39.5615L137.415 38.7472L137.543 37.9339L137.685 37.1217L137.841 36.3106L138.012 35.5005L138.197 34.6915L138.396 33.8836L138.609 33.0767L138.837 32.2709L139.079 31.4662L139.334 30.6625L139.604 29.8598M148.103 41.8971L147.545 41.9894L146.987 42.0805L146.429 42.1705L145.872 42.2593L145.314 42.347L144.757 42.4336L144.2 42.5191L143.643 42.6035L143.086 42.6867L142.53 42.769L141.974 42.8501L141.417 42.9301L140.861 43.0091L140.305 43.0871L139.749 43.164L139.194 43.2399L139.029 45.531L139.624 45.5109L140.22 45.4905L140.816 45.4699L141.412 45.4492C141.628 45.4416 141.822 45.4408 141.994 45.4502C142.166 45.4595 142.318 45.479 142.451 45.5117C142.584 45.5446 142.698 45.5908 142.796 45.6535C142.894 45.7165 142.976 45.7959 143.044 45.8951C143.111 45.9946 143.165 46.1137 143.207 46.2557C143.25 46.3979 143.282 46.5629 143.304 46.754C143.328 46.9452 143.342 47.1623 143.352 47.4084C143.362 47.6548 143.368 47.93 143.371 48.2374L143.39 49.0918L143.426 49.9462L143.478 50.8006L143.546 51.655L143.63 52.5094L143.729 53.3638L143.845 54.2182L143.977 55.0725L144.125 55.9269L144.29 56.7813L144.47 57.6357L144.666 58.4901L144.878 59.3445L145.106 60.1989L145.351 61.0533L145.611 61.9076L146.387 64.1955C146.493 64.4815 146.58 64.7358 146.645 64.9601C146.712 65.1843 146.756 65.3783 146.774 65.5439C146.793 65.7093 146.786 65.8462 146.749 65.9564C146.713 66.0662 146.646 66.1492 146.547 66.2072C146.447 66.2649 146.315 66.2975 146.146 66.307C145.976 66.3163 145.771 66.3026 145.526 66.2676C145.281 66.2327 144.996 66.1768 144.669 66.1019C144.342 66.0272 143.972 65.9339 143.558 65.8237L143.195 65.728L144.018 67.6635L144.876 67.9096L145.734 68.1589L146.593 68.4113L147.451 68.667L148.309 68.9258L149.167 69.1879L150.026 69.4531L150.884 69.7215L151.742 69.9931L152.601 70.2679L153.459 70.5459L154.317 70.8271L155.176 71.1114L156.034 71.399L156.892 71.6898L157.751 71.9837L156.625 69.631L156.262 69.5158C155.841 69.3827 155.46 69.2571 155.114 69.1342C154.768 69.0119 154.457 68.8923 154.176 68.7706C153.894 68.6496 153.642 68.5266 153.414 68.397C153.186 68.268 152.982 68.1325 152.796 67.9858C152.611 67.8397 152.444 67.6824 152.29 67.5096C152.137 67.3372 151.996 67.1491 151.864 66.9408C151.732 66.7328 151.609 66.5045 151.488 66.2515C151.369 65.9987 151.253 65.721 151.135 65.4139L150.266 62.9579L150.055 62.2997L149.853 61.6416L149.661 60.9834L149.478 60.3253L149.304 59.6671L149.139 59.009L148.983 58.3508L148.837 57.6927L148.7 57.0346L148.572 56.3764L148.454 55.7182L148.345 55.0601L148.245 54.402L148.154 53.7438L148.072 53.0856L148 52.4275L147.937 51.7694L147.884 51.1112L147.839 50.453L147.804 49.7949L147.778 49.1368L147.761 48.4786L147.754 47.8204L147.756 47.1623L147.767 46.5042L147.787 45.846L147.816 45.1878L147.855 44.5297L147.903 43.8716L147.961 43.2134L148.027 42.5553L148.103 41.8971M150.023 27.3398C149.607 27.4618 149.169 27.6727 148.734 27.9481C148.302 28.2211 147.875 28.5576 147.479 28.9346C147.087 29.309 146.727 29.7242 146.423 30.1588C146.124 30.5914 145.881 31.0448 145.717 31.4986C145.563 31.9382 145.499 32.3449 145.515 32.7034C145.533 33.0636 145.628 33.3765 145.79 33.6259C145.953 33.8774 146.181 34.0651 146.463 34.171C146.745 34.2783 147.081 34.3026 147.461 34.2244C147.865 34.1408 148.277 33.9637 148.677 33.7136C149.078 33.4612 149.47 33.1346 149.832 32.7556C150.198 32.3738 150.537 31.9398 150.829 31.4768C151.126 31.0119 151.376 30.5195 151.559 30.0242C151.747 29.5289 151.849 29.0795 151.87 28.6925C151.894 28.3072 151.836 27.9854 151.702 27.742C151.569 27.5009 151.357 27.3379 151.075 27.2667C150.793 27.1967 150.439 27.217 150.023 27.3398M166.8 70.6275C166.094 70.3784 165.553 70.1852 165.126 70.0241C164.699 69.864 164.386 69.7351 164.135 69.6147C163.885 69.4948 163.697 69.3831 163.521 69.2574C163.345 69.132 163.18 68.9926 162.977 68.8174C162.507 68.4172 161.944 67.5431 161.645 66.7456C161.546 66.4737 161.476 66.2269 161.436 66.0044C161.397 65.7816 161.387 65.5829 161.407 65.4076C161.428 65.2318 161.479 65.0793 161.56 64.9494C161.641 64.8189 161.753 64.711 161.896 64.6251C162.038 64.5386 162.212 64.4741 162.417 64.4312C162.622 64.3877 162.859 64.366 163.128 64.3655C163.398 64.3646 163.699 64.3851 164.035 64.4268C164.37 64.4684 164.739 64.5314 165.142 64.6156C165.716 64.7436 166.229 64.8566 166.689 64.9547C167.15 65.0532 167.558 65.1367 167.922 65.2052C168.286 65.2737 168.607 65.3272 168.893 65.3658C169.178 65.4042 169.428 65.4277 169.653 65.4363C169.877 65.4448 170.075 65.4383 170.255 65.4172C170.435 65.3957 170.598 65.3595 170.752 65.3086C170.906 65.2574 171.051 65.1915 171.196 65.111C171.342 65.03 171.487 64.9342 171.641 64.8236C171.922 64.6235 172.175 64.3817 172.4 64.0998C172.625 63.8148 172.824 63.4892 172.995 63.1248C173.168 62.757 173.315 62.3503 173.436 61.9064C173.561 61.4593 173.661 60.9752 173.736 60.456C173.816 59.9337 173.873 59.3769 173.907 58.7875C173.947 58.1956 173.965 57.5718 173.962 56.9184C173.966 56.2632 173.95 55.5792 173.915 54.8689C173.888 54.1577 173.842 53.4212 173.778 52.6621C173.713 51.742 173.639 50.907 173.544 50.1243C173.458 49.3432 173.35 48.616 173.208 47.9106C173.075 47.2081 172.908 46.5289 172.7 45.8419C172.5 45.1595 172.259 44.4714 171.974 43.7472C172.89 42.0676 173.362 41.4846 173.737 41.4501C173.971 41.4285 174.086 41.6925 174.094 42.7013C174.101 43.253 174.152 43.7398 174.242 44.1594C174.336 44.5805 174.467 44.9348 174.634 45.2196C174.802 45.5059 175.004 45.7224 175.237 45.8659C175.47 46.0105 175.734 46.0814 176.026 46.0747C176.317 46.068 176.597 45.9354 176.855 45.6983C177.114 45.4594 177.352 45.1149 177.558 44.6873C177.767 44.2574 177.947 43.7444 178.087 43.1724C178.232 42.5986 178.339 41.9669 178.396 41.3027C178.478 40.4663 178.483 39.7006 178.418 39.028C178.36 38.3584 178.227 37.784 178.027 37.3253C177.829 36.8704 177.56 36.5312 177.225 36.326C176.891 36.1236 176.49 36.0531 176.028 36.1311C175.649 36.1949 175.302 36.3096 174.949 36.5115C174.598 36.7118 174.242 36.9977 173.848 37.4042C173.456 37.807 173.029 38.3274 172.533 38.9982C172.045 39.6613 171.495 40.469 170.856 41.4498C170.428 40.8849 170.022 40.4229 169.618 40.0529C169.216 39.6884 168.814 39.4131 168.39 39.2172C167.966 39.0246 167.521 38.9094 167.034 38.8627C166.547 38.8172 166.018 38.8384 165.427 38.9173C164.725 39.0106 164.041 39.1802 163.38 39.4188C162.719 39.6536 162.083 39.9549 161.476 40.3158C160.871 40.6711 160.297 41.0847 159.76 41.5505C159.226 42.0096 158.731 42.5204 158.28 43.0779C157.835 43.6285 157.435 44.2259 157.086 44.8658C156.745 45.4995 156.458 46.1766 156.228 46.8936C156.009 47.6058 155.851 48.3596 155.758 49.1522C155.678 49.942 155.666 50.773 155.728 51.6431C155.771 52.1564 155.843 52.6629 155.94 53.1605C156.043 53.6588 156.171 54.1488 156.323 54.6283C156.481 55.1091 156.662 55.58 156.865 56.0386C157.072 56.4991 157.301 56.9477 157.549 57.382C157.801 57.8185 158.073 58.2411 158.362 58.647C158.653 59.0554 158.962 59.4474 159.285 59.8202C159.611 60.1957 159.95 60.5519 160.301 60.8859C160.655 61.2226 161.019 61.537 161.392 61.8259C161.208 61.8514 161.033 61.8825 160.866 61.9194C160.699 61.9559 160.541 61.9981 160.39 62.0461C160.24 62.0937 160.098 62.1472 159.965 62.2066C159.831 62.2656 159.706 62.3305 159.59 62.4014C159.473 62.472 159.365 62.5486 159.264 62.6314C159.164 62.7138 159.073 62.8025 158.989 62.8974C158.906 62.9919 158.831 63.0927 158.765 63.2C158.698 63.307 158.64 63.4204 158.591 63.5405C158.541 63.6602 158.5 63.7865 158.468 63.9197C158.435 64.0525 158.411 64.1921 158.396 64.3387C158.381 64.4851 158.374 64.6384 158.376 64.7989C158.379 64.9592 158.39 65.1267 158.409 65.3016C158.43 65.4762 158.459 65.6583 158.496 65.848C158.535 66.0375 158.582 66.2347 158.638 66.4397C158.695 66.6446 158.761 66.8574 158.836 67.0783C158.913 67.2991 158.998 67.5281 159.092 67.7654C159.403 68.5249 159.755 69.2267 160.156 69.8832C160.566 70.5421 161.024 71.1578 161.536 71.7421C162.056 72.3306 162.629 72.8894 163.266 73.4302C163.908 73.9767 164.612 74.5063 165.387 75.0309C165.08 75.0728 164.804 75.1346 164.56 75.216C164.315 75.2957 164.103 75.395 163.922 75.5135C163.741 75.6305 163.593 75.7668 163.476 75.9223C163.36 76.0762 163.276 76.2495 163.224 76.4419C163.173 76.633 163.155 76.8435 163.169 77.0732C163.185 77.3019 163.234 77.5501 163.316 77.8179C163.399 78.0849 163.517 78.3717 163.668 78.6786C163.822 78.985 164.01 79.3118 164.233 79.6591C164.597 80.2182 165.016 80.7763 165.488 81.3328C165.966 81.8911 166.497 82.4496 167.077 83.0072C167.663 83.5682 168.299 84.1298 168.981 84.6908C169.669 85.2563 170.403 85.8223 171.179 86.3872C171.96 86.9576 172.783 87.5277 173.642 88.0955C174.507 88.6695 175.407 89.2415 176.339 89.8094C177.275 90.3837 178.241 90.9539 179.232 91.5171C180.225 92.0865 181.242 92.6484 182.277 93.1998C183.568 93.8945 184.723 94.4859 185.742 94.9701C186.757 95.4569 187.633 95.8316 188.368 96.0909C189.099 96.3485 189.69 96.4869 190.14 96.504C190.587 96.5161 190.895 96.4045 191.066 96.1678C191.235 95.9243 191.27 95.5547 191.174 95.0589C191.08 94.5558 190.859 93.9267 190.516 93.1727C190.181 92.4124 189.729 91.5289 189.166 90.5242C188.618 89.5155 187.965 88.3889 187.214 87.1472C186.521 85.9646 185.804 84.804 185.083 83.6943C184.38 82.5887 183.669 81.5373 182.964 80.5672C182.274 79.6036 181.587 78.7229 180.915 77.9504C180.253 77.1848 179.602 76.5268 178.975 75.9997C178.542 75.6446 178.107 75.3184 177.643 75.0087C177.18 74.7014 176.687 74.4105 176.139 74.124C175.592 73.84 174.988 73.5605 174.303 73.2741C173.619 72.9902 172.851 72.6997 171.976 72.3913L171.329 72.1653L170.682 71.9409L170.035 71.718L169.388 71.4967L168.741 71.277L168.094 71.0589L167.447 70.8424L166.8 70.6275M164.956 42.3797C165.325 42.3497 165.669 42.3773 165.986 42.4613C166.303 42.5464 166.595 42.6891 166.861 42.8882C167.128 43.0892 167.369 43.3473 167.586 43.6612C167.805 43.9775 168 44.3499 168.171 44.7769C168.346 45.2064 168.5 45.6903 168.632 46.2269C168.769 46.7659 168.888 47.3572 168.988 47.9985C169.095 48.6418 169.186 49.3345 169.262 50.0741C169.347 50.8148 169.419 51.6016 169.479 52.4315C169.552 53.2722 169.604 54.0684 169.634 54.8166C169.673 55.5636 169.689 56.2614 169.679 56.9071C169.677 57.5505 169.647 58.1409 169.589 58.6755C169.535 59.2075 169.452 59.6832 169.337 60.1002C169.225 60.5144 169.081 60.8699 168.904 61.1645C168.728 61.4566 168.517 61.6882 168.272 61.8573C168.028 62.0246 167.748 62.1303 167.433 62.1726C167.117 62.2141 166.767 62.1935 166.382 62.1094C166.008 62.0283 165.638 61.8931 165.272 61.7078C164.907 61.524 164.548 61.2911 164.197 61.0128C163.848 60.7366 163.509 60.4158 163.182 60.0536C162.857 59.6941 162.547 59.2935 162.253 58.8551C161.963 58.4193 161.691 57.9456 161.44 57.4369C161.194 56.9307 160.971 56.3891 160.773 55.8147C160.581 55.2422 160.416 54.6363 160.28 53.9993C160.153 53.3634 160.057 52.6955 159.995 51.9975C159.939 51.2623 159.924 50.568 159.946 49.9152C159.977 49.2613 160.043 48.6479 160.142 48.0762C160.248 47.5024 160.385 46.9696 160.553 46.4789C160.724 45.9859 160.924 45.5346 161.149 45.1266C161.378 44.7159 161.632 44.3486 161.908 44.0263C162.187 43.7015 162.487 43.422 162.807 43.19C163.129 42.9558 163.47 42.7697 163.828 42.634C164.187 42.497 164.564 42.4113 164.956 42.3797M172.657 78.3466C173.212 78.5782 173.702 78.7841 174.137 78.9679C174.572 79.1526 174.952 79.3148 175.286 79.4585C175.619 79.6027 175.907 79.7279 176.158 79.8386C176.409 79.9494 176.624 80.0453 176.81 80.1304C176.997 80.2157 177.156 80.2901 177.296 80.3577C177.437 80.4255 177.559 80.4865 177.672 80.5451C177.784 80.6037 177.888 80.6599 177.991 80.7178C178.094 80.7758 178.197 80.8356 178.309 80.9014C178.601 81.0632 178.893 81.2444 179.185 81.4432C179.478 81.643 179.77 81.8607 180.06 82.0945C180.352 82.3293 180.641 82.5804 180.928 82.846C181.215 83.1125 181.5 83.3936 181.78 83.6871C182.062 83.9817 182.339 84.2886 182.61 84.6061C182.883 84.9244 183.151 85.253 183.41 85.5899C183.672 85.9273 183.926 86.2727 184.171 86.624C184.419 86.9757 184.657 87.3328 184.884 87.6931C185.295 88.335 185.632 88.9137 185.896 89.4272C186.164 89.9393 186.356 90.3851 186.472 90.7633C186.589 91.1391 186.629 91.4466 186.589 91.6852C186.551 91.9209 186.432 92.0876 186.233 92.185C186.033 92.2797 185.752 92.3056 185.391 92.2628C185.029 92.2181 184.585 92.1057 184.062 91.9263C183.537 91.7463 182.933 91.5008 182.251 91.1906C181.567 90.8817 180.806 90.5102 179.97 90.0773C179.342 89.755 178.726 89.4211 178.122 89.0775C177.519 88.7362 176.93 88.3856 176.357 88.0272C175.786 87.6712 175.232 87.3076 174.697 86.9378C174.164 86.5704 173.651 86.1968 173.16 85.818C172.672 85.4416 172.206 85.0599 171.765 84.6739C171.326 84.29 170.913 83.9014 170.527 83.5091C170.144 83.1183 169.788 82.7232 169.461 82.3247C169.137 81.927 168.843 81.5251 168.579 81.1197C168.388 80.8224 168.222 80.5443 168.082 80.2839C167.942 80.0232 167.828 79.78 167.737 79.5527C167.648 79.3249 167.583 79.1128 167.542 78.9148C167.502 78.7162 167.485 78.5315 167.492 78.3591C167.5 78.1859 167.531 78.0249 167.585 77.8745C167.64 77.7231 167.718 77.582 167.819 77.4498C167.921 77.3164 168.045 77.1915 168.192 77.0736C168.34 76.9542 168.51 76.8416 168.703 76.734L169.197 76.9318L169.691 77.1307L170.186 77.3306L170.68 77.5317L171.174 77.7338L171.669 77.937L172.163 78.1413L172.657 78.3466M58.043 54.436L58.0376 53.9862L58.0159 53.5341L57.9774 53.0796L57.9219 52.6226L57.8491 52.1632L57.7585 51.7013L57.6499 51.2369L57.5229 50.7698L57.3773 50.3L57.2125 49.8276L57.0285 49.3524L56.8247 48.8744L56.6009 48.3936L56.3567 47.9099L56.0919 47.4233L55.8061 46.9336L55.4989 46.441L55.17 45.9452L54.8191 45.4464L54.4458 44.9444L54.0499 44.4391L53.631 43.9306L53.1887 43.4188L52.7228 42.9037L52.2328 42.3851L51.7186 41.8631L51.1796 41.3376L50.6157 40.8086L50.0264 40.2759L49.4115 39.7397L48.7706 39.1997L48.1034 38.6561C47.5185 38.2027 47.0154 37.7584 46.8328 37.5447C46.6932 37.3845 46.627 37.2553 46.6419 37.1562C46.6561 37.0574 46.7526 36.9888 46.9386 36.9492C47.1247 36.9098 47.401 36.8991 47.7742 36.9157C48.1477 36.932 48.6181 36.9748 49.1918 37.0423L49.7019 37.1013L50.2119 37.1592L50.7219 37.2162L51.2319 37.2721L50.8654 36.8772L50.4852 36.4823L50.0912 36.0874L49.6835 35.6925L48.6612 35.5657L47.6389 35.4345L46.6166 35.2989L45.5943 35.1588L44.572 35.0144L43.5497 34.8655L42.5274 34.7123L41.5051 34.5546L40.4828 34.3926L39.4605 34.2261L38.4382 34.0552L37.4159 33.8799L36.3936 33.7002L35.3713 33.5161L34.349 33.3276L33.3267 33.1347L34.3584 34.0938L35.3195 35.053L36.3395 35.2246C36.9133 35.3194 37.4089 35.4212 37.8715 35.5511C38.333 35.6796 38.76 35.8361 39.1961 36.041C39.6288 36.2444 40.0672 36.4959 40.5518 36.8154C41.0281 37.1329 41.5434 37.5178 42.1329 37.9889L43.9984 39.5871L45.6549 41.1529L47.1091 42.6871L48.3679 44.1909L49.4381 45.6651L50.3266 47.1107L51.04 48.5288L51.5854 49.9202L51.9693 51.286L52.1988 52.627L52.2805 53.9444L52.2213 55.239L52.028 56.5119L51.7075 57.7639L51.2665 58.9961L50.7118 60.2095L51.7787 60.0839L52.8455 59.9632L54.8363 58.6925L56.669 57.44L58.3489 56.205L59.8815 54.9869L61.2722 53.7847L62.5264 52.5978L63.6494 51.4255L64.6468 50.2669L65.5238 49.1214L66.2859 47.9881L66.9385 46.8664L67.487 45.7554L67.9368 44.6545L68.2932 43.5629L68.5617 42.4798L68.7477 41.4045C68.7819 41.1222 68.8192 40.8671 68.8642 40.6367C68.9059 40.4068 68.9569 40.2016 69.0213 40.0191C69.0839 39.8368 69.161 39.677 69.2561 39.5378C69.3505 39.3987 69.4637 39.28 69.5989 39.1796C69.7341 39.0793 69.8917 38.9972 70.075 38.9313C70.2584 38.8653 70.4676 38.8153 70.7054 38.7793C70.9436 38.7431 71.2102 38.7207 71.5083 38.71C71.8066 38.699 72.1361 38.6995 72.4995 38.7094L73.0095 38.7224L72.787 38.3828L72.5561 38.0433L72.3169 37.7037L72.0694 37.3642L71.1814 37.3381L70.2935 37.3087L69.4055 37.276L68.5175 37.24L67.6296 37.2006L66.7416 37.158L65.8536 37.112L64.9657 37.0626L64.0777 37.01L63.1898 36.954L62.3018 36.8947L61.4138 36.832L60.5259 36.7661L59.6379 36.6968L58.75 36.6242L57.862 36.5483L58.2111 36.9148L58.5486 37.2814L58.8742 37.648L59.1881 38.0145L60.1571 38.0882C60.8074 38.1356 61.4219 38.2151 61.989 38.3224C62.5544 38.4282 63.0706 38.562 63.5265 38.7199C63.9791 38.8767 64.37 39.0581 64.6887 39.2602C65.003 39.4618 65.2442 39.6847 65.4022 39.9253C65.5365 40.1358 65.6466 40.411 65.7187 40.7033C65.7842 40.996 65.8106 41.3061 65.7901 41.5856L65.6959 42.3457L65.5578 43.1105L65.3743 43.8801L65.1434 44.6548L64.8635 45.4349L64.5328 46.2206L64.1494 47.012L63.7118 47.8096L63.2181 48.6134L62.6665 49.4237L62.0552 50.2408L61.3826 51.0649L60.6468 51.8962L59.8462 52.735L58.9788 53.5815L58.043 54.436" fill="black" />

<g>

<path stroke-width="0.5pt" d="M59.2954 4.501L59.6622 3.04656M61.4763 5.0742L61.8721 3.62737M63.627 5.68598L64.0521 4.24748M63.627 5.68598L64.0521 4.24748M67.83 7.02295L68.3147 5.60341M69.8784 7.74687L70.3935 6.33808M71.8889 8.50687L72.4348 7.1097M71.8889 8.50687L72.4348 7.1097M75.7891 10.1322L76.3977 8.76118M77.6751 10.9959L78.3158 9.63962M79.5162 11.8927L80.1894 10.5522M79.5162 11.8927L80.1894 10.5522M83.0568 13.7817L83.7963 12.4767M84.7531 14.7722L85.5264 13.4869M86.398 15.7921L87.2056 14.5281M86.398 15.7921L87.2056 14.5281M89.5276 17.9161L90.4051 16.6995M91.0096 19.0181L91.9225 17.8279M92.4346 20.1455L93.3832 18.9836M92.4346 20.1455L93.3832 18.9836M95.1084 22.4718L96.1291 21.3727M96.3549 23.6686L97.4118 22.6042M97.5397 24.8861L98.6328 23.8589M97.5397 24.8861L98.6328 23.8589M99.7201 27.379L100.885 26.4338M100.714 28.652L101.914 27.7518M101.642 29.941L102.877 29.0887M101.642 29.941L102.877 29.0887M103.3 32.5625L104.6 31.8144M104.028 33.8925L105.359 33.2008M104.688 35.2337L106.048 34.6014M104.688 35.2337L106.048 34.6014M105.803 37.9452L107.215 37.4396M106.257 39.3131L107.691 38.8746M106.641 40.6875L108.095 40.3184M106.641 40.6875L108.095 40.3184M107.201 43.4515L108.684 43.2267M107.376 44.8389L108.869 44.6883M107.482 46.2284L108.98 46.1529M107.482 46.2284L108.98 46.1529M107.482 49.0096L108.98 49.0852M107.377 50.3992L108.869 50.5498M107.201 51.7865L108.684 52.0114M107.201 51.7865L108.684 52.0114M106.641 54.5506L108.095 54.9197M106.257 55.925L107.691 56.3635M105.803 57.2929L107.215 57.7986M105.803 57.2929L107.215 57.7986M104.688 60.0043L106.048 60.6368M104.028 61.3456L105.359 62.0373M103.3 62.6756L104.6 63.4237M103.3 62.6756L104.6 63.4237M101.642 65.2971L102.877 66.1495M100.714 66.5861L101.914 67.4863M99.7201 67.8591L100.885 68.8043M99.7201 67.8591L100.885 68.8043M97.5397 70.352L98.6328 71.3792M96.3549 71.5695L97.4118 72.6339M95.1084 72.7662L96.1291 73.8654M95.1084 72.7662L96.1291 73.8654M92.4346 75.0926L93.3832 76.2545M91.0096 76.22L91.9225 77.4102M89.5276 77.322L90.4051 78.5386M89.5276 77.322L90.4051 78.5386M86.398 79.446L87.2056 80.71M84.7531 80.4659L85.5264 81.7512M83.0568 81.4564L83.7963 82.7614M83.0568 81.4564L83.7963 82.7614M79.5162 83.3454L80.1894 84.6859M77.6751 84.2422L78.3158 85.5985M75.7891 85.1059L76.3977 86.4769M75.7891 85.1059L76.3977 86.4769M71.889 86.7312L72.4348 88.1284M69.8784 87.4912L70.3935 88.9M67.83 88.2151L68.3147 89.6347M67.83 88.2151L68.3147 89.6347M63.6271 89.5521L64.0521 90.9906M61.4763 90.1639L61.8721 91.6107M59.2954 90.7371L59.6622 92.1915" />

<path stroke-width="0.5pt" d="M106.767 47.619L109.767 47.6191M101.871 63.5923L104.406 65.1957M106.221 42.2162L109.162 41.6207M104.586 36.8702L107.361 35.7295M104.586 58.3678L107.361 59.5086M80.9576 13.4833L82.3698 10.8364M93.3089 73.3751L95.2781 75.6384M98.0972 26.6171L100.355 24.6421M106.221 53.0218L109.161 53.6175M65.5182 7.05047L66.4276 4.19164M98.0972 68.621L100.355 70.5961M65.5182 88.1876L66.4276 91.0465M73.5713 9.9945L74.7253 7.22535M93.3089 21.8629L95.2781 19.5997M101.871 31.6458L104.406 30.0424M73.5713 85.2436L74.7252 88.0128M80.9576 81.7548L82.3698 84.4017M87.5688 77.7772L89.2534 80.2595M87.5688 17.4609L89.2535 14.9786" />

<defs>

<marker refY="3.6" refX="9" markerUnits="strokeWidth" viewBox="0 0 10.5 7.2" stroke="none" id="arrowstart" markerWidth="10.5" fill="black" orient="auto" markerHeight="7.2">

<path d="M 9 3.6 L 10.5 0 L 0 3.6 L 10.5 7.2 L 9 3.6 Z" />

</marker>

<marker refY="3.6" refX="1.5" markerUnits="strokeWidth" viewBox="0 0 10.5 7.2" stroke="none" id="arrowend" markerWidth="10.5" fill="black" orient="auto" markerHeight="7.2">

<path d="M 1.5 3.6 L 0 0 L 10.5 3.6 L 0 7.2 L 1.5 3.6 Z" />

</marker>

</defs>

<text stroke="none" transform="translate(110.767, 47.6191) rotate(90.0012)" font-size="5" fill="black"></text>

<text stroke="none" transform="translate(105.251, 65.7302) rotate(122.308)" font-size="5" fill="black"></text>

<text stroke="none" transform="translate(110.142, 41.4222) rotate(78.5495)" font-size="5" fill="black"></text>

<text stroke="none" transform="translate(108.286, 35.3493) rotate(67.6523)" font-size="5" fill="black"></text>

<text stroke="none" transform="translate(108.286, 59.8889) rotate(112.35)" font-size="5" fill="black"></text>

<text stroke="none" transform="translate(82.8405, 9.95417) rotate(28.0824)" font-size="5" fill="black"></text>

<text stroke="none" transform="translate(57.8189, 94.4375) rotate(166.971)" font-size="5" fill="black"></text>

<text stroke="none" transform="translate(95.9345, 76.3929) rotate(138.976)" font-size="5" fill="black"></text>

<text stroke="none" transform="translate(101.108, 23.9837) rotate(48.827)" font-size="5" fill="black"></text>

<text stroke="none" transform="translate(110.142, 53.816) rotate(101.453)" font-size="5" fill="black"></text>

<text stroke="none" transform="translate(66.7308, 3.23869) rotate(17.6465)" font-size="5" fill="black"></text>

<text stroke="none" transform="translate(101.108, 71.2544) rotate(131.175)" font-size="5" fill="black"></text>

<text stroke="none" transform="translate(66.7308, 91.9994) rotate(162.355)" font-size="5" fill="black"></text>

<text stroke="none" transform="translate(75.1099, 6.30229) rotate(22.6234)" font-size="5" fill="black"></text>

<text stroke="none" transform="translate(95.9345, 18.8453) rotate(41.0259)" font-size="5" fill="black"></text>

<text stroke="none" transform="translate(105.251, 29.508) rotate(57.6935)" font-size="5" fill="black"></text>

<text stroke="none" transform="translate(75.1099, 88.9358) rotate(157.378)" font-size="5" fill="black"></text>

<text stroke="none" transform="translate(82.8405, 85.2839) rotate(151.919)" font-size="5" fill="black"></text>

<text stroke="none" transform="translate(57.819, 0.800606) rotate(13.0303)" font-size="5" fill="black"></text>

<text stroke="none" transform="translate(89.815, 81.0869) rotate(145.837)" font-size="5" fill="black"></text>

<text stroke="none" transform="translate(89.815, 14.1512) rotate(34.1641)" font-size="5" fill="black"></text>

<path marker-start="url(#arrowstart)" stroke-width="0.5pt" marker-end="url(#arrowend)" d="M57.2553 3.23623L65.1186 5.35323L70.6316 7.22518L78.0762 10.356L82.4232 12.5703L87.9028 15.8781L91.7386 18.6332L94.6438 21.0387L97.7872 24.0571L100.02 26.5614L101.865 28.9541L103.419 31.2951L105.032 34.2156L106.614 37.9913L107.558 41.297L108.139 44.9249L108.253 48.484L107.97 51.7195L107.523 54.0979L106.591 57.3146L105.015 61.0581L102.688 65.0896L99.7847 68.9579L97.7184 71.2527L95.2828 73.6251L92.4898 76.0125L88.1424 79.1997L84.8718 81.269L81.1283 83.3613L75.3934 86.0986L70.4644 88.0749L66.2208 89.5378L60.1121 91.3027L57.2553 92.0019" />

</g>

</g>

</svg>

